{
.appVersion = "1350";
classes = (
{
automatic = 1;
code = "A Aacute Abreve Abreveacute Abrevedotbelow Abrevegrave Abrevehookabove Abrevetilde Acircumflex Acircumflexacute Acircumflexdotbelow Acircumflexgrave Acircumflexhookabove Acircumflextilde Adieresis Adotbelow Agrave Ahookabove Amacron Aogonek Aring Atilde AE B C Cacute Ccaron Ccedilla Ccedillaacute Cdotaccent D Eth Dcaron Dcroat E Eacute Ecaron Ecircumflex Ecircumflexacute Ecircumflexdotbelow Ecircumflexgrave Ecircumflexhookabove Ecircumflextilde Edieresis Edotaccent Edotbelow Egrave Ehookabove Emacron Eogonek Etilde F G Gbreve Gcommaaccent Gdotaccent H Hbar I Iacute Icircumflex Idieresis Idotaccent Idotbelow Igrave Ihookabove Imacron Iogonek Itilde J K Kcommaaccent L LJ Lacute Lcaron Lcommaaccent Lj Lslash M N NJ Nacute Ncaron Ncommaaccent Eng Nj Ntilde O Oacute Ocircumflex Ocircumflexacute Ocircumflexdotbelow Ocircumflexgrave Ocircumflexhookabove Ocircumflextilde Odieresis Odotbelow Ograve Ohookabove Ohorn Ohornacute Ohorndotbelow Ohorngrave Ohornhookabove Ohorntilde Ohungarumlaut Omacron Oogonek Oslash Oslashacute Otilde OE P Thorn Q R Racute Rcaron Rcommaaccent S Sacute Scaron Scedilla Scommaaccent Germandbls Schwa T Tbar Tcaron Tcedilla Tcommaaccent U Uacute Ubar Ucircumflex Udieresis Udotbelow Ugrave Uhookabove Uhorn Uhornacute Uhorndotbelow Uhorngrave Uhornhookabove Uhorntilde Uhungarumlaut Umacron Uogonek Uring Utilde V W Wacute Wcircumflex Wdieresis Wgrave X Y Yacute Ycircumflex Ydieresis Ydotbelow Ygrave Yhookabove Ytilde Z Zacute Zcaron Zdotaccent";
name = Uppercase;
},
{
automatic = 1;

glyphs = (
{
color = 6;
glyphname = A;
lastChange = "2020-11-04 12:52:33 +0000";
layers = (
{
anchors = (
{
name = bottom;
position = "{308, 0}";
},
{
name = ogonek;
position = "{611, 0}";
},
{
name = top;
position = "{310, 1400}";
}
);
layerId = "798A1B98-D718-4469-8D5D-1F04921BF637";
paths = (
{
closed = 1;
nodes = (
"211 0 LINE",
"211 20 LINE",
"124 20 LINE",
"294 1193 LINE",
"287 1193 LINE",
"449 20 LINE",
"362 20 LINE",
"362 0 LINE",
"611 0 LINE",
"611 20 LINE",
"516 20 LINE",
"318 1404 LINE",
"305 1404 LINE",
"102 20 LINE",
"9 20 LINE",
"9 0 LINE"
);
},
{
closed = 1;
nodes = (
"416 395 LINE",
"416 416 LINE",
"169 416 LINE",
"169 395 LINE"
);
}
);
width = 620;
},
{
anchors = (
{
name = bottom;
position = "{304, 0}";
},
{
name = ogonek;
position = "{707, 0}";
},
{
name = top;
position = "{341, 1400}";
}
);
layerId = "A4F0BE09-87B8-499B-8BA0-E8BD95093B86";
paths = (
{
closed = 1;
nodes = (
"169 0 LINE",
"169 20 LINE",
"96 20 LINE",
"211 676 LINE",
"196 676 LINE",
"302 20 LINE",
"207 20 LINE",
"207 0 LINE",
"707 0 LINE",
"707 20 LINE",
"627 20 LINE",
"376 1400 LINE",
"307 1400 LINE",
"73 20 LINE",
"-20 20 LINE",
"-20 0 LINE"
);
},
{
closed = 1;
nodes = (
"304 236 LINE",
"304 256 LINE",
"116 256 LINE",
"116 236 LINE"
);
}
);
width = 686;
},
{
anchors = (
{
name = bottom;
position = "{320, 0}";
},
{
name = ogonek;
position = "{627, 0}";
},
{
name = top;
position = "{315, 1400}";
}
);
layerId = "2224527B-843E-45D0-ACBE-AC9678FC6685";
paths = (
{
closed = 1;
nodes = (
"236 0 LINE",
"236 60 LINE",
"156 60 LINE",
"313 1275 LINE",
"315 1275 LINE",
"465 60 LINE",
"373 60 LINE",
"373 0 LINE",
"627 0 LINE",
"627 60 LINE",
"529 60 LINE",
"355 1404 LINE",
"275 1404 LINE",
"93 60 LINE",
"15 60 LINE",
"15 0 LINE"
);
},
{
closed = 1;
nodes = (
"447 358 LINE",
"447 416 LINE",
"173 416 LINE",
"173 358 LINE"
);
}
);
width = 638;
},
{
anchors = (
{
name = bottom;
position = "{334, 0}";
},
{
name = ogonek;
position = "{751, 0}";
},
{
name = top;
position = "{347, 1400}";
}
);
layerId = "42FCB8D3-5141-4304-9365-2E27830BD286";
paths = (
{
closed = 1;
nodes = (
"225 0 LINE",
"225 80 LINE",
"160 80 LINE",
"245 736 LINE",
"242 736 LINE",
"335 80 LINE",
"264 80 LINE",
"264 0 LINE",
"751 0 LINE",
"751 80 LINE",
"658 80 LINE",
"422 1400 LINE",
"265 1400 LINE",
"76 80 LINE",
"-5 80 LINE",
"-5 0 LINE"
);
},
{
closed = 1;
nodes = (
"349 233 LINE",
"349 307 LINE",
"149 307 LINE",
"149 233 LINE"
);
}
);
width = 741;
}
);
leftKerningGroup = A;
rightKerningGroup = A;
unicode = 0041;
},
{
color = 3;
glyphname = Aogonek;
lastChange = "2020-11-04 12:52:45 +0000";
layers = (
{
components = (
{
name = ogonekcomb.case;
transform = "{1, 0, 0, 1, 273, 0}";
}
);
layerId = "798A1B98-D718-4469-8D5D-1F04921BF637";
paths = (
{
closed = 1;
nodes = (
"211 0 LINE",
"211 20 LINE",
"124 20 LINE",
"294 1193 LINE",
"287 1193 LINE",
"449 20 LINE",
"362 20 LINE",
"362 0 LINE",
"611 0 LINE",
"611 20 LINE",
"516 20 LINE",
"318 1404 LINE",
"305 1404 LINE",
"102 20 LINE",
"9 20 LINE",
"9 0 LINE"
);
},
{
closed = 1;
nodes = (
"416 395 LINE",
"416 416 LINE",
"169 416 LINE",
"169 395 LINE"
);
}
);
width = 620;
},
{
components = (
{
name = ogonekcomb.case;
transform = "{1, 0, 0, 1, 397, 0}";
}
);
layerId = "A4F0BE09-87B8-499B-8BA0-E8BD95093B86";
paths = (
{
closed = 1;
nodes = (
"169 0 LINE",
"169 20 LINE",
"96 20 LINE",
"211 676 LINE",
"196 676 LINE",
"302 20 LINE",
"207 20 LINE",
"207 0 LINE",
"707 0 LINE",
"707 20 LINE",
"627 20 LINE",
"376 1400 LINE",
"307 1400 LINE",
"73 20 LINE",
"-20 20 LINE",
"-20 0 LINE"
);
},
{
closed = 1;
nodes = (
"304 236 LINE",
"304 256 LINE",
"116 256 LINE",
"116 236 LINE"
);
}
);
width = 686;
},
{
components = (
{
name = ogonekcomb.case;
transform = "{1, 0, 0, 1, 291, 0}";
}
);
layerId = "2224527B-843E-45D0-ACBE-AC9678FC6685";
paths = (
{
closed = 1;
nodes = (
"236 0 LINE",
"236 60 LINE",
"156 60 LINE",
"313 1275 LINE",
"315 1275 LINE",
"465 60 LINE",
"373 60 LINE",
"373 0 LINE",
"627 0 LINE",
"627 60 LINE",
"529 60 LINE",
"355 1404 LINE",
"275 1404 LINE",
"93 60 LINE",
"15 60 LINE",
"15 0 LINE"
);
},
{
closed = 1;
nodes = (
"447 358 LINE",
"447 416 LINE",
"173 416 LINE",
"173 358 LINE"
);
}
);
width = 638;
},
{
components = (
{
name = ogonekcomb.case;
transform = "{1, 0, 0, 1, 395, 0}";
}
);
layerId = "42FCB8D3-5141-4304-9365-2E27830BD286";
paths = (
{
closed = 1;
nodes = (
"225 0 LINE",
"225 80 LINE",
"160 80 LINE",
"245 736 LINE",
"242 736 LINE",
"335 80 LINE",
"264 80 LINE",
"264 0 LINE",
"751 0 LINE",
"751 80 LINE",
"658 80 LINE",
"422 1400 LINE",
"265 1400 LINE",
"76 80 LINE",
"-5 80 LINE",
"-5 0 LINE"
);
},
{
closed = 1;
nodes = (
"349 233 LINE",
"349 307 LINE",
"149 307 LINE",
"149 233 LINE"
);
}
);
width = 741;
}
);
unicode = 0104;
},
{
color = 6;
glyphname = AE;
lastChange = "2020-11-04 12:52:33 +0000";
layers = (
{
anchors = (
{
name = bottom;
position = "{480, 0}";
},
{
name = top;
position = "{480, 1400}";
}
);
layerId = "798A1B98-D718-4469-8D5D-1F04921BF637";
paths = (
{
closed = 1;
nodes = (
"849 0 LINE",
"849 247 LINE",
"829 247 LINE",
"829 84 OFFCURVE",
"825 20 OFFCURVE",
"667 20 CURVE SMOOTH",
"520 20 LINE",
"520 711 LINE",
"789 711 LINE",
"789 593 LINE",
"809 593 LINE",
"809 851 LINE",
"789 851 LINE",
"789 731 LINE",
"520 731 LINE",
"520 1380 LINE",
"678 1380 LINE SMOOTH",
"827 1380 OFFCURVE",
"829 1318 OFFCURVE",
"829 1156 CURVE",
"849 1156 LINE",
"849 1400 LINE",
"460 1400 LINE",
"460 20 LINE",
"369 20 LINE",
"369 0 LINE"
);
},
{
closed = 1;
nodes = (
"480 336 LINE",
"484 356 LINE",
"202 356 LINE",
"198 336 LINE"
);
},
{
closed = 1;
nodes = (
"191 0 LINE",
"191 20 LINE",
"127 20 LINE",
"478 1400 LINE",
"460 1400 LINE",
"105 20 LINE",
"29 20 LINE",
"29 0 LINE"
);
}
);
width = 929;
},
{
anchors = (
{
name = bottom;
position = "{570, 0}";
},
{
name = top;
position = "{570, 1400}";
}
);
layerId = "A4F0BE09-87B8-499B-8BA0-E8BD95093B86";
paths = (
{
closed = 1;
nodes = (
"1038 0 LINE",
"1038 367 LINE",
"1018 367 LINE",
"1018 204 OFFCURVE",
"944 20 OFFCURVE",
"787 20 CURVE SMOOTH",
"749 20 LINE",
"749 711 LINE",
"1018 711 LINE",
"1018 593 LINE",
"1038 593 LINE",
"1038 851 LINE",
"1018 851 LINE",
"1018 731 LINE",
"749 731 LINE",
"749 1380 LINE",
"787 1380 LINE SMOOTH",
"944 1380 OFFCURVE",
"1018 1198 OFFCURVE",
"1018 1036 CURVE",
"1038 1036 LINE",
"1038 1400 LINE",
"451 1400 LINE",
"451 20 LINE",
"380 20 LINE",
"380 0 LINE"
);
},
{
closed = 1;
nodes = (
"471 336 LINE",
"475 356 LINE",
"193 356 LINE",
"189 336 LINE"
);
},
{
closed = 1;
nodes = (
"182 0 LINE",
"182 20 LINE",
"118 20 LINE",
"467 1400 LINE",
"451 1400 LINE",
"96 20 LINE",
"20 20 LINE",
"20 0 LINE"
);
}
);
width = 1108;
},
{
anchors = (
{
name = bottom;
position = "{489, 0}";
},
{
name = top;
position = "{489, 1400}";
}
);
layerId = "2224527B-843E-45D0-ACBE-AC9678FC6685";
paths = (
{
closed = 1;
nodes = (
"858 0 LINE",
"858 247 LINE",
"798 247 LINE",
"798 104 OFFCURVE",
"795 60 OFFCURVE",
"676 60 CURVE SMOOTH",
"529 60 LINE",
"529 691 LINE",
"778 691 LINE",
"778 593 LINE",
"836 593 LINE",
"836 851 LINE",
"778 851 LINE",
"778 751 LINE",
"529 751 LINE",
"529 1340 LINE",
"687 1340 LINE SMOOTH",
"796 1340 OFFCURVE",
"798 1298 OFFCURVE",
"798 1156 CURVE",
"858 1156 LINE",
"858 1400 LINE",
"469 1400 LINE",
"469 60 LINE",
"378 60 LINE",
"378 0 LINE"
);
},
{
closed = 1;
nodes = (
"489 316 LINE",
"493 376 LINE",
"211 376 LINE",
"207 316 LINE"
);
},
{
closed = 1;
nodes = (
"220 0 LINE",
"220 60 LINE",
"147 60 LINE",
"485 1400 LINE",
"425 1400 LINE",
"80 60 LINE",
"18 60 LINE",
"18 0 LINE"
);
}
);
width = 947;
},
{
anchors = (
{
name = bottom;
position = "{597, 0}";
},
{
name = top;
position = "{597, 1400}";
}
);
layerId = "42FCB8D3-5141-4304-9365-2E27830BD286";
paths = (
{
closed = 1;
nodes = (
"1065 0 LINE",
"1065 367 LINE",
"985 367 LINE",
"985 204 OFFCURVE",
"971 80 OFFCURVE",
"815 80 CURVE SMOOTH",
"776 80 LINE",
"776 680 LINE",
"985 680 LINE",
"985 593 LINE",
"1065 593 LINE",
"1065 851 LINE",
"985 851 LINE",
"985 760 LINE",
"776 760 LINE",
"776 1320 LINE",
"815 1320 LINE SMOOTH",
"971 1320 OFFCURVE",
"985 1198 OFFCURVE",
"985 1036 CURVE",
"1065 1036 LINE",
"1065 1400 LINE",
"478 1400 LINE",
"478 80 LINE",
"407 80 LINE",
"407 0 LINE"
);
},
{
closed = 1;
nodes = (
"498 307 LINE",
"502 387 LINE",
"220 387 LINE",
"216 307 LINE"
);
},
{
closed = 1;
nodes = (
"240 0 LINE",
"240 80 LINE",
"162 80 LINE",
"495 1400 LINE",
"409 1400 LINE",
"69 80 LINE",
"16 80 LINE",
"16 0 LINE"
);
}
);
width = 1163;
}
);
leftKerningGroup = A;
rightKerningGroup = E;
unicode = 00C6;
},
{
color = 6;
glyphname = B;
lastChange = "2020-11-04 12:52:33 +0000";
layers = (
{
anchors = (
{
name = bottom;
position = "{316, 0}";
},
{
name = top;
position = "{316, 1400}";
}
);
layerId = "798A1B98-D718-4469-8D5D-1F04921BF637";
paths = (
{
closed = 1;
nodes = (
"358 0 LINE SMOOTH",
"503 0 OFFCURVE",
"594 144 OFFCURVE",
"594 382 CURVE SMOOTH",
"594 627 OFFCURVE",
"472 738 OFFCURVE",
"374 742 CURVE",
"467 760 OFFCURVE",
"556 873 OFFCURVE",
"556 1089 CURVE SMOOTH",
"556 1311 OFFCURVE",
"447 1400 OFFCURVE",
"314 1400 CURVE SMOOTH",
"60 1400 LINE",
"60 1380 LINE",
"154 1380 LINE",
"154 20 LINE",
"60 20 LINE",
"60 0 LINE"
);
},
{
closed = 1;
nodes = (
"214 731 LINE",
"316 731 LINE SMOOTH",
"409 731 OFFCURVE",
"529 620 OFFCURVE",
"529 384 CURVE SMOOTH",
"529 135 OFFCURVE",
"438 20 OFFCURVE",
"349 20 CURVE SMOOTH",
"214 20 LINE"
);
},
{
closed = 1;
nodes = (
"214 1380 LINE",
"316 1380 LINE SMOOTH",
"398 1380 OFFCURVE",
"492 1311 OFFCURVE",
"492 1089 CURVE SMOOTH",
"492 853 OFFCURVE",
"405 751 OFFCURVE",
"316 751 CURVE SMOOTH",
"214 751 LINE"
);
}
);
width = 643;
},
{
anchors = (
{
name = bottom;
position = "{432, 0}";
},
{
name = top;
position = "{419, 1400}";
}
);
layerId = "A4F0BE09-87B8-499B-8BA0-E8BD95093B86";
paths = (
{
closed = 1;
nodes = (
"502 0 LINE SMOOTH",
"667 0 OFFCURVE",
"833 116 OFFCURVE",
"833 402 CURVE SMOOTH",
"833 667 OFFCURVE",
"618 738 OFFCURVE",
"520 742 CURVE",
"618 753 OFFCURVE",
"807 844 OFFCURVE",
"807 1078 CURVE SMOOTH",
"807 1316 OFFCURVE",
"611 1400 OFFCURVE",
"478 1400 CURVE SMOOTH",
"24 1400 LINE",
"24 1380 LINE",
"118 1380 LINE",
"118 20 LINE",
"24 20 LINE",
"24 0 LINE"
);
},
{
closed = 1;
nodes = (
"413 731 LINE",
"440 731 LINE SMOOTH",
"502 731 OFFCURVE",
"520 636 OFFCURVE",
"520 387 CURVE SMOOTH",
"520 140 OFFCURVE",
"478 20 OFFCURVE",
"433 20 CURVE SMOOTH",
"413 20 LINE"
);
},
{
closed = 1;
nodes = (
"413 1380 LINE",
"433 1380 LINE SMOOTH",
"480 1380 OFFCURVE",
"509 1300 OFFCURVE",
"509 1078 CURVE SMOOTH",
"509 842 OFFCURVE",
"500 751 OFFCURVE",
"440 751 CURVE SMOOTH",
"413 751 LINE"
);
}
);
width = 873;
},
{
anchors = (
{
name = bottom;
position = "{316, 0}";
},
{
name = top;
position = "{316, 1400}";
}
);
layerId = "2224527B-843E-45D0-ACBE-AC9678FC6685";
paths = (
{
closed = 1;
nodes = (
"358 0 LINE SMOOTH",
"503 0 OFFCURVE",
"594 144 OFFCURVE",
"594 382 CURVE SMOOTH",
"594 627 OFFCURVE",
"487 738 OFFCURVE",
"389 742 CURVE",
"483 760 OFFCURVE",
"556 873 OFFCURVE",
"556 1089 CURVE SMOOTH",
"556 1311 OFFCURVE",
"447 1400 OFFCURVE",
"314 1400 CURVE SMOOTH",
"60 1400 LINE",
"60 1340 LINE",
"154 1340 LINE",
"154 60 LINE",
"60 60 LINE",
"60 0 LINE"
);
},
{
closed = 1;
nodes = (
"214 711 LINE",
"316 711 LINE SMOOTH",
"409 711 OFFCURVE",
"529 620 OFFCURVE",
"529 384 CURVE SMOOTH",
"529 135 OFFCURVE",
"438 60 OFFCURVE",
"349 60 CURVE SMOOTH",
"214 60 LINE"
);
},
{
closed = 1;
nodes = (
"214 1340 LINE",
"316 1340 LINE SMOOTH",
"398 1340 OFFCURVE",
"492 1311 OFFCURVE",
"492 1089 CURVE SMOOTH",
"492 853 OFFCURVE",
"405 771 OFFCURVE",
"316 771 CURVE SMOOTH",
"214 771 LINE"
);
}
);
width = 652;
},
{
anchors = (
{
name = bottom;
position = "{451, 0}";
},
{
name = top;
position = "{437, 1400}";
}
);
layerId = "42FCB8D3-5141-4304-9365-2E27830BD286";
paths = (
{
closed = 1;
nodes = (
"520 0 LINE SMOOTH",
"685 0 OFFCURVE",
"871 116 OFFCURVE",
"871 402 CURVE SMOOTH",
"871 667 OFFCURVE",
"665 738 OFFCURVE",
"567 742 CURVE",
"665 753 OFFCURVE",
"845 844 OFFCURVE",
"845 1078 CURVE SMOOTH",
"845 1316 OFFCURVE",
"669 1400 OFFCURVE",
"496 1400 CURVE SMOOTH",
"42 1400 LINE",
"42 1320 LINE",
"136 1320 LINE",
"136 80 LINE",
"42 80 LINE",
"42 0 LINE"
);
},
{
closed = 1;
nodes = (
"431 700 LINE",
"458 700 LINE SMOOTH",
"505 700 OFFCURVE",
"560 653 OFFCURVE",
"560 402 CURVE SMOOTH",
"560 200 OFFCURVE",
"504 80 OFFCURVE",
"451 80 CURVE SMOOTH",
"431 80 LINE"
);
},
{
closed = 1;
nodes = (
"431 1320 LINE",
"451 1320 LINE SMOOTH",
"498 1320 OFFCURVE",
"549 1271 OFFCURVE",
"549 1078 CURVE SMOOTH",
"549 858 OFFCURVE",
"518 780 OFFCURVE",
"458 780 CURVE SMOOTH",
"431 780 LINE"
);
}
);
width = 927;
}
);
leftKerningGroup = H;
leftMetricsKey = H;
rightKerningGroup = B;
unicode = 0042;
},
{
color = 6;
glyphname = C;
lastChange = "2020-11-04 12:52:33 +0000";
layers = (
{
anchors = (
{
name = bottom;
position = "{332, 0}";
},
{
name = top;
position = "{322, 1400}";
}
);
layerId = "798A1B98-D718-4469-8D5D-1F04921BF637";
paths = (
{
closed = 1;
nodes = (
"427 -20 OFFCURVE",
"485 82 OFFCURVE",
"520 176 CURVE",
"498 189 LINE",
"482 131 OFFCURVE",
"429 4 OFFCURVE",
"340 4 CURVE SMOOTH",
"211 4 OFFCURVE",
"124 276 OFFCURVE",
"124 700 CURVE SMOOTH",
"124 978 OFFCURVE",
"202 1396 OFFCURVE",
"345 1396 CURVE SMOOTH",
"400 1396 OFFCURVE",
"440 1333 OFFCURVE",
"440 1280 CURVE SMOOTH",
"440 1216 OFFCURVE",
"429 1198 OFFCURVE",
"429 1162 CURVE SMOOTH",
"429 1122 OFFCURVE",
"438 1104 OFFCURVE",
"458 1104 CURVE SMOOTH",
"478 1104 OFFCURVE",
"489 1118 OFFCURVE",
"489 1173 CURVE SMOOTH",
"489 1295 OFFCURVE",
"436 1422 OFFCURVE",
"338 1422 CURVE SMOOTH",
"144 1422 OFFCURVE",
"60 1029 OFFCURVE",
"60 698 CURVE SMOOTH",
"60 220 OFFCURVE",
"180 -20 OFFCURVE",
"333 -20 CURVE SMOOTH"
);
}
);
width = 549;
},
{
anchors = (
{
name = bottom;
position = "{428, 0}";
},
{
name = top;
position = "{432, 1400}";
}
);
layerId = "A4F0BE09-87B8-499B-8BA0-E8BD95093B86";
paths = (
{
closed = 1;
nodes = (
"528 -20 OFFCURVE",
"617 55 OFFCURVE",
"659 176 CURVE",
"637 189 LINE",
"615 82 OFFCURVE",
"517 7 OFFCURVE",
"457 7 CURVE SMOOTH",
"377 7 OFFCURVE",
"375 498 OFFCURVE",
"375 700 CURVE SMOOTH",
"375 909 OFFCURVE",
"377 1393 OFFCURVE",
"481 1393 CURVE SMOOTH",
"501 1393 OFFCURVE",
"537 1373 OFFCURVE",
"537 1338 CURVE SMOOTH",
"537 1280 OFFCURVE",
"450 1231 OFFCURVE",
"450 1129 CURVE SMOOTH",
"450 1042 OFFCURVE",
"481 984 OFFCURVE",
"568 984 CURVE SMOOTH",
"646 984 OFFCURVE",
"681 1053 OFFCURVE",
"681 1138 CURVE SMOOTH",
"681 1264 OFFCURVE",
"588 1422 OFFCURVE",
"428 1422 CURVE SMOOTH",
"163 1422 OFFCURVE",
"50 1060 OFFCURVE",
"50 698 CURVE SMOOTH",
"50 242 OFFCURVE",
"188 -20 OFFCURVE",
"421 -20 CURVE SMOOTH"
);
}
);
width = 721;
},
{
anchors = (
{
name = bottom;
position = "{357, 0}";
},
{
name = top;
position = "{352, 1400}";
}
);
layerId = "2224527B-843E-45D0-ACBE-AC9678FC6685";
paths = (
{
closed = 1;
nodes = (
"447 -20 OFFCURVE",
"513 82 OFFCURVE",
"544 176 CURVE",
"489 198 LINE",
"469 135 OFFCURVE",
"427 40 OFFCURVE",
"353 40 CURVE SMOOTH",
"231 40 OFFCURVE",
"124 282 OFFCURVE",
"124 700 CURVE SMOOTH",
"124 987 OFFCURVE",
"211 1362 OFFCURVE",
"369 1362 CURVE SMOOTH",
"407 1362 OFFCURVE",
"445 1331 OFFCURVE",
"445 1280 CURVE SMOOTH",
"445 1216 OFFCURVE",
"433 1198 OFFCURVE",
"433 1162 CURVE SMOOTH",
"433 1122 OFFCURVE",
"451 1104 OFFCURVE",
"476 1104 CURVE SMOOTH",
"500 1104 OFFCURVE",
"516 1118 OFFCURVE",
"516 1173 CURVE SMOOTH",
"516 1295 OFFCURVE",
"458 1422 OFFCURVE",
"360 1422 CURVE SMOOTH",
"162 1422 OFFCURVE",
"60 1033 OFFCURVE",
"60 698 CURVE SMOOTH",
"60 220 OFFCURVE",
"185 -20 OFFCURVE",
"353 -20 CURVE SMOOTH"
);
}
);
width = 578;
},
{
anchors = (
{
name = bottom;
position = "{460, 0}";
},
{
name = top;
position = "{468, 1400}";
}
);
layerId = "42FCB8D3-5141-4304-9365-2E27830BD286";
paths = (
{
closed = 1;
nodes = (
"592 -20 OFFCURVE",
"654 56 OFFCURVE",
"696 176 CURVE",
"630 218 LINE",
"607 120 OFFCURVE",
"583 60 OFFCURVE",
"510 60 CURVE SMOOTH",
"423 60 OFFCURVE",
"388 347 OFFCURVE",
"388 700 CURVE SMOOTH",
"388 933 OFFCURVE",
"412 1338 OFFCURVE",
"523 1338 CURVE SMOOTH",
"550 1338 OFFCURVE",
"563 1327 OFFCURVE",
"563 1284 CURVE SMOOTH",
"563 1220 OFFCURVE",
"487 1195 OFFCURVE",
"487 1113 CURVE SMOOTH",
"487 1036 OFFCURVE",
"517 984 OFFCURVE",
"605 984 CURVE SMOOTH",
"683 984 OFFCURVE",
"717 1053 OFFCURVE",
"717 1138 CURVE SMOOTH",
"717 1262 OFFCURVE",
"612 1422 OFFCURVE",
"470 1422 CURVE SMOOTH",
"199 1422 OFFCURVE",
"68 1067 OFFCURVE",
"68 698 CURVE SMOOTH",
"68 242 OFFCURVE",
"225 -20 OFFCURVE",
"459 -20 CURVE SMOOTH"
);
}
);
width = 780;
}
);
leftKerningGroup = O;
leftMetricsKey = O;
rightKerningGroup = C;
unicode = 0043;
},
{
color = 3;
glyphname = Ccedilla;
lastChange = "2020-11-04 12:52:45 +0000";
layers = (
{
components = (
{
name = cedillacomb.case;
transform = "{1, 0, 0, 1, 54, 0}";
}
);
layerId = "798A1B98-D718-4469-8D5D-1F04921BF637";
paths = (
{
closed = 1;
nodes = (
"427 -20 OFFCURVE",
"485 82 OFFCURVE",
"520 176 CURVE",
"498 189 LINE",
"482 131 OFFCURVE",
"429 4 OFFCURVE",
"340 4 CURVE SMOOTH",
"211 4 OFFCURVE",
"124 276 OFFCURVE",
"124 700 CURVE SMOOTH",
"124 978 OFFCURVE",
"202 1396 OFFCURVE",
"345 1396 CURVE SMOOTH",
"400 1396 OFFCURVE",
"440 1333 OFFCURVE",
"440 1280 CURVE SMOOTH",
"440 1216 OFFCURVE",
"429 1198 OFFCURVE",
"429 1162 CURVE SMOOTH",
"429 1122 OFFCURVE",
"438 1104 OFFCURVE",
"458 1104 CURVE SMOOTH",
"478 1104 OFFCURVE",
"489 1118 OFFCURVE",
"489 1173 CURVE SMOOTH",
"489 1295 OFFCURVE",
"436 1422 OFFCURVE",
"338 1422 CURVE SMOOTH",
"144 1422 OFFCURVE",
"60 1029 OFFCURVE",
"60 698 CURVE SMOOTH",
"60 220 OFFCURVE",
"180 -20 OFFCURVE",
"333 -20 CURVE SMOOTH"
);
}
);
width = 549;
},
{
components = (
{
name = cedillacomb.case;
transform = "{1, 0, 0, 1, 158, 0}";
}
);
layerId = "A4F0BE09-87B8-499B-8BA0-E8BD95093B86";
paths = (
{
closed = 1;
nodes = (
"528 -20 OFFCURVE",
"617 55 OFFCURVE",
"659 176 CURVE",
"637 189 LINE",
"615 82 OFFCURVE",
"517 7 OFFCURVE",
"457 7 CURVE SMOOTH",
"377 7 OFFCURVE",
"375 498 OFFCURVE",
"375 700 CURVE SMOOTH",
"375 909 OFFCURVE",
"377 1393 OFFCURVE",
"481 1393 CURVE SMOOTH",
"501 1393 OFFCURVE",
"537 1373 OFFCURVE",
"537 1338 CURVE SMOOTH",
"537 1280 OFFCURVE",
"450 1231 OFFCURVE",
"450 1129 CURVE SMOOTH",
"450 1042 OFFCURVE",
"481 984 OFFCURVE",
"568 984 CURVE SMOOTH",
"646 984 OFFCURVE",
"681 1053 OFFCURVE",
"681 1138 CURVE SMOOTH",
"681 1264 OFFCURVE",
"588 1422 OFFCURVE",
"428 1422 CURVE SMOOTH",
"163 1422 OFFCURVE",
"50 1060 OFFCURVE",
"50 698 CURVE SMOOTH",
"50 242 OFFCURVE",
"188 -20 OFFCURVE",
"421 -20 CURVE SMOOTH"
);
}
);
width = 721;
},
{
components = (
{
name = cedillacomb.case;
transform = "{1, 0, 0, 1, 66, 0}";
}
);
layerId = "2224527B-843E-45D0-ACBE-AC9678FC6685";
paths = (
{
closed = 1;
nodes = (
"447 -20 OFFCURVE",
"513 82 OFFCURVE",
"544 176 CURVE",
"489 198 LINE",
"469 135 OFFCURVE",
"427 40 OFFCURVE",
"353 40 CURVE SMOOTH",
"231 40 OFFCURVE",
"124 282 OFFCURVE",
"124 700 CURVE SMOOTH",
"124 987 OFFCURVE",
"211 1362 OFFCURVE",
"369 1362 CURVE SMOOTH",
"407 1362 OFFCURVE",
"445 1331 OFFCURVE",
"445 1280 CURVE SMOOTH",
"445 1216 OFFCURVE",
"433 1198 OFFCURVE",
"433 1162 CURVE SMOOTH",
"433 1122 OFFCURVE",
"451 1104 OFFCURVE",
"476 1104 CURVE SMOOTH",
"500 1104 OFFCURVE",
"516 1118 OFFCURVE",
"516 1173 CURVE SMOOTH",
"516 1295 OFFCURVE",
"458 1422 OFFCURVE",
"360 1422 CURVE SMOOTH",
"162 1422 OFFCURVE",
"60 1033 OFFCURVE",
"60 698 CURVE SMOOTH",
"60 220 OFFCURVE",
"185 -20 OFFCURVE",
"353 -20 CURVE SMOOTH"
);
}
);
width = 578;
},
{
components = (
{
name = cedillacomb.case;
transform = "{1, 0, 0, 1, 165, 0}";
}
);
layerId = "42FCB8D3-5141-4304-9365-2E27830BD286";
paths = (
{
closed = 1;
nodes = (
"592 -20 OFFCURVE",
"654 56 OFFCURVE",
"696 176 CURVE",
"630 218 LINE",
"607 120 OFFCURVE",
"583 60 OFFCURVE",
"510 60 CURVE SMOOTH",
"423 60 OFFCURVE",
"388 347 OFFCURVE",
"388 700 CURVE SMOOTH",
"388 933 OFFCURVE",
"412 1338 OFFCURVE",
"523 1338 CURVE SMOOTH",
"550 1338 OFFCURVE",
"563 1327 OFFCURVE",
"563 1284 CURVE SMOOTH",
"563 1220 OFFCURVE",
"487 1195 OFFCURVE",
"487 1113 CURVE SMOOTH",
"487 1036 OFFCURVE",
"517 984 OFFCURVE",
"605 984 CURVE SMOOTH",
"683 984 OFFCURVE",
"717 1053 OFFCURVE",
"717 1138 CURVE SMOOTH",
"717 1262 OFFCURVE",
"612 1422 OFFCURVE",
"470 1422 CURVE SMOOTH",
"199 1422 OFFCURVE",
"68 1067 OFFCURVE",
"68 698 CURVE SMOOTH",
"68 242 OFFCURVE",
"225 -20 OFFCURVE",
"459 -20 CURVE SMOOTH"
);
}
);
width = 780;
}
);
unicode = 00C7;
},
{
color = 6;
glyphname = D;
lastChange = "2020-11-04 12:52:33 +0000";
layers = (
{
anchors = (
{
name = bottom;
position = "{358, 0}";
},
{
name = center;
position = "{302, 700}";
},
{
name = top;
position = "{302, 1400}";
}
);
layerId = "798A1B98-D718-4469-8D5D-1F04921BF637";
paths = (
{
closed = 1;
nodes = (
"291 0 LINE SMOOTH",
"471 0 OFFCURVE",
"618 235 OFFCURVE",
"618 711 CURVE SMOOTH",
"618 1182 OFFCURVE",
"473 1400 OFFCURVE",
"291 1400 CURVE SMOOTH",
"60 1400 LINE",
"60 1380 LINE",
"149 1380 LINE",
"149 20 LINE",
"60 20 LINE",
"60 0 LINE"
);
},
{
closed = 1;
nodes = (
"209 1380 LINE",
"305 1380 LINE SMOOTH",
"427 1380 OFFCURVE",
"551 1138 OFFCURVE",
"551 711 CURVE SMOOTH",
"551 215 OFFCURVE",
"413 20 OFFCURVE",
"265 20 CURVE SMOOTH",
"209 20 LINE"
);
}
);
width = 678;
},
{
anchors = (
{
name = bottom;
position = "{380, 0}";
},
{
name = center;
position = "{450, 700}";
},
{
name = top;
position = "{450, 1400}";
}
);
layerId = "A4F0BE09-87B8-499B-8BA0-E8BD95093B86";
paths = (
{
closed = 1;
nodes = (
"462 0 LINE SMOOTH",
"662 0 OFFCURVE",
"840 255 OFFCURVE",
"840 711 CURVE SMOOTH",
"840 1162 OFFCURVE",
"664 1400 OFFCURVE",
"462 1400 CURVE SMOOTH",
"24 1400 LINE",
"24 1380 LINE",
"120 1380 LINE",
"120 20 LINE",
"24 20 LINE",
"24 0 LINE"
);
},
{
closed = 1;
nodes = (
"422 1380 LINE",
"449 1380 LINE SMOOTH",
"502 1380 OFFCURVE",
"527 1118 OFFCURVE",
"527 711 CURVE SMOOTH",
"527 275 OFFCURVE",
"502 20 OFFCURVE",
"449 20 CURVE SMOOTH",
"422 20 LINE"
);
}
);
width = 890;
},
{
anchors = (
{
name = bottom;
position = "{302, 0}";
},
{
name = center;
position = "{302, 700}";
},
{
name = top;
position = "{302, 1400}";
}
);
layerId = "2224527B-843E-45D0-ACBE-AC9678FC6685";
paths = (
{
closed = 1;
nodes = (
"291 0 LINE SMOOTH",
"471 0 OFFCURVE",
"618 235 OFFCURVE",
"618 711 CURVE SMOOTH",
"618 1182 OFFCURVE",
"473 1400 OFFCURVE",
"291 1400 CURVE SMOOTH",
"60 1400 LINE",
"60 1340 LINE",
"149 1340 LINE",
"149 60 LINE",
"60 60 LINE",
"60 0 LINE"
);
},
{
closed = 1;
nodes = (
"209 1340 LINE",
"306 1340 LINE SMOOTH",
"427 1340 OFFCURVE",
"551 1118 OFFCURVE",
"551 711 CURVE SMOOTH",
"551 235 OFFCURVE",
"413 60 OFFCURVE",
"266 60 CURVE SMOOTH",
"209 60 LINE"
);
}
);
width = 678;
},
{
anchors = (
{
name = bottom;
position = "{393, 0}";
},
{
name = center;
position = "{468, 700}";
},
{
name = top;
position = "{468, 1400}";
}
);
layerId = "42FCB8D3-5141-4304-9365-2E27830BD286";
paths = (
{
closed = 1;
nodes = (
"480 0 LINE SMOOTH",
"680 0 OFFCURVE",
"866 255 OFFCURVE",
"866 711 CURVE SMOOTH",
"866 1162 OFFCURVE",
"682 1400 OFFCURVE",
"480 1400 CURVE SMOOTH",
"42 1400 LINE",
"42 1320 LINE",
"138 1320 LINE",
"138 80 LINE",
"42 80 LINE",
"42 0 LINE"
);
},
{
closed = 1;
nodes = (
"440 1320 LINE",
"467 1320 LINE SMOOTH",
"520 1320 OFFCURVE",
"575 1089 OFFCURVE",
"575 711 CURVE SMOOTH",
"575 304 OFFCURVE",
"520 80 OFFCURVE",
"467 80 CURVE SMOOTH",
"440 80 LINE"
);
}
);
width = 920;
}
);
leftKerningGroup = H;
leftMetricsKey = H;
rightKerningGroup = O;
rightMetricsKey = O;
unicode = 0044;
},
{
color = 3;
glyphname = Eth;
lastChange = "2020-11-04 12:52:45 +0000";
layers = (
{
components = (
{
name = D;
}
);
layerId = "798A1B98-D718-4469-8D5D-1F04921BF637";
paths = (
{
closed = 1;
nodes = (
"404 708 LINE",
"404 728 LINE",
"60 728 LINE",
"60 708 LINE"
);
}
);
width = 720;
},
{
components = (
{
name = D;
}
);
layerId = "A4F0BE09-87B8-499B-8BA0-E8BD95093B86";
paths = (
{
closed = 1;
nodes = (
"518 708 LINE",
"518 728 LINE",
"30 728 LINE",
"30 708 LINE"
);
}
);
width = 908;
},
{
components = (
{
name = D;
}
);
layerId = "2224527B-843E-45D0-ACBE-AC9678FC6685";
paths = (
{
closed = 1;
nodes = (
"389 688 LINE",
"389 748 LINE",
"45 748 LINE",
"45 688 LINE"
);
}
);
width = 738;
},
{
components = (
{
name = D;
}
);
layerId = "42FCB8D3-5141-4304-9365-2E27830BD286";
paths = (
{
closed = 1;
nodes = (
"539 677 LINE",
"539 757 LINE",
"51 757 LINE",
"51 677 LINE"
);
}
);
width = 963;
}
);
leftKerningGroup = H;
rightKerningGroup = O;
unicode = 00D0;
},
{
color = 6;
glyphname = E;
lastChange = "2020-11-04 12:52:33 +0000";
layers = (
{
anchors = (
{
name = bottom;
position = "{301, 0}";
},
{
name = ogonek;
position = "{540, 0}";
},
{
name = top;
position = "{318, 1400}";
},
{
name = topleft;
position = "{25, 1400}";
}
);
layerId = "798A1B98-D718-4469-8D5D-1F04921BF637";
paths = (
{
closed = 1;
nodes = (
"540 0 LINE",
"540 247 LINE",
"520 247 LINE",
"520 84 OFFCURVE",
"509 20 OFFCURVE",
"358 20 CURVE SMOOTH",
"209 20 LINE",
"209 691 LINE",
"453 691 LINE",
"453 573 LINE",
"473 573 LINE",
"473 831 LINE",
"453 831 LINE",
"453 711 LINE",
"209 711 LINE",
"209 1380 LINE",
"367 1380 LINE SMOOTH",
"518 1380 OFFCURVE",
"520 1318 OFFCURVE",
"520 1156 CURVE",
"540 1156 LINE",
"540 1400 LINE",
"60 1400 LINE",
"60 1380 LINE",
"149 1380 LINE",
"149 20 LINE",
"60 20 LINE",
"60 0 LINE"
);
}
);
width = 598;
},
{
anchors = (
{
name = bottom;
position = "{396, 0}";
},
{
name = ogonek;
position = "{691, 0}";
},
{
name = top;
position = "{388, 1400}";
},
{
name = topleft;
position = "{15, 1400}";
}
);
layerId = "A4F0BE09-87B8-499B-8BA0-E8BD95093B86";
paths = (
{
closed = 1;
nodes = (
"691 0 LINE",
"691 367 LINE",
"671 367 LINE",
"671 204 OFFCURVE",
"557 20 OFFCURVE",
"440 20 CURVE SMOOTH",
"422 20 LINE",
"422 691 LINE",
"588 691 LINE",
"588 573 LINE",
"608 573 LINE",
"608 831 LINE",
"588 831 LINE",
"588 711 LINE",
"422 711 LINE",
"422 1380 LINE",
"440 1380 LINE SMOOTH",
"557 1380 OFFCURVE",
"671 1198 OFFCURVE",
"671 1036 CURVE",
"691 1036 LINE",
"691 1400 LINE",
"24 1400 LINE",
"24 1380 LINE",
"120 1380 LINE",
"120 20 LINE",
"24 20 LINE",
"24 0 LINE"
);
}
);
width = 741;
},
{
anchors = (
{
name = bottom;
position = "{303, 0}";
},
{
name = ogonek;
position = "{540, 0}";
},
{
name = top;
position = "{318, 1400}";
},
{
name = topleft;
position = "{26, 1400}";
}
);
layerId = "2224527B-843E-45D0-ACBE-AC9678FC6685";
paths = (
{
closed = 1;
nodes = (
"540 0 LINE",
"540 247 LINE",
"480 247 LINE",
"480 84 OFFCURVE",
"474 60 OFFCURVE",
"407 60 CURVE SMOOTH",
"211 60 LINE",
"211 671 LINE",
"438 671 LINE",
"438 573 LINE",
"493 573 LINE",
"493 831 LINE",
"438 831 LINE",
"438 731 LINE",
"211 731 LINE",
"211 1340 LINE",
"407 1340 LINE SMOOTH",
"474 1340 OFFCURVE",
"480 1318 OFFCURVE",
"480 1156 CURVE",
"540 1156 LINE",
"540 1400 LINE",
"60 1400 LINE",
"60 1340 LINE",
"151 1340 LINE",
"151 60 LINE",
"60 60 LINE",
"60 0 LINE"
);
}
);
width = 618;
},
{
anchors = (
{
name = bottom;
position = "{377, 0}";
},
{
name = ogonek;
position = "{709, 0}";
},
{
name = top;
position = "{406, 1400}";
},
{
name = topleft;
position = "{33, 1400}";
}
);
layerId = "42FCB8D3-5141-4304-9365-2E27830BD286";
paths = (
{
closed = 1;
nodes = (
"709 0 LINE",
"709 367 LINE",
"629 367 LINE",
"629 204 OFFCURVE",
"575 80 OFFCURVE",
"458 80 CURVE SMOOTH",
"440 80 LINE",
"440 660 LINE",
"584 660 LINE",
"584 573 LINE",
"664 573 LINE",
"664 831 LINE",
"584 831 LINE",
"584 740 LINE",
"440 740 LINE",
"440 1320 LINE",
"458 1320 LINE SMOOTH",
"575 1320 OFFCURVE",
"629 1198 OFFCURVE",
"629 1036 CURVE",
"709 1036 LINE",
"709 1400 LINE",
"42 1400 LINE",
"42 1320 LINE",
"138 1320 LINE",
"138 80 LINE",
"42 80 LINE",
"42 0 LINE"
);
}
);
width = 787;
}
);
leftKerningGroup = H;
leftMetricsKey = H;
rightKerningGroup = E;
unicode = 0045;
},
{
color = 3;
glyphname = Eogonek;
lastChange = "2020-11-04 12:52:45 +0000";
layers = (
{
anchors = (
{
name = top;
position = "{299, 1400}";
}
);
components = (
{
name = ogonekcomb.case;
transform = "{1, 0, 0, 1, 202, 0}";
}
);
layerId = "798A1B98-D718-4469-8D5D-1F04921BF637";
paths = (
{
closed = 1;
nodes = (
"540 0 LINE",
"540 247 LINE",
"520 247 LINE",
"520 84 OFFCURVE",
"509 20 OFFCURVE",
"358 20 CURVE SMOOTH",
"209 20 LINE",
"209 691 LINE",
"453 691 LINE",
"453 573 LINE",
"473 573 LINE",
"473 831 LINE",
"453 831 LINE",
"453 711 LINE",
"209 711 LINE",
"209 1380 LINE",
"367 1380 LINE SMOOTH",
"518 1380 OFFCURVE",
"520 1318 OFFCURVE",
"520 1156 CURVE",
"540 1156 LINE",
"540 1400 LINE",
"60 1400 LINE",
"60 1380 LINE",
"149 1380 LINE",
"149 20 LINE",
"60 20 LINE",
"60 0 LINE"
);
}
);
width = 598;
},
{
anchors = (
{
name = top;
position = "{371, 1400}";
}
);
components = (
{
name = ogonekcomb.case;
transform = "{1, 0, 0, 1, 381, 0}";
}
);
layerId = "A4F0BE09-87B8-499B-8BA0-E8BD95093B86";
paths = (
{
closed = 1;
nodes = (
"691 0 LINE",
"691 367 LINE",
"671 367 LINE",
"671 204 OFFCURVE",
"557 20 OFFCURVE",
"440 20 CURVE SMOOTH",
"422 20 LINE",
"422 691 LINE",
"588 691 LINE",
"588 573 LINE",
"608 573 LINE",
"608 831 LINE",
"588 831 LINE",
"588 711 LINE",
"422 711 LINE",
"422 1380 LINE",
"440 1380 LINE SMOOTH",
"557 1380 OFFCURVE",
"671 1198 OFFCURVE",
"671 1036 CURVE",
"691 1036 LINE",
"691 1400 LINE",
"24 1400 LINE",
"24 1380 LINE",
"120 1380 LINE",
"120 20 LINE",
"24 20 LINE",
"24 0 LINE"
);
}
);
width = 741;
},
{
anchors = (
{
name = top;
position = "{309, 1400}";
}
);
components = (
{
name = ogonekcomb.case;
transform = "{1, 0, 0, 1, 204, 0}";
}
);
layerId = "2224527B-843E-45D0-ACBE-AC9678FC6685";
paths = (
{
closed = 1;
nodes = (
"540 0 LINE",
"540 247 LINE",
"480 247 LINE",
"480 84 OFFCURVE",
"474 60 OFFCURVE",
"407 60 CURVE SMOOTH",
"211 60 LINE",
"211 671 LINE",
"438 671 LINE",
"438 573 LINE",
"493 573 LINE",
"493 831 LINE",
"438 831 LINE",
"438 731 LINE",
"211 731 LINE",
"211 1340 LINE",
"407 1340 LINE SMOOTH",
"474 1340 OFFCURVE",
"480 1318 OFFCURVE",
"480 1156 CURVE",
"540 1156 LINE",
"540 1400 LINE",
"60 1400 LINE",
"60 1340 LINE",
"151 1340 LINE",
"151 60 LINE",
"60 60 LINE",
"60 0 LINE"
);
}
);
width = 618;
},
{
anchors = (
{
name = top;
position = "{394, 1400}";
}
);
components = (
{
name = ogonekcomb.case;
transform = "{1, 0, 0, 1, 353, 0}";
}
);
layerId = "42FCB8D3-5141-4304-9365-2E27830BD286";
paths = (
{
closed = 1;
nodes = (
"709 0 LINE",
"709 367 LINE",
"629 367 LINE",
"629 204 OFFCURVE",
"575 80 OFFCURVE",
"458 80 CURVE SMOOTH",
"440 80 LINE",
"440 660 LINE",
"584 660 LINE",
"584 573 LINE",
"664 573 LINE",
"664 831 LINE",
"584 831 LINE",
"584 740 LINE",
"440 740 LINE",
"440 1320 LINE",
"458 1320 LINE SMOOTH",
"575 1320 OFFCURVE",
"629 1198 OFFCURVE",
"629 1036 CURVE",
"709 1036 LINE",
"709 1400 LINE",
"42 1400 LINE",
"42 1320 LINE",
"138 1320 LINE",
"138 80 LINE",
"42 80 LINE",
"42 0 LINE"
);
}
);
width = 787;
}
);
unicode = 0118;
},
{
color = 6;
glyphname = F;
lastChange = "2020-11-04 12:52:33 +0000";
layers = (
{
anchors = (
{
name = bottom;
position = "{300, 0}";
},
{
name = top;
position = "{300, 1400}";
}
);
layerId = "798A1B98-D718-4469-8D5D-1F04921BF637";
paths = (
{
closed = 1;
nodes = (
"316 0 LINE",
"316 20 LINE",
"225 20 LINE",
"225 691 LINE",
"449 691 LINE",
"449 573 LINE",
"469 573 LINE",
"469 831 LINE",
"449 831 LINE",
"449 711 LINE",
"225 711 LINE",
"225 1380 LINE",
"351 1380 LINE SMOOTH",
"506 1380 OFFCURVE",
"507 1318 OFFCURVE",
"507 1156 CURVE",
"527 1156 LINE",
"527 1400 LINE",
"76 1400 LINE",
"76 1380 LINE",
"165 1380 LINE",
"165 20 LINE",
"76 20 LINE",
"76 0 LINE"
);
}
);
width = 596;
},
{
anchors = (
{
name = bottom;
position = "{370, 0}";
},
{
name = top;
position = "{370, 1400}";
}
);
layerId = "A4F0BE09-87B8-499B-8BA0-E8BD95093B86";
paths = (
{
closed = 1;
nodes = (
"535 0 LINE",
"535 20 LINE",
"438 20 LINE",
"438 691 LINE",
"582 691 LINE",
"582 573 LINE",
"602 573 LINE",
"602 831 LINE",
"582 831 LINE",
"582 711 LINE",
"438 711 LINE",
"438 1380 LINE",
"451 1380 LINE SMOOTH",
"575 1380 OFFCURVE",
"660 1198 OFFCURVE",
"660 1036 CURVE",
"680 1036 LINE",
"680 1400 LINE",
"40 1400 LINE",
"40 1380 LINE",
"136 1380 LINE",
"136 20 LINE",
"40 20 LINE",
"40 0 LINE"
);
}
);
width = 740;
},
{
anchors = (
{
name = bottom;
position = "{309, 0}";
},
{
name = top;
position = "{309, 1400}";
}
);
layerId = "2224527B-843E-45D0-ACBE-AC9678FC6685";
paths = (
{
closed = 1;
nodes = (
"325 0 LINE",
"325 60 LINE",
"235 60 LINE",
"235 671 LINE",
"442 671 LINE",
"442 573 LINE",
"502 573 LINE",
"502 831 LINE",
"442 831 LINE",
"442 731 LINE",
"235 731 LINE",
"235 1340 LINE",
"400 1340 LINE SMOOTH",
"475 1340 OFFCURVE",
"475 1318 OFFCURVE",
"475 1156 CURVE",
"536 1156 LINE",
"536 1400 LINE",
"85 1400 LINE",
"85 1340 LINE",
"175 1340 LINE",
"175 60 LINE",
"85 60 LINE",
"85 0 LINE"
);
}
);
width = 615;
},
{
anchors = (
{
name = bottom;
position = "{397, 0}";
},
{
name = top;
position = "{397, 1400}";
}
);
layerId = "42FCB8D3-5141-4304-9365-2E27830BD286";
paths = (
{
closed = 1;
nodes = (
"562 0 LINE",
"562 80 LINE",
"465 80 LINE",
"465 691 LINE",
"609 691 LINE",
"609 602 LINE",
"689 602 LINE",
"689 860 LINE",
"609 860 LINE",
"609 771 LINE",
"465 771 LINE",
"465 1320 LINE",
"478 1320 LINE SMOOTH",
"602 1320 OFFCURVE",
"627 1198 OFFCURVE",
"627 1036 CURVE",
"707 1036 LINE",
"707 1400 LINE",
"67 1400 LINE",
"67 1320 LINE",
"164 1320 LINE",
"164 80 LINE",
"67 80 LINE",
"67 0 LINE"
);
}
);
width = 795;
}
);
leftKerningGroup = H;
rightKerningGroup = F;
unicode = 0046;
},
{
color = 6;
glyphname = G;
lastChange = "2020-11-04 12:52:33 +0000";
layers = (
{
anchors = (
{
name = bottom;
position = "{349, 0}";
},
{
name = top;
position = "{349, 1400}";
}
);
layerId = "798A1B98-D718-4469-8D5D-1F04921BF637";
paths = (
{
closed = 1;
nodes = (
"407 -20 OFFCURVE",
"451 13 OFFCURVE",
"468 13 CURVE SMOOTH",
"482 13 OFFCURVE",
"489 2 OFFCURVE",
"489 0 CURVE",
"511 0 LINE",
"511 613 LINE",
"602 613 LINE",
"602 633 LINE",
"356 633 LINE",
"356 613 LINE",
"451 613 LINE",
"451 44 LINE",
"437 25 OFFCURVE",
"403 2 OFFCURVE",
"360 2 CURVE SMOOTH",
"196 2 OFFCURVE",
"133 404 OFFCURVE",
"133 698 CURVE SMOOTH",
"133 984 OFFCURVE",
"224 1393 OFFCURVE",
"371 1393 CURVE SMOOTH",
"427 1393 OFFCURVE",
"469 1340 OFFCURVE",
"469 1280 CURVE SMOOTH",
"469 1216 OFFCURVE",
"460 1198 OFFCURVE",
"460 1162 CURVE SMOOTH",
"460 1124 OFFCURVE",
"467 1104 OFFCURVE",
"487 1104 CURVE SMOOTH",
"507 1104 OFFCURVE",
"520 1118 OFFCURVE",
"520 1173 CURVE SMOOTH",
"520 1296 OFFCURVE",
"478 1420 OFFCURVE",
"364 1420 CURVE SMOOTH",
"222 1420 OFFCURVE",
"69 1175 OFFCURVE",
"69 698 CURVE SMOOTH",
"69 249 OFFCURVE",
"165 -20 OFFCURVE",
"356 -20 CURVE SMOOTH"
);
}
);
width = 631;
},
{
anchors = (
{
name = bottom;
position = "{442, 0}";
},
{
name = top;
position = "{442, 1400}";
}
);
layerId = "A4F0BE09-87B8-499B-8BA0-E8BD95093B86";
paths = (
{
closed = 1;
nodes = (
"509 -20 OFFCURVE",
"558 13 OFFCURVE",
"631 13 CURVE SMOOTH",
"689 13 OFFCURVE",
"711 5 OFFCURVE",
"715 0 CURVE",
"742 0 LINE",
"742 613 LINE",
"816 613 LINE",
"816 633 LINE",
"420 633 LINE",
"420 613 LINE",
"471 613 LINE",
"471 22 LINE",
"467 14 OFFCURVE",
"462 4 OFFCURVE",
"447 4 CURVE SMOOTH",
"384 4 OFFCURVE",
"378 271 OFFCURVE",
"378 698 CURVE SMOOTH",
"378 1002 OFFCURVE",
"382 1396 OFFCURVE",
"496 1396 CURVE SMOOTH",
"542 1396 OFFCURVE",
"589 1362 OFFCURVE",
"589 1333 CURVE SMOOTH",
"589 1273 OFFCURVE",
"496 1231 OFFCURVE",
"496 1138 CURVE SMOOTH",
"496 1047 OFFCURVE",
"529 984 OFFCURVE",
"615 984 CURVE SMOOTH",
"695 984 OFFCURVE",
"729 1047 OFFCURVE",
"729 1138 CURVE SMOOTH",
"729 1289 OFFCURVE",
"611 1420 OFFCURVE",
"469 1420 CURVE SMOOTH",
"256 1420 OFFCURVE",
"51 1156 OFFCURVE",
"51 698 CURVE SMOOTH",
"51 189 OFFCURVE",
"216 -20 OFFCURVE",
"447 -20 CURVE SMOOTH"
);
}
);
width = 836;
},
{
anchors = (
{
name = bottom;
position = "{358, 0}";
},
{
name = top;
position = "{358, 1400}";
}
);
layerId = "2224527B-843E-45D0-ACBE-AC9678FC6685";
paths = (
{
closed = 1;
nodes = (
"411 -20 OFFCURVE",
"441 5 OFFCURVE",
"461 5 CURVE SMOOTH",
"466 5 OFFCURVE",
"471 3 OFFCURVE",
"473 0 CURVE",
"520 0 LINE",
"520 573 LINE",
"611 573 LINE",
"611 633 LINE",
"365 633 LINE",
"365 573 LINE",
"460 573 LINE",
"460 76 LINE",
"443 60 OFFCURVE",
"402 38 OFFCURVE",
"353 38 CURVE SMOOTH",
"240 38 OFFCURVE",
"142 291 OFFCURVE",
"142 698 CURVE SMOOTH",
"142 987 OFFCURVE",
"215 1360 OFFCURVE",
"369 1360 CURVE SMOOTH",
"431 1360 OFFCURVE",
"469 1318 OFFCURVE",
"469 1276 CURVE SMOOTH",
"469 1218 OFFCURVE",
"455 1198 OFFCURVE",
"455 1162 CURVE SMOOTH",
"455 1124 OFFCURVE",
"473 1104 OFFCURVE",
"496 1104 CURVE SMOOTH",
"520 1104 OFFCURVE",
"536 1118 OFFCURVE",
"536 1173 CURVE SMOOTH",
"536 1296 OFFCURVE",
"491 1420 OFFCURVE",
"367 1420 CURVE SMOOTH",
"216 1420 OFFCURVE",
"78 1175 OFFCURVE",
"78 698 CURVE SMOOTH",
"78 249 OFFCURVE",
"195 -20 OFFCURVE",
"345 -20 CURVE SMOOTH"
);
}
);
width = 649;
},
{
anchors = (
{
name = bottom;
position = "{471, 0}";
},
{
name = top;
position = "{471, 1400}";
}
);
layerId = "42FCB8D3-5141-4304-9365-2E27830BD286";
paths = (
{
closed = 1;
nodes = (
"567 -20 OFFCURVE",
"593 24 OFFCURVE",
"635 24 CURVE SMOOTH",
"665 24 OFFCURVE",
"685 4 OFFCURVE",
"687 0 CURVE",
"771 0 LINE",
"771 553 LINE",
"855 553 LINE",
"855 633 LINE",
"427 633 LINE",
"427 553 LINE",
"500 553 LINE",
"500 78 LINE",
"495 70 OFFCURVE",
"490 64 OFFCURVE",
"476 64 CURVE SMOOTH",
"415 64 OFFCURVE",
"360 267 OFFCURVE",
"360 698 CURVE SMOOTH",
"360 975 OFFCURVE",
"396 1347 OFFCURVE",
"522 1347 CURVE SMOOTH",
"562 1347 OFFCURVE",
"596 1313 OFFCURVE",
"596 1282 CURVE SMOOTH",
"596 1222 OFFCURVE",
"525 1200 OFFCURVE",
"525 1124 CURVE SMOOTH",
"525 1049 OFFCURVE",
"558 984 OFFCURVE",
"644 984 CURVE SMOOTH",
"722 984 OFFCURVE",
"764 1047 OFFCURVE",
"764 1138 CURVE SMOOTH",
"764 1295 OFFCURVE",
"649 1420 OFFCURVE",
"489 1420 CURVE SMOOTH",
"282 1420 OFFCURVE",
"58 1153 OFFCURVE",
"58 698 CURVE SMOOTH",
"58 189 OFFCURVE",
"245 -20 OFFCURVE",
"476 -20 CURVE SMOOTH"
);
}
);
width = 891;
}
);
leftKerningGroup = O;
rightKerningGroup = G;
unicode = 0047;
},
{
color = 6;
glyphname = H;
lastChange = "2020-11-04 12:52:33 +0000";
layers = (
{
anchors = (
{
name = bottom;
position = "{385, 0}";
},
{
name = center;
position = "{385, 700}";
},
{
name = top;
position = "{385, 1400}";
},
{
name = topleft;
position = "{40, 1400}";
}
);
layerId = "798A1B98-D718-4469-8D5D-1F04921BF637";
paths = (
{
closed = 1;
nodes = (
"298 0 LINE",
"298 20 LINE",
"209 20 LINE",
"209 711 LINE",
"545 711 LINE",
"545 20 LINE",
"456 20 LINE",
"456 0 LINE",
"698 0 LINE",
"698 20 LINE",
"605 20 LINE",
"605 1380 LINE",
"698 1380 LINE",
"698 1400 LINE",
"456 1400 LINE",
"456 1380 LINE",
"545 1380 LINE",
"545 731 LINE",
"209 731 LINE",
"209 1380 LINE",
"298 1380 LINE",
"298 1400 LINE",
"60 1400 LINE",
"60 1380 LINE",
"149 1380 LINE",
"149 20 LINE",
"60 20 LINE",
"60 0 LINE"
);
}
);
width = 756;
},
{
anchors = (
{
name = bottom;
position = "{495, 0}";
},
{
name = center;
position = "{476, 700}";
},
{
name = top;
position = "{476, 1400}";
},
{
name = topleft;
position = "{30, 1400}";
}
);
layerId = "A4F0BE09-87B8-499B-8BA0-E8BD95093B86";
paths = (
{
closed = 1;
nodes = (
"475 0 LINE",
"475 20 LINE",
"418 20 LINE",
"418 711 LINE",
"556 711 LINE",
"556 20 LINE",
"502 20 LINE",
"502 0 LINE",
"944 0 LINE",
"944 20 LINE",
"847 20 LINE",
"847 1380 LINE",
"944 1380 LINE",
"944 1400 LINE",
"502 1400 LINE",
"502 1380 LINE",
"556 1380 LINE",
"556 731 LINE",
"418 731 LINE",
"418 1380 LINE",
"475 1380 LINE",
"475 1400 LINE",
"24 1400 LINE",
"24 1380 LINE",
"120 1380 LINE",
"120 20 LINE",
"24 20 LINE",
"24 0 LINE"
);
}
);
width = 968;
},
{
anchors = (
{
name = bottom;
position = "{389, 0}";
},
{
name = center;
position = "{385, 700}";
},
{
name = top;
position = "{385, 1400}";
},
{
name = topleft;
position = "{40, 1400}";
}
);
layerId = "2224527B-843E-45D0-ACBE-AC9678FC6685";
paths = (
{
closed = 1;
nodes = (
"298 0 LINE",
"298 60 LINE",
"209 60 LINE",
"209 691 LINE",
"545 691 LINE",
"545 60 LINE",
"456 60 LINE",
"456 0 LINE",
"698 0 LINE",
"698 60 LINE",
"605 60 LINE",
"605 1340 LINE",
"698 1340 LINE",
"698 1400 LINE",
"456 1400 LINE",
"456 1340 LINE",
"545 1340 LINE",
"545 751 LINE",
"209 751 LINE",
"209 1340 LINE",
"298 1340 LINE",
"298 1400 LINE",
"60 1400 LINE",
"60 1340 LINE",
"149 1340 LINE",
"149 60 LINE",
"60 60 LINE",
"60 0 LINE"
);
}
);
width = 756;
},
{
anchors = (
{
name = bottom;
position = "{515, 0}";
},
{
name = center;
position = "{495, 700}";
},
{
name = top;
position = "{495, 1400}";
},
{
name = topleft;
position = "{48, 1400}";
}
);
layerId = "42FCB8D3-5141-4304-9365-2E27830BD286";
paths = (
{
closed = 1;
nodes = (
"493 0 LINE",
"493 80 LINE",
"436 80 LINE",
"436 680 LINE",
"575 680 LINE",
"575 80 LINE",
"520 80 LINE",
"520 0 LINE",
"962 0 LINE",
"962 80 LINE",
"865 80 LINE",
"865 1320 LINE",
"962 1320 LINE",
"962 1400 LINE",
"520 1400 LINE",
"520 1320 LINE",
"575 1320 LINE",
"575 760 LINE",
"436 760 LINE",
"436 1320 LINE",
"493 1320 LINE",
"493 1400 LINE",
"42 1400 LINE",
"42 1320 LINE",
"138 1320 LINE",
"138 80 LINE",
"42 80 LINE",
"42 0 LINE"
);
}
);
width = 1005;
}
);
leftKerningGroup = H;
rightKerningGroup = H;
unicode = 0048;
},
{
color = 3;
glyphname = Hbar;
lastChange = "2020-11-04 12:52:45 +0000";
layers = (
{
components = (
{
name = H;
transform = "{1, 0, 0, 1, 18, 0}";
}
);
layerId = "798A1B98-D718-4469-8D5D-1F04921BF637";
paths = (
{
closed = 1;
nodes = (
"735 1038 LINE",
"735 1058 LINE",
"60 1058 LINE",
"60 1038 LINE"
);
}
);
width = 793;
},
{
components = (
{
name = H;
}
);
layerId = "A4F0BE09-87B8-499B-8BA0-E8BD95093B86";
paths = (
{
closed = 1;
nodes = (
"900 1038 LINE",
"900 1058 LINE",
"65 1058 LINE",
"65 1038 LINE"
);
}
);
width = 968;
},
{
components = (
{
name = H;
}
);
layerId = "2224527B-843E-45D0-ACBE-AC9678FC6685";
paths = (
{
closed = 1;
nodes = (
"707 1018 LINE",
"707 1078 LINE",
"69 1078 LINE",
"69 1018 LINE"
);
}
);
width = 765;
},
{
components = (
{
name = H;
}
);
layerId = "42FCB8D3-5141-4304-9365-2E27830BD286";
paths = (
{
closed = 1;
nodes = (
"936 1009 LINE",
"936 1089 LINE",
"93 1089 LINE",
"93 1009 LINE"
);
}
);
width = 1005;
}
);
leftKerningGroup = H;
leftMetricsKey = H;
rightKerningGroup = H;
rightMetricsKey = H;
unicode = 0126;
},
{
color = 6;
glyphname = I;
lastChange = "2020-11-04 12:52:33 +0000";
layers = (
{
anchors = (
{
name = bottom;
position = "{196, 0}";
},
{
name = ogonek;
position = "{316, 0}";
},
{
name = top;
position = "{193, 1400}";
},
{
name = topleft;
position = "{38, 1400}";
}
);
layerId = "798A1B98-D718-4469-8D5D-1F04921BF637";
paths = (
{
closed = 1;
nodes = (
"316 0 LINE",
"316 20 LINE",
"222 20 LINE",
"222 1380 LINE",
"316 1380 LINE",
"316 1400 LINE",
"69 1400 LINE",
"69 1380 LINE",
"162 1380 LINE",
"162 20 LINE",
"69 20 LINE",
"69 0 LINE"
);
}
);
width = 385;
},
{
anchors = (
{
name = bottom;
position = "{283, 0}";
},
{
name = ogonek;
position = "{531, 0}";
},
{
name = top;
position = "{284, 1400}";
},
{
name = topleft;
position = "{40, 1400}";
}
);
layerId = "A4F0BE09-87B8-499B-8BA0-E8BD95093B86";
paths = (
{
closed = 1;
nodes = (
"531 0 LINE",
"531 20 LINE",
"431 20 LINE",
"431 1380 LINE",
"531 1380 LINE",
"531 1400 LINE",
"35 1400 LINE",
"35 1380 LINE",
"133 1380 LINE",
"133 20 LINE",
"35 20 LINE",
"35 0 LINE"
);
}
);
width = 564;
},
{
anchors = (
{
name = bottom;
position = "{193, 0}";
},
{
name = ogonek;
position = "{316, 0}";
},
{
name = top;
position = "{193, 1400}";
},
{
name = topleft;
position = "{38, 1400}";
}
);
layerId = "2224527B-843E-45D0-ACBE-AC9678FC6685";
paths = (
{
closed = 1;
nodes = (
"316 0 LINE",
"316 60 LINE",
"222 60 LINE",
"222 1340 LINE",
"316 1340 LINE",
"316 1400 LINE",
"69 1400 LINE",
"69 1340 LINE",
"162 1340 LINE",
"162 60 LINE",
"69 60 LINE",
"69 0 LINE"
);
}
);
width = 385;
},
{
anchors = (
{
name = bottom;
position = "{310, 0}";
},
{
name = ogonek;
position = "{558, 0}";
},
{
name = top;
position = "{311, 1400}";
},
{
name = topleft;
position = "{67, 1400}";
}
);
layerId = "42FCB8D3-5141-4304-9365-2E27830BD286";
paths = (
{
closed = 1;
nodes = (
"558 0 LINE",
"558 80 LINE",
"458 80 LINE",
"458 1320 LINE",
"558 1320 LINE",
"558 1400 LINE",
"62 1400 LINE",
"62 1320 LINE",
"160 1320 LINE",
"160 80 LINE",
"62 80 LINE",
"62 0 LINE"
);
}
);
width = 618;
}
);
leftKerningGroup = H;
rightKerningGroup = H;
unicode = 0049;
},
{
color = 3;
glyphname = Iogonek;
lastChange = "2020-11-04 12:52:45 +0000";
layers = (
{
components = (
{
name = ogonekcomb.case;
transform = "{1, 0, 0, 1, -22, 0}";
}
);
layerId = "798A1B98-D718-4469-8D5D-1F04921BF637";
paths = (
{
closed = 1;
nodes = (
"316 0 LINE",
"316 20 LINE",
"222 20 LINE",
"222 1380 LINE",
"316 1380 LINE",
"316 1400 LINE",
"69 1400 LINE",
"69 1380 LINE",
"162 1380 LINE",
"162 20 LINE",
"69 20 LINE",
"69 0 LINE"
);
}
);
width = 385;
},
{
components = (
{
name = ogonekcomb.case;
transform = "{1, 0, 0, 1, 221, 0}";
}
);
layerId = "A4F0BE09-87B8-499B-8BA0-E8BD95093B86";
paths = (
{
closed = 1;
nodes = (
"531 0 LINE",
"531 20 LINE",
"431 20 LINE",
"431 1380 LINE",
"531 1380 LINE",
"531 1400 LINE",
"35 1400 LINE",
"35 1380 LINE",
"133 1380 LINE",
"133 20 LINE",
"35 20 LINE",
"35 0 LINE"
);
}
);
width = 564;
},
{
components = (
{
name = ogonekcomb.case;
transform = "{1, 0, 0, 1, -20, 0}";
}
);
layerId = "2224527B-843E-45D0-ACBE-AC9678FC6685";
paths = (
{
closed = 1;
nodes = (
"316 0 LINE",
"316 60 LINE",
"222 60 LINE",
"222 1340 LINE",
"316 1340 LINE",
"316 1400 LINE",
"69 1400 LINE",
"69 1340 LINE",
"162 1340 LINE",
"162 60 LINE",
"69 60 LINE",
"69 0 LINE"
);
}
);
width = 385;
},
{
components = (
{
name = ogonekcomb.case;
transform = "{1, 0, 0, 1, 202, 0}";
}
);
layerId = "42FCB8D3-5141-4304-9365-2E27830BD286";
paths = (
{
closed = 1;
nodes = (
"558 0 LINE",
"558 80 LINE",
"458 80 LINE",
"458 1320 LINE",
"558 1320 LINE",
"558 1400 LINE",
"62 1400 LINE",
"62 1320 LINE",
"160 1320 LINE",
"160 80 LINE",
"62 80 LINE",
"62 0 LINE"
);
}
);
width = 618;
}
);
unicode = 012E;
},
{
color = 6;
glyphname = J;
lastChange = "2020-11-04 12:52:33 +0000";
layers = (
{
anchors = (
{
name = bottom;
position = "{254, 0}";
},
{
name = top;
position = "{335, 1400}";
}
);
layerId = "798A1B98-D718-4469-8D5D-1F04921BF637";
paths = (
{
closed = 1;
nodes = (
"284 -27 OFFCURVE",
"373 76 OFFCURVE",
"373 367 CURVE SMOOTH",
"373 1380 LINE",
"465 1380 LINE",
"465 1400 LINE",
"216 1400 LINE",
"216 1380 LINE",
"313 1380 LINE",
"313 284 LINE SMOOTH",
"313 91 OFFCURVE",
"251 0 OFFCURVE",
"184 0 CURVE SMOOTH",
"131 0 OFFCURVE",
"91 49 OFFCURVE",
"91 116 CURVE SMOOTH",
"91 180 OFFCURVE",
"102 198 OFFCURVE",
"102 235 CURVE SMOOTH",
"102 278 OFFCURVE",
"93 293 OFFCURVE",
"73 293 CURVE SMOOTH",
"53 293 OFFCURVE",
"42 278 OFFCURVE",
"42 224 CURVE SMOOTH",
"42 96 OFFCURVE",
"85 -27 OFFCURVE",
"191 -27 CURVE SMOOTH"
);
}
);
width = 507;
},
{
anchors = (
{
name = bottom;
position = "{376, 0}";
},
{
name = top;
position = "{482, 1400}";
}
);
layerId = "A4F0BE09-87B8-499B-8BA0-E8BD95093B86";
paths = (
{
closed = 1;
nodes = (
"373 -22 OFFCURVE",
"620 35 OFFCURVE",
"620 447 CURVE SMOOTH",
"620 1380 LINE",
"722 1380 LINE",
"722 1400 LINE",
"213 1400 LINE",
"213 1380 LINE",
"320 1380 LINE",
"320 191 LINE SMOOTH",
"320 53 OFFCURVE",
"304 7 OFFCURVE",
"253 7 CURVE SMOOTH",
"218 7 OFFCURVE",
"171 16 OFFCURVE",
"171 53 CURVE SMOOTH",
"171 91 OFFCURVE",
"269 167 OFFCURVE",
"269 269 CURVE SMOOTH",
"269 371 OFFCURVE",
"220 415 OFFCURVE",
"153 415 CURVE SMOOTH",
"84 415 OFFCURVE",
"33 371 OFFCURVE",
"33 269 CURVE SMOOTH",
"33 113 OFFCURVE",
"122 -22 OFFCURVE",
"291 -22 CURVE SMOOTH"
);
}
);
width = 752;
},
{
anchors = (
{
name = bottom;
position = "{257, 0}";
},
{
name = top;
position = "{351, 1400}";
}
);
layerId = "2224527B-843E-45D0-ACBE-AC9678FC6685";
paths = (
{
closed = 1;
nodes = (
"305 -27 OFFCURVE",
"382 56 OFFCURVE",
"382 347 CURVE SMOOTH",
"382 1340 LINE",
"475 1340 LINE",
"475 1400 LINE",
"225 1400 LINE",
"225 1340 LINE",
"322 1340 LINE",
"322 284 LINE SMOOTH",
"322 91 OFFCURVE",
"267 35 OFFCURVE",
"195 35 CURVE SMOOTH",
"145 35 OFFCURVE",
"107 71 OFFCURVE",
"107 118 CURVE SMOOTH",
"107 182 OFFCURVE",
"122 198 OFFCURVE",
"122 235 CURVE SMOOTH",
"122 275 OFFCURVE",
"107 293 OFFCURVE",
"82 293 CURVE SMOOTH",
"56 293 OFFCURVE",
"38 274 OFFCURVE",
"38 214 CURVE SMOOTH",
"38 52 OFFCURVE",
"87 -27 OFFCURVE",
"196 -27 CURVE SMOOTH"
);
}
);
width = 515;
},
{
anchors = (
{
name = bottom;
position = "{404, 0}";
},
{
name = top;
position = "{495, 1400}";
}
);
layerId = "42FCB8D3-5141-4304-9365-2E27830BD286";
paths = (
{
closed = 1;
nodes = (
"531 -22 OFFCURVE",
"647 111 OFFCURVE",
"647 447 CURVE SMOOTH",
"647 1320 LINE",
"749 1320 LINE",
"749 1400 LINE",
"240 1400 LINE",
"240 1320 LINE",
"347 1320 LINE",
"347 160 LINE SMOOTH",
"347 89 OFFCURVE",
"320 64 OFFCURVE",
"267 64 CURVE SMOOTH",
"244 64 OFFCURVE",
"225 78 OFFCURVE",
"225 116 CURVE SMOOTH",
"225 164 OFFCURVE",
"296 173 OFFCURVE",
"296 275 CURVE SMOOTH",
"296 376 OFFCURVE",
"247 415 OFFCURVE",
"180 415 CURVE SMOOTH",
"111 415 OFFCURVE",
"60 371 OFFCURVE",
"60 269 CURVE SMOOTH",
"60 113 OFFCURVE",
"122 -22 OFFCURVE",
"308 -22 CURVE SMOOTH"
);
}
);
width = 806;
}
);
leftKerningGroup = J;
rightKerningGroup = J;
unicode = 004A;
},
{
color = 6;
glyphname = K;
lastChange = "2020-11-04 12:52:33 +0000";
layers = (
{
anchors = (
{
name = bottom;
position = "{311, 0}";
},
{
name = top;
position = "{311, 1400}";
}
);
layerId = "798A1B98-D718-4469-8D5D-1F04921BF637";
paths = (
{
closed = 1;
nodes = (
"280 0 LINE",
"280 20 LINE",
"185 20 LINE",
"185 687 LINE",
"180 684 LINE",
"440 20 LINE",
"351 20 LINE",
"351 0 LINE",
"582 0 LINE",
"582 20 LINE",
"505 20 LINE",
"215 749 LINE",
"215 700 LINE",
"493 1380 LINE",
"582 1380 LINE",
"582 1400 LINE",
"365 1400 LINE",
"365 1380 LINE",
"467 1380 LINE",
"185 696 LINE",
"185 1380 LINE",
"280 1380 LINE",
"280 1400 LINE",
"33 1400 LINE",
"33 1380 LINE",
"125 1380 LINE",
"125 20 LINE",
"33 20 LINE",
"33 0 LINE"
);
}
);
width = 620;
},
{
anchors = (
{
name = bottom;
position = "{462, 0}";
},
{
name = top;
position = "{455, 1400}";
}
);
layerId = "A4F0BE09-87B8-499B-8BA0-E8BD95093B86";
paths = (
{
closed = 1;
nodes = (
"455 0 LINE",
"455 20 LINE",
"393 20 LINE",
"393 696 LINE",
"384 696 LINE",
"522 20 LINE",
"462 20 LINE",
"462 0 LINE",
"898 0 LINE",
"898 20 LINE",
"822 20 LINE",
"582 1058 LINE",
"573 1011 LINE",
"760 1380 LINE",
"849 1380 LINE",
"849 1400 LINE",
"653 1400 LINE",
"653 1380 LINE",
"736 1380 LINE",
"393 707 LINE",
"393 1380 LINE",
"467 1380 LINE",
"467 1400 LINE",
"4 1400 LINE",
"4 1380 LINE",
"96 1380 LINE",
"96 20 LINE",
"4 20 LINE",
"4 0 LINE"
);
}
);
width = 908;
},
{
anchors = (
{
name = bottom;
position = "{320, 0}";
},
{
name = top;
position = "{320, 1400}";
}
);
layerId = "2224527B-843E-45D0-ACBE-AC9678FC6685";
paths = (
{
closed = 1;
nodes = (
"289 0 LINE",
"289 60 LINE",
"195 60 LINE",
"195 687 LINE",
"185 684 LINE",
"433 60 LINE",
"360 60 LINE",
"360 0 LINE",
"591 0 LINE",
"591 60 LINE",
"502 60 LINE",
"225 749 LINE",
"233 691 LINE",
"527 1340 LINE",
"591 1340 LINE",
"591 1400 LINE",
"375 1400 LINE",
"375 1340 LINE",
"458 1340 LINE",
"195 749 LINE",
"195 1340 LINE",
"289 1340 LINE",
"289 1400 LINE",
"42 1400 LINE",
"42 1340 LINE",
"135 1340 LINE",
"135 60 LINE",
"42 60 LINE",
"42 0 LINE"
);
}
);
width = 638;
},
{
anchors = (
{
name = bottom;
position = "{477, 0}";
},
{
name = top;
position = "{482, 1400}";
}
);
layerId = "42FCB8D3-5141-4304-9365-2E27830BD286";
paths = (
{
closed = 1;
nodes = (
"480 0 LINE",
"480 80 LINE",
"420 80 LINE",
"420 742 LINE",
"380 764 LINE",
"549 80 LINE",
"487 80 LINE",
"487 0 LINE",
"936 0 LINE",
"936 80 LINE",
"869 80 LINE",
"631 1015 LINE",
"600 938 LINE",
"815 1320 LINE",
"900 1320 LINE",
"900 1400 LINE",
"631 1400 LINE",
"631 1320 LINE",
"722 1320 LINE",
"420 780 LINE",
"420 1320 LINE",
"524 1320 LINE",
"524 1400 LINE",
"31 1400 LINE",
"31 1320 LINE",
"124 1320 LINE",
"124 80 LINE",
"31 80 LINE",
"31 0 LINE"
);
}
);
width = 963;
}
);
leftKerningGroup = H;
rightKerningGroup = K;
unicode = 004B;
},
{
color = 6;
glyphname = L;
lastChange = "2020-11-04 12:52:33 +0000";
layers = (
{
anchors = (
{
name = bottom;
position = "{289, 0}";
},
{
name = center;
position = "{289, 700}";
},
{
name = top;
position = "{190, 1400}";
},
{
name = topright;
position = "{527, 1400}";
}
);
layerId = "798A1B98-D718-4469-8D5D-1F04921BF637";
paths = (
{
closed = 1;
nodes = (
"498 0 LINE",
"498 247 LINE",
"478 247 LINE",
"478 84 OFFCURVE",
"460 20 OFFCURVE",
"302 20 CURVE SMOOTH",
"220 20 LINE",
"220 1380 LINE",
"311 1380 LINE",
"311 1400 LINE",
"69 1400 LINE",
"69 1380 LINE",
"160 1380 LINE",
"160 20 LINE",
"69 20 LINE",
"69 0 LINE"
);
}
);
width = 547;
},
{
anchors = (
{
name = bottom;
position = "{360, 0}";
},
{
name = center;
position = "{360, 700}";
},
{
name = top;
position = "{274, 1400}";
},
{
name = topright;
position = "{689, 1400}";
}
);
layerId = "A4F0BE09-87B8-499B-8BA0-E8BD95093B86";
paths = (
{
closed = 1;
nodes = (
"658 0 LINE",
"658 367 LINE",
"638 367 LINE",
"638 204 OFFCURVE",
"571 20 OFFCURVE",
"453 20 CURVE SMOOTH",
"418 20 LINE",
"418 1380 LINE",
"511 1380 LINE",
"511 1400 LINE",
"31 1400 LINE",
"31 1380 LINE",
"120 1380 LINE",
"120 20 LINE",
"31 20 LINE",
"31 0 LINE"
);
}
);
width = 698;
},
{
anchors = (
{
name = bottom;
position = "{289, 0}";
},
{
name = center;
position = "{289, 700}";
},
{
name = top;
position = "{191, 1400}";
},
{
name = topright;
position = "{527, 1400}";
}
);
layerId = "2224527B-843E-45D0-ACBE-AC9678FC6685";
paths = (
{
closed = 1;
nodes = (
"498 0 LINE",
"498 247 LINE",
"438 247 LINE",
"438 84 OFFCURVE",
"418 60 OFFCURVE",
"373 60 CURVE SMOOTH",
"220 60 LINE",
"220 1340 LINE",
"311 1340 LINE",
"311 1400 LINE",
"69 1400 LINE",
"69 1340 LINE",
"160 1340 LINE",
"160 60 LINE",
"69 60 LINE",
"69 0 LINE"
);
}
);
width = 556;
},
{
anchors = (
{
name = bottom;
position = "{378, 0}";
},
{
name = center;
position = "{378, 700}";
},
{
name = top;
position = "{284, 1400}";
},
{
name = topright;
position = "{707, 1400}";
}
);
layerId = "42FCB8D3-5141-4304-9365-2E27830BD286";
paths = (
{
closed = 1;
nodes = (
"676 0 LINE",
"676 367 LINE",
"596 367 LINE",
"596 209 OFFCURVE",
"545 80 OFFCURVE",
"456 80 CURVE SMOOTH",
"436 80 LINE",
"436 1320 LINE",
"529 1320 LINE",
"529 1400 LINE",
"49 1400 LINE",
"49 1320 LINE",
"138 1320 LINE",
"138 80 LINE",
"49 80 LINE",
"49 0 LINE"
);
}
);
width = 744;
}
);
leftKerningGroup = H;
rightKerningGroup = L;
unicode = 004C;
},
{
color = 3;
glyphname = Lcaron;
lastChange = "2020-11-04 12:52:45 +0000";
layers = (
{
components = (
{
name = L;
}
);
layerId = "798A1B98-D718-4469-8D5D-1F04921BF637";
paths = (
{
closed = 1;
nodes = (
"451 1185 LINE",
"481 1266 OFFCURVE",
"512 1355 OFFCURVE",
"512 1410 CURVE SMOOTH",
"512 1448 OFFCURVE",
"507 1473 OFFCURVE",
"481 1473 CURVE SMOOTH",
"455 1473 OFFCURVE",
"447 1447 OFFCURVE",
"447 1400 CURVE SMOOTH",
"447 1345 OFFCURVE",
"447 1249 OFFCURVE",
"432 1191 CURVE"
);
}
);
width = 547;
},
{
components = (
{
name = L;
}
);
layerId = "A4F0BE09-87B8-499B-8BA0-E8BD95093B86";
paths = (
{
closed = 1;
nodes = (
"608 1133 LINE",
"666 1206 OFFCURVE",
"730 1301 OFFCURVE",
"730 1401 CURVE SMOOTH",
"730 1476 OFFCURVE",
"692 1493 OFFCURVE",
"652 1493 CURVE SMOOTH",
"612 1493 OFFCURVE",
"570 1475 OFFCURVE",
"570 1390 CURVE SMOOTH",
"570 1318 OFFCURVE",
"570 1227 OFFCURVE",
"554 1163 CURVE"
);
}
);
width = 730;
},
{
components = (
{
name = L;
}
);
layerId = "2224527B-843E-45D0-ACBE-AC9678FC6685";
paths = (
{
closed = 1;
nodes = (
"470 1185 LINE",
"500 1266 OFFCURVE",
"513 1355 OFFCURVE",
"513 1410 CURVE SMOOTH",
"513 1448 OFFCURVE",
"508 1473 OFFCURVE",
"482 1473 CURVE SMOOTH",
"456 1473 OFFCURVE",
"448 1447 OFFCURVE",
"448 1400 CURVE SMOOTH",
"448 1335 OFFCURVE",
"438 1263 OFFCURVE",
"423 1205 CURVE"
);
}
);
width = 556;
},
{
components = (
{
name = L;
}
);
layerId = "42FCB8D3-5141-4304-9365-2E27830BD286";
paths = (
{
closed = 1;
nodes = (
"655 1133 LINE",
"713 1186 OFFCURVE",
"777 1291 OFFCURVE",
"777 1401 CURVE SMOOTH",
"777 1476 OFFCURVE",
"729 1493 OFFCURVE",
"689 1493 CURVE SMOOTH",
"649 1493 OFFCURVE",
"597 1475 OFFCURVE",
"597 1390 CURVE SMOOTH",
"597 1318 OFFCURVE",
"597 1227 OFFCURVE",
"581 1163 CURVE"
);
}
);
width = 777;
}
);
leftKerningGroup = H;
leftMetricsKey = L;
unicode = 013D;
},
{
color = 3;
glyphname = Lslash;
lastChange = "2020-11-04 12:52:45 +0000";
layers = (
{
components = (
{
name = L;
}
);
layerId = "798A1B98-D718-4469-8D5D-1F04921BF637";
paths = (
{
closed = 1;
nodes = (
"445 838 LINE",
"445 871 LINE",
"31 513 LINE",
"31 480 LINE"
);
}
);
width = 576;
},
{
components = (
{
name = L;
}
);
layerId = "A4F0BE09-87B8-499B-8BA0-E8BD95093B86";
paths = (
{
closed = 1;
nodes = (
"536 842 LINE",
"536 871 LINE",
"22 509 LINE",
"22 480 LINE"
);
}
);
width = 738;
},
{
components = (
{
name = L;
}
);
layerId = "2224527B-843E-45D0-ACBE-AC9678FC6685";
paths = (
{
closed = 1;
nodes = (
"455 798 LINE",
"455 871 LINE",
"40 513 LINE",
"40 440 LINE"
);
}
);
width = 595;
},
{
components = (
{
name = L;
}
);
layerId = "42FCB8D3-5141-4304-9365-2E27830BD286";
paths = (
{
closed = 1;
nodes = (
"564 782 LINE",
"564 871 LINE",
"49 509 LINE",
"49 420 LINE"
);
}
);
width = 793;
}
);
leftKerningGroup = H;
rightKerningGroup = L;
unicode = 0141;
},
{
color = 6;
glyphname = M;
lastChange = "2020-11-04 12:52:33 +0000";
layers = (
{
anchors = (
{
name = bottom;
position = "{469, 0}";
},
{
name = top;
position = "{469, 1400}";
}
);
layerId = "798A1B98-D718-4469-8D5D-1F04921BF637";
paths = (
{
closed = 1;
nodes = (
"280 0 LINE",
"280 20 LINE",
"171 20 LINE",
"171 1393 LINE",
"167 1393 LINE",
"402 0 LINE",
"416 0 LINE",
"676 1376 LINE",
"669 1376 LINE",
"669 20 LINE",
"580 20 LINE",
"580 0 LINE",
"824 0 LINE",
"824 20 LINE",
"729 20 LINE",
"729 1380 LINE",
"824 1380 LINE",
"824 1400 LINE",
"662 1400 LINE",
"424 151 LINE",
"433 151 LINE",
"233 1400 LINE",
"60 1400 LINE",
"60 1380 LINE",
"151 1380 LINE",
"151 20 LINE",
"60 20 LINE",
"60 0 LINE"
);
}
);
width = 882;
},
{
anchors = (
{
name = bottom;
position = "{560, 0}";
},
{
name = top;
position = "{560, 1400}";
}
);
layerId = "A4F0BE09-87B8-499B-8BA0-E8BD95093B86";
paths = (
{
closed = 1;
nodes = (
"240 0 LINE",
"240 20 LINE",
"153 20 LINE",
"153 1367 LINE",
"140 1369 LINE",
"362 0 LINE",
"416 0 LINE",
"647 1349 LINE",
"633 1349 LINE",
"633 20 LINE",
"562 20 LINE",
"562 0 LINE",
"1027 0 LINE",
"1027 20 LINE",
"933 20 LINE",
"933 1380 LINE",
"1027 1380 LINE",
"1027 1400 LINE",
"633 1400 LINE",
"531 796 LINE",
"544 796 LINE",
"453 1400 LINE",
"40 1400 LINE",
"40 1380 LINE",
"133 1380 LINE",
"133 20 LINE",
"40 20 LINE",
"40 0 LINE"
);
}
);
width = 1066;
},
{
anchors = (
{
name = bottom;
position = "{509, 0}";
},
{
name = top;
position = "{509, 1400}";
}
);
layerId = "2224527B-843E-45D0-ACBE-AC9678FC6685";
paths = (
{
closed = 1;
nodes = (
"298 0 LINE",
"298 60 LINE",
"200 60 LINE",
"200 1340 LINE",
"198 1340 LINE",
"411 67 LINE",
"493 67 LINE",
"711 1356 LINE",
"709 1356 LINE",
"709 60 LINE",
"618 60 LINE",
"618 0 LINE",
"862 0 LINE",
"862 60 LINE",
"769 60 LINE",
"769 1340 LINE",
"849 1340 LINE",
"849 1400 LINE",
"656 1400 LINE",
"449 129 LINE",
"455 129 LINE",
"253 1400 LINE",
"58 1400 LINE",
"58 1340 LINE",
"140 1340 LINE",
"140 60 LINE",
"49 60 LINE",
"49 0 LINE"
);
}
);
width = 900;
},
{
anchors = (
{
name = bottom;
position = "{595, 0}";
},
{
name = top;
position = "{595, 1400}";
}
);
layerId = "42FCB8D3-5141-4304-9365-2E27830BD286";
paths = (
{
closed = 1;
nodes = (
"264 0 LINE",
"264 80 LINE",
"189 80 LINE",
"189 1355 LINE",
"158 1355 LINE",
"389 80 LINE",
"464 80 LINE",
"754 1289 LINE",
"709 1289 LINE",
"709 80 LINE",
"609 80 LINE",
"609 0 LINE",
"1104 0 LINE",
"1104 80 LINE",
"1009 80 LINE",
"1009 1320 LINE",
"1104 1320 LINE",
"1104 1400 LINE",
"682 1400 LINE",
"536 796 LINE",
"578 796 LINE",
"476 1400 LINE",
"16 1400 LINE",
"16 1320 LINE",
"109 1320 LINE",
"109 80 LINE",
"16 80 LINE",
"16 0 LINE"
);
}
);
width = 1121;
}
);
leftKerningGroup = H;
rightKerningGroup = H;
unicode = 004D;
},
{
color = 6;
glyphname = N;
lastChange = "2020-11-04 12:52:33 +0000";
layers = (
{
anchors = (
{
name = bottom;
position = "{382, 0}";
},
{
name = top;
position = "{382, 1400}";
}
);
layerId = "798A1B98-D718-4469-8D5D-1F04921BF637";
paths = (
{
closed = 1;
nodes = (
"280 0 LINE",
"280 20 LINE",
"171 20 LINE",
"171 1373 LINE",
"169 1373 LINE",
"571 0 LINE",
"598 0 LINE",
"598 1380 LINE",
"685 1380 LINE",
"685 1400 LINE",
"482 1400 LINE",
"482 1380 LINE",
"576 1380 LINE",
"576 155 LINE",
"584 155 LINE",
"222 1400 LINE",
"58 1400 LINE",
"58 1380 LINE",
"149 1380 LINE",
"149 20 LINE",
"58 20 LINE",
"58 0 LINE"
);
}
);
width = 735;
},
{
anchors = (
{
name = bottom;
position = "{413, 0}";
},
{
name = top;
position = "{413, 1400}";
}
);
layerId = "A4F0BE09-87B8-499B-8BA0-E8BD95093B86";
paths = (
{
closed = 1;
nodes = (
"233 0 LINE",
"233 20 LINE",
"144 20 LINE",
"144 1233 LINE",
"124 1233 LINE",
"611 0 LINE",
"691 0 LINE",
"691 1380 LINE",
"778 1380 LINE",
"778 1400 LINE",
"580 1400 LINE",
"580 1380 LINE",
"669 1380 LINE",
"669 687 LINE",
"684 687 LINE",
"400 1400 LINE",
"31 1400 LINE",
"31 1380 LINE",
"122 1380 LINE",
"122 20 LINE",
"31 20 LINE",
"31 0 LINE"
);
}
);
width = 808;
},
{
anchors = (
{
name = bottom;
position = "{378, 0}";
},
{
name = top;
position = "{378, 1400}";
}
);
layerId = "2224527B-843E-45D0-ACBE-AC9678FC6685";
paths = (
{
closed = 1;
nodes = (
"296 0 LINE",
"296 60 LINE",
"189 60 LINE",
"189 1327 LINE",
"187 1327 LINE",
"542 0 LINE",
"640 0 LINE",
"640 1340 LINE",
"729 1340 LINE",
"729 1400 LINE",
"485 1400 LINE",
"485 1340 LINE",
"578 1340 LINE",
"578 114 LINE",
"580 114 LINE",
"231 1400 LINE",
"35 1400 LINE",
"35 1340 LINE",
"127 1340 LINE",
"127 60 LINE",
"35 60 LINE",
"35 0 LINE"
);
}
);
width = 764;
},
{
anchors = (
{
name = bottom;
position = "{440, 0}";
},
{
name = top;
position = "{440, 1400}";
}
);
layerId = "42FCB8D3-5141-4304-9365-2E27830BD286";
paths = (
{
closed = 1;
nodes = (
"289 0 LINE",
"289 80 LINE",
"202 80 LINE",
"202 1233 LINE",
"182 1233 LINE",
"577 0 LINE",
"747 0 LINE",
"747 1320 LINE",
"836 1320 LINE",
"836 1400 LINE",
"578 1400 LINE",
"578 1320 LINE",
"665 1320 LINE",
"665 687 LINE",
"681 687 LINE",
"448 1400 LINE",
"27 1400 LINE",
"27 1320 LINE",
"120 1320 LINE",
"120 80 LINE",
"27 80 LINE",
"27 0 LINE"
);
}
);
width = 863;
}
);
leftKerningGroup = H;
rightKerningGroup = H;
unicode = 004E;
},
{
color = 3;
glyphname = Eng;
lastChange = "2020-11-04 12:52:45 +0000";
layers = (
{
components = (
{
name = N;
}
);
layerId = "798A1B98-D718-4469-8D5D-1F04921BF637";
paths = (
{
closed = 1;
nodes = (
"511 -391 OFFCURVE",
"598 -340 OFFCURVE",
"598 -7 CURVE SMOOTH",
"598 140 LINE",
"571 140 LINE",
"571 -44 LINE SMOOTH",
"571 -222 OFFCURVE",
"536 -369 OFFCURVE",
"458 -369 CURVE SMOOTH",
"404 -369 OFFCURVE",
"389 -307 OFFCURVE",
"389 -256 CURVE SMOOTH",
"389 -193 OFFCURVE",
"400 -175 OFFCURVE",
"400 -138 CURVE SMOOTH",
"400 -95 OFFCURVE",
"391 -80 OFFCURVE",
"371 -80 CURVE SMOOTH",
"351 -80 OFFCURVE",
"340 -95 OFFCURVE",
"340 -149 CURVE SMOOTH",
"340 -276 OFFCURVE",
"380 -391 OFFCURVE",
"456 -391 CURVE SMOOTH"
);
}
);
width = 735;
},
{
components = (
{
name = N;
}
);
layerId = "A4F0BE09-87B8-499B-8BA0-E8BD95093B86";
paths = (
{
closed = 1;
nodes = (
"691 -395 OFFCURVE",
"691 -251 OFFCURVE",
"691 -156 CURVE SMOOTH",
"691 0 LINE",
"667 0 LINE",
"667 -158 LINE SMOOTH",
"667 -240 OFFCURVE",
"662 -375 OFFCURVE",
"589 -375 CURVE SMOOTH",
"560 -375 OFFCURVE",
"544 -358 OFFCURVE",
"544 -329 CURVE SMOOTH",
"544 -289 OFFCURVE",
"576 -229 OFFCURVE",
"576 -167 CURVE SMOOTH",
"576 -98 OFFCURVE",
"533 -75 OFFCURVE",
"489 -75 CURVE SMOOTH",
"431 -75 OFFCURVE",
"380 -118 OFFCURVE",
"380 -196 CURVE SMOOTH",
"380 -320 OFFCURVE",
"496 -395 OFFCURVE",
"587 -395 CURVE SMOOTH"
);
}
);
width = 808;
},
{
components = (
{
name = N;
}
);
layerId = "2224527B-843E-45D0-ACBE-AC9678FC6685";
paths = (
{
closed = 1;
nodes = (
"515 -391 OFFCURVE",
"640 -340 OFFCURVE",
"640 -7 CURVE SMOOTH",
"640 140 LINE",
"578 140 LINE",
"578 -44 LINE SMOOTH",
"578 -222 OFFCURVE",
"536 -331 OFFCURVE",
"458 -331 CURVE SMOOTH",
"425 -331 OFFCURVE",
"405 -287 OFFCURVE",
"405 -236 CURVE SMOOTH",
"405 -173 OFFCURVE",
"418 -175 OFFCURVE",
"418 -138 CURVE SMOOTH",
"418 -95 OFFCURVE",
"400 -80 OFFCURVE",
"380 -80 CURVE SMOOTH",
"360 -80 OFFCURVE",
"342 -95 OFFCURVE",
"342 -149 CURVE SMOOTH",
"342 -276 OFFCURVE",
"362 -391 OFFCURVE",
"458 -391 CURVE SMOOTH"
);
}
);
width = 764;
},
{
components = (
{
name = N;
}
);
layerId = "42FCB8D3-5141-4304-9365-2E27830BD286";
paths = (
{
closed = 1;
nodes = (
"688 -395 OFFCURVE",
"747 -290 OFFCURVE",
"747 -176 CURVE SMOOTH",
"747 0 LINE",
"664 0 LINE",
"664 -158 LINE SMOOTH",
"664 -240 OFFCURVE",
"640 -315 OFFCURVE",
"585 -315 CURVE SMOOTH",
"558 -315 OFFCURVE",
"542 -298 OFFCURVE",
"542 -271 CURVE SMOOTH",
"542 -238 OFFCURVE",
"575 -222 OFFCURVE",
"575 -167 CURVE SMOOTH",
"575 -98 OFFCURVE",
"529 -75 OFFCURVE",
"485 -75 CURVE SMOOTH",
"427 -75 OFFCURVE",
"378 -118 OFFCURVE",
"378 -196 CURVE SMOOTH",
"378 -340 OFFCURVE",
"465 -395 OFFCURVE",
"574 -395 CURVE SMOOTH"
);
}
);
width = 863;
}
);
leftKerningGroup = N;
leftMetricsKey = N;
rightKerningGroup = N;
rightMetricsKey = N;
unicode = 014A;
},
{
color = 6;
glyphname = O;
lastChange = "2020-11-04 12:52:33 +0000";
layers = (
{
anchors = (
{
name = bottom;
position = "{311, 0}";
},
{
name = center;
position = "{325, 700}";
},
{
name = ogonek;
position = "{397, 13}";
},
{
name = top;
position = "{311, 1400}";
},
{
name = topleft;
position = "{29, 1400}";
},
{
name = topright;
position = "{402, 1382}";
}
);
layerId = "798A1B98-D718-4469-8D5D-1F04921BF637";
paths = (
{
closed = 1;
nodes = (
"473 -22 OFFCURVE",
"562 289 OFFCURVE",
"562 698 CURVE SMOOTH",
"562 1109 OFFCURVE",
"473 1422 OFFCURVE",
"309 1422 CURVE SMOOTH",
"145 1422 OFFCURVE",
"60 1109 OFFCURVE",
"60 698 CURVE SMOOTH",
"60 289 OFFCURVE",
"145 -22 OFFCURVE",
"309 -22 CURVE SMOOTH"
);
},
{
closed = 1;
nodes = (
"176 -2 OFFCURVE",
"124 329 OFFCURVE",
"124 698 CURVE SMOOTH",
"124 1067 OFFCURVE",
"176 1402 OFFCURVE",
"309 1402 CURVE SMOOTH",
"444 1402 OFFCURVE",
"498 1067 OFFCURVE",
"498 698 CURVE SMOOTH",
"498 329 OFFCURVE",
"444 -2 OFFCURVE",
"309 -2 CURVE SMOOTH"
);
}
);
width = 622;
},
{
anchors = (
{
name = bottom;
position = "{430, 0}";
},
{
name = center;
position = "{443, 700}";
},
{
name = ogonek;
position = "{554, 11}";
},
{
name = top;
position = "{430, 1400}";
},
{
name = topleft;
position = "{17, 1400}";
},
{
name = topright;
position = "{567, 1381}";
}
);
layerId = "A4F0BE09-87B8-499B-8BA0-E8BD95093B86";
paths = (
{
closed = 1;
nodes = (
"643 -22 OFFCURVE",
"812 229 OFFCURVE",
"812 698 CURVE SMOOTH",
"812 1169 OFFCURVE",
"643 1422 OFFCURVE",
"430 1422 CURVE SMOOTH",
"219 1422 OFFCURVE",
"50 1169 OFFCURVE",
"50 698 CURVE SMOOTH",
"50 229 OFFCURVE",
"219 -22 OFFCURVE",
"430 -22 CURVE SMOOTH"
);
},
{
closed = 1;
nodes = (
"372 -2 OFFCURVE",
"372 249 OFFCURVE",
"372 698 CURVE SMOOTH",
"372 1147 OFFCURVE",
"372 1402 OFFCURVE",
"430 1402 CURVE SMOOTH",
"488 1402 OFFCURVE",
"490 1147 OFFCURVE",
"490 698 CURVE SMOOTH",
"490 249 OFFCURVE",
"488 -2 OFFCURVE",
"430 -2 CURVE SMOOTH"
);
}
);
width = 862;
},
{
anchors = (
{
name = bottom;
position = "{331, 0}";
},
{
name = center;
position = "{346, 700}";
},
{
name = ogonek;
position = "{416, 5}";
},
{
name = top;
position = "{331, 1400}";
},
{
name = topleft;
position = "{29, 1400}";
},
{
name = topright;
position = "{420, 1392}";
}
);
layerId = "2224527B-843E-45D0-ACBE-AC9678FC6685";
paths = (
{
closed = 1;
nodes = (
"513 -22 OFFCURVE",
"602 289 OFFCURVE",
"602 698 CURVE SMOOTH",
"602 1109 OFFCURVE",
"513 1422 OFFCURVE",
"329 1422 CURVE SMOOTH",
"146 1422 OFFCURVE",
"60 1109 OFFCURVE",
"60 698 CURVE SMOOTH",
"60 289 OFFCURVE",
"146 -22 OFFCURVE",
"329 -22 CURVE SMOOTH"
);
},
{
closed = 1;
nodes = (
"193 38 OFFCURVE",
"124 329 OFFCURVE",
"124 698 CURVE SMOOTH",
"124 1067 OFFCURVE",
"193 1362 OFFCURVE",
"329 1362 CURVE SMOOTH",
"466 1362 OFFCURVE",
"538 1067 OFFCURVE",
"538 698 CURVE SMOOTH",
"538 329 OFFCURVE",
"466 38 OFFCURVE",
"329 38 CURVE SMOOTH"
);
}
);
width = 662;
},
{
anchors = (
{
name = bottom;
position = "{461, 0}";
},
{
name = center;
position = "{470, 700}";
},
{
name = ogonek;
position = "{579, 8}";
},
{
name = top;
position = "{457, 1400}";
},
{
name = topleft;
position = "{45, 1400}";
},
{
name = topright;
position = "{609, 1375}";
}
);
layerId = "42FCB8D3-5141-4304-9365-2E27830BD286";
paths = (
{
closed = 1;
nodes = (
"681 -22 OFFCURVE",
"852 229 OFFCURVE",
"852 698 CURVE SMOOTH",
"852 1169 OFFCURVE",
"681 1422 OFFCURVE",
"457 1422 CURVE SMOOTH",
"234 1422 OFFCURVE",
"68 1169 OFFCURVE",
"68 698 CURVE SMOOTH",
"68 229 OFFCURVE",
"234 -22 OFFCURVE",
"457 -22 CURVE SMOOTH"
);
},
{
closed = 1;
nodes = (
"399 58 OFFCURVE",
"386 269 OFFCURVE",
"386 698 CURVE SMOOTH",
"386 1127 OFFCURVE",
"399 1342 OFFCURVE",
"457 1342 CURVE SMOOTH",
"517 1342 OFFCURVE",
"534 1127 OFFCURVE",
"534 698 CURVE SMOOTH",
"534 269 OFFCURVE",
"517 58 OFFCURVE",
"457 58 CURVE SMOOTH"
);
}
);
width = 906;
}
);
leftKerningGroup = O;
rightKerningGroup = O;
unicode = 004F;
},
{
color = 3;
glyphname = Ohorn;
lastChange = "2020-11-04 12:52:45 +0000";
layers = (
{
anchors = (
{
name = bottom;
position = "{311, 0}";
},
{
name = top;
position = "{311, 1400}";
}
);
components = (
{
name = horncomb.case;
transform = "{1, 0, 0, 1, 166, -18}";
}
);
layerId = "798A1B98-D718-4469-8D5D-1F04921BF637";
paths = (
{
closed = 1;
nodes = (
"473 -22 OFFCURVE",
"562 289 OFFCURVE",
"562 698 CURVE SMOOTH",
"562 1109 OFFCURVE",
"473 1422 OFFCURVE",
"309 1422 CURVE SMOOTH",
"145 1422 OFFCURVE",
"60 1109 OFFCURVE",
"60 698 CURVE SMOOTH",
"60 289 OFFCURVE",
"145 -22 OFFCURVE",
"309 -22 CURVE SMOOTH"
);
},
{
closed = 1;
nodes = (
"176 -2 OFFCURVE",
"124 329 OFFCURVE",
"124 698 CURVE SMOOTH",
"124 1067 OFFCURVE",
"176 1402 OFFCURVE",
"309 1402 CURVE SMOOTH",
"444 1402 OFFCURVE",
"498 1067 OFFCURVE",
"498 698 CURVE SMOOTH",
"498 329 OFFCURVE",
"444 -2 OFFCURVE",
"309 -2 CURVE SMOOTH"
);
}
);
width = 622;
},
{
anchors = (
{
name = bottom;
position = "{431, 0}";
},
{
name = top;
position = "{431, 1400}";
}
);
components = (
{
name = horncomb.case;
transform = "{1, 0, 0, 1, 331, -19}";
}
);
layerId = "A4F0BE09-87B8-499B-8BA0-E8BD95093B86";
paths = (
{
closed = 1;
nodes = (
"643 -22 OFFCURVE",
"812 229 OFFCURVE",
"812 698 CURVE SMOOTH",
"812 1169 OFFCURVE",
"643 1422 OFFCURVE",
"430 1422 CURVE SMOOTH",
"219 1422 OFFCURVE",
"50 1169 OFFCURVE",
"50 698 CURVE SMOOTH",
"50 229 OFFCURVE",
"219 -22 OFFCURVE",
"430 -22 CURVE SMOOTH"
);
},
{
closed = 1;
nodes = (
"372 -2 OFFCURVE",
"372 249 OFFCURVE",
"372 698 CURVE SMOOTH",
"372 1147 OFFCURVE",
"372 1402 OFFCURVE",
"430 1402 CURVE SMOOTH",
"488 1402 OFFCURVE",
"490 1147 OFFCURVE",
"490 698 CURVE SMOOTH",
"490 249 OFFCURVE",
"488 -2 OFFCURVE",
"430 -2 CURVE SMOOTH"
);
}
);
width = 862;
},
{
anchors = (
{
name = bottom;
position = "{331, 0}";
},
{
name = top;
position = "{331, 1400}";
}
);
components = (
{
name = horncomb.case;
transform = "{1, 0, 0, 1, 184, -8}";
}
);
layerId = "2224527B-843E-45D0-ACBE-AC9678FC6685";
paths = (
{
closed = 1;
nodes = (
"513 -22 OFFCURVE",
"602 289 OFFCURVE",
"602 698 CURVE SMOOTH",
"602 1109 OFFCURVE",
"513 1422 OFFCURVE",
"329 1422 CURVE SMOOTH",
"146 1422 OFFCURVE",
"60 1109 OFFCURVE",
"60 698 CURVE SMOOTH",
"60 289 OFFCURVE",
"146 -22 OFFCURVE",
"329 -22 CURVE SMOOTH"
);
},
{
closed = 1;
nodes = (
"193 38 OFFCURVE",
"124 329 OFFCURVE",
"124 698 CURVE SMOOTH",
"124 1067 OFFCURVE",
"193 1362 OFFCURVE",
"329 1362 CURVE SMOOTH",
"466 1362 OFFCURVE",
"538 1067 OFFCURVE",
"538 698 CURVE SMOOTH",
"538 329 OFFCURVE",
"466 38 OFFCURVE",
"329 38 CURVE SMOOTH"
);
}
);
width = 662;
},
{
anchors = (
{
name = bottom;
position = "{453, 0}";
},
{
name = top;
position = "{453, 1400}";
}
);
components = (
{
name = horncomb.case;
transform = "{1, 0, 0, 1, 373, -25}";
}
);
layerId = "42FCB8D3-5141-4304-9365-2E27830BD286";
paths = (
{
closed = 1;
nodes = (
"681 -22 OFFCURVE",
"852 229 OFFCURVE",
"852 698 CURVE SMOOTH",
"852 1169 OFFCURVE",
"681 1422 OFFCURVE",
"457 1422 CURVE SMOOTH",
"234 1422 OFFCURVE",
"68 1169 OFFCURVE",
"68 698 CURVE SMOOTH",
"68 229 OFFCURVE",
"234 -22 OFFCURVE",
"457 -22 CURVE SMOOTH"
);
},
{
closed = 1;
nodes = (
"399 58 OFFCURVE",
"386 269 OFFCURVE",
"386 698 CURVE SMOOTH",
"386 1127 OFFCURVE",
"399 1342 OFFCURVE",
"457 1342 CURVE SMOOTH",
"517 1342 OFFCURVE",
"534 1127 OFFCURVE",
"534 698 CURVE SMOOTH",
"534 269 OFFCURVE",
"517 58 OFFCURVE",
"457 58 CURVE SMOOTH"
);
}
);
width = 906;
}
);
unicode = 01A0;
},
{
color = 3;
glyphname = Oslash;
lastChange = "2020-11-04 12:52:45 +0000";
layers = (
{
components = (
{
name = O;
}
);
layerId = "798A1B98-D718-4469-8D5D-1F04921BF637";
paths = (
{
closed = 1;
nodes = (
"57 -104 LINE",
"602 1504 LINE",
"580 1504 LINE",
"33 -104 LINE"
);
}
);
width = 622;
},
{
components = (
{
name = O;
}
);
layerId = "A4F0BE09-87B8-499B-8BA0-E8BD95093B86";
paths = (
{
closed = 1;
nodes = (
"176 -104 LINE",
"721 1504 LINE",
"699 1504 LINE",
"152 -104 LINE"
);
}
);
width = 862;
},
{
components = (
{
name = O;
}
);
layerId = "2224527B-843E-45D0-ACBE-AC9678FC6685";
paths = (
{
closed = 1;
nodes = (
"153 -104 LINE",
"658 1504 LINE",
"596 1504 LINE",
"89 -104 LINE"
);
}
);
width = 718;
},
{
components = (
{
name = O;
}
);
layerId = "42FCB8D3-5141-4304-9365-2E27830BD286";
paths = (
{
closed = 1;
nodes = (
"269 -104 LINE",
"754 1504 LINE",
"672 1504 LINE",
"185 -104 LINE"
);
}
);
width = 906;
}
);
leftKerningGroup = O;
rightKerningGroup = O;
unicode = 00D8;
},
{
color = 6;
glyphname = OE;
lastChange = "2020-11-04 12:52:33 +0000";
layers = (
{
anchors = (
{
name = bottom;
position = "{464, 0}";
},
{
name = top;
position = "{464, 1400}";
}
);
layerId = "798A1B98-D718-4469-8D5D-1F04921BF637";
paths = (
{
closed = 1;
nodes = (
"407 -22 OFFCURVE",
"456 -7 OFFCURVE",
"484 27 CURVE",
"465 55 LINE",
"445 18 OFFCURVE",
"424 -2 OFFCURVE",
"345 -2 CURVE SMOOTH",
"191 -2 OFFCURVE",
"124 329 OFFCURVE",
"124 698 CURVE SMOOTH",
"124 1067 OFFCURVE",
"196 1402 OFFCURVE",
"349 1402 CURVE SMOOTH",
"385 1402 OFFCURVE",
"431 1393 OFFCURVE",
"460 1360 CURVE",
"469 1387 LINE",
"444 1413 OFFCURVE",
"387 1422 OFFCURVE",
"349 1422 CURVE SMOOTH",
"165 1422 OFFCURVE",
"60 1109 OFFCURVE",
"60 698 CURVE SMOOTH",
"60 289 OFFCURVE",
"162 -22 OFFCURVE",
"345 -22 CURVE SMOOTH"
);
},
{
closed = 1;
nodes = (
"836 0 LINE",
"836 247 LINE",
"816 247 LINE",
"816 84 OFFCURVE",
"805 20 OFFCURVE",
"653 20 CURVE SMOOTH",
"505 20 LINE",
"505 711 LINE",
"776 711 LINE",
"776 593 LINE",
"796 593 LINE",
"796 851 LINE",
"776 851 LINE",
"776 731 LINE",
"505 731 LINE",
"505 1380 LINE",
"664 1380 LINE SMOOTH",
"809 1380 OFFCURVE",
"816 1318 OFFCURVE",
"816 1156 CURVE",
"836 1156 LINE",
"836 1400 LINE",
"445 1400 LINE",
"445 0 LINE"
);
}
);
width = 894;
},
{
anchors = (
{
name = bottom;
position = "{599, 0}";
},
{
name = top;
position = "{599, 1400}";
}
);
layerId = "A4F0BE09-87B8-499B-8BA0-E8BD95093B86";
paths = (
{
closed = 1;
nodes = (
"519 -22 OFFCURVE",
"594 24 OFFCURVE",
"646 116 CURVE",
"574 116 LINE",
"574 42 OFFCURVE",
"514 -2 OFFCURVE",
"450 -2 CURVE SMOOTH",
"375 -2 OFFCURVE",
"348 329 OFFCURVE",
"348 698 CURVE SMOOTH",
"348 1067 OFFCURVE",
"375 1398 OFFCURVE",
"450 1402 CURVE SMOOTH",
"501 1404 OFFCURVE",
"554 1375 OFFCURVE",
"570 1300 CURVE",
"639 1304 LINE",
"588 1382 OFFCURVE",
"514 1422 OFFCURVE",
"430 1422 CURVE SMOOTH",
"206 1422 OFFCURVE",
"50 1109 OFFCURVE",
"50 698 CURVE SMOOTH",
"50 289 OFFCURVE",
"206 -22 OFFCURVE",
"430 -22 CURVE SMOOTH"
);
},
{
closed = 1;
nodes = (
"1117 0 LINE",
"1117 367 LINE",
"1097 367 LINE",
"1097 204 OFFCURVE",
"1043 20 OFFCURVE",
"886 20 CURVE SMOOTH",
"828 20 LINE",
"828 711 LINE",
"1097 711 LINE",
"1097 593 LINE",
"1117 593 LINE",
"1117 851 LINE",
"1097 851 LINE",
"1097 731 LINE",
"828 731 LINE",
"828 1380 LINE",
"886 1380 LINE SMOOTH",
"1043 1380 OFFCURVE",
"1097 1198 OFFCURVE",
"1097 1036 CURVE",
"1117 1036 LINE",
"1117 1400 LINE",
"530 1400 LINE",
"530 0 LINE"
);
}
);
width = 1167;
},
{
anchors = (
{
name = bottom;
position = "{464, 0}";
},
{
name = top;
position = "{464, 1400}";
}
);
layerId = "2224527B-843E-45D0-ACBE-AC9678FC6685";
paths = (
{
closed = 1;
nodes = (
"407 -22 OFFCURVE",
"456 -7 OFFCURVE",
"484 27 CURVE",
"466 95 LINE",
"446 58 OFFCURVE",
"424 38 OFFCURVE",
"346 38 CURVE SMOOTH",
"191 38 OFFCURVE",
"124 369 OFFCURVE",
"124 698 CURVE SMOOTH",
"124 1027 OFFCURVE",
"196 1362 OFFCURVE",
"349 1362 CURVE SMOOTH",
"386 1362 OFFCURVE",
"431 1353 OFFCURVE",
"460 1320 CURVE",
"469 1387 LINE",
"444 1413 OFFCURVE",
"387 1422 OFFCURVE",
"349 1422 CURVE SMOOTH",
"166 1422 OFFCURVE",
"60 1109 OFFCURVE",
"60 698 CURVE SMOOTH",
"60 289 OFFCURVE",
"162 -22 OFFCURVE",
"346 -22 CURVE SMOOTH"
);
},
{
closed = 1;
nodes = (
"836 0 LINE",
"836 247 LINE",
"776 247 LINE",
"776 84 OFFCURVE",
"766 60 OFFCURVE",
"653 60 CURVE SMOOTH",
"506 60 LINE",
"506 691 LINE",
"736 691 LINE",
"736 593 LINE",
"796 593 LINE",
"796 851 LINE",
"736 851 LINE",
"736 751 LINE",
"506 751 LINE",
"506 1340 LINE",
"664 1340 LINE SMOOTH",
"769 1340 OFFCURVE",
"776 1318 OFFCURVE",
"776 1156 CURVE",
"836 1156 LINE",
"836 1400 LINE",
"446 1400 LINE",
"446 0 LINE"
);
}
);
width = 914;
},
{
anchors = (
{
name = bottom;
position = "{617, 0}";
},
{
name = top;
position = "{617, 1400}";
}
);
layerId = "42FCB8D3-5141-4304-9365-2E27830BD286";
paths = (
{
closed = 1;
nodes = (
"537 -22 OFFCURVE",
"612 24 OFFCURVE",
"665 116 CURVE",
"592 176 LINE",
"592 133 OFFCURVE",
"532 58 OFFCURVE",
"497 58 CURVE SMOOTH",
"394 58 OFFCURVE",
"366 329 OFFCURVE",
"366 698 CURVE SMOOTH",
"366 1067 OFFCURVE",
"385 1342 OFFCURVE",
"497 1342 CURVE SMOOTH",
"519 1342 OFFCURVE",
"572 1315 OFFCURVE",
"588 1240 CURVE",
"657 1304 LINE",
"606 1382 OFFCURVE",
"532 1422 OFFCURVE",
"448 1422 CURVE SMOOTH",
"225 1422 OFFCURVE",
"68 1109 OFFCURVE",
"68 698 CURVE SMOOTH",
"68 289 OFFCURVE",
"225 -22 OFFCURVE",
"448 -22 CURVE SMOOTH"
);
},
{
closed = 1;
nodes = (
"1135 0 LINE",
"1135 367 LINE",
"1055 367 LINE",
"1055 204 OFFCURVE",
"1054 80 OFFCURVE",
"905 80 CURVE SMOOTH",
"846 80 LINE",
"846 680 LINE",
"1055 680 LINE",
"1055 593 LINE",
"1135 593 LINE",
"1135 851 LINE",
"1055 851 LINE",
"1055 760 LINE",
"846 760 LINE",
"846 1320 LINE",
"905 1320 LINE SMOOTH",
"1054 1320 OFFCURVE",
"1055 1198 OFFCURVE",
"1055 1036 CURVE",
"1135 1036 LINE",
"1135 1400 LINE",
"548 1400 LINE",
"548 0 LINE"
);
}
);
width = 1213;
}
);
leftKerningGroup = O;
leftMetricsKey = O;
rightKerningGroup = E;
rightMetricsKey = E;
unicode = 0152;
},
{
color = 6;
glyphname = P;
lastChange = "2020-11-04 12:52:33 +0000";
layers = (
{
anchors = (
{
name = bottom;
position = "{336, 0}";
},
{
name = top;
position = "{336, 1400}";
}
);
layerId = "798A1B98-D718-4469-8D5D-1F04921BF637";
paths = (
{
closed = 1;
nodes = (
"304 0 LINE",
"304 20 LINE",
"213 20 LINE",
"213 587 LINE",
"338 587 LINE SMOOTH",
"440 587 OFFCURVE",
"580 713 OFFCURVE",
"580 1015 CURVE SMOOTH",
"580 1309 OFFCURVE",
"444 1400 OFFCURVE",
"338 1400 CURVE SMOOTH",
"60 1400 LINE",
"60 1380 LINE",
"153 1380 LINE",
"153 20 LINE",
"60 20 LINE",
"60 0 LINE"
);
},
{
closed = 1;
nodes = (
"213 1380 LINE",
"329 1380 LINE SMOOTH",
"422 1380 OFFCURVE",
"516 1258 OFFCURVE",
"516 1016 CURVE SMOOTH",
"516 760 OFFCURVE",
"413 607 OFFCURVE",
"322 607 CURVE SMOOTH",
"213 607 LINE"
);
}
);
width = 620;
},
{
anchors = (
{
name = bottom;
position = "{449, 0}";
},
{
name = top;
position = "{449, 1400}";
}
);
layerId = "A4F0BE09-87B8-499B-8BA0-E8BD95093B86";
paths = (
{
closed = 1;
nodes = (
"513 0 LINE",
"513 20 LINE",
"422 20 LINE",
"422 587 LINE",
"509 587 LINE SMOOTH",
"651 587 OFFCURVE",
"840 713 OFFCURVE",
"840 1015 CURVE SMOOTH",
"840 1309 OFFCURVE",
"655 1400 OFFCURVE",
"509 1400 CURVE SMOOTH",
"31 1400 LINE",
"31 1380 LINE",
"124 1380 LINE",
"124 20 LINE",
"31 20 LINE",
"31 0 LINE"
);
},
{
closed = 1;
nodes = (
"422 1380 LINE",
"442 1380 LINE SMOOTH",
"495 1380 OFFCURVE",
"527 1269 OFFCURVE",
"527 1016 CURVE SMOOTH",
"527 749 OFFCURVE",
"485 607 OFFCURVE",
"435 607 CURVE SMOOTH",
"422 607 LINE"
);
}
);
width = 873;
},
{
anchors = (
{
name = bottom;
position = "{345, 0}";
},
{
name = top;
position = "{345, 1400}";
}
);
layerId = "2224527B-843E-45D0-ACBE-AC9678FC6685";
paths = (
{
closed = 1;
nodes = (
"325 0 LINE",
"325 60 LINE",
"222 60 LINE",
"222 567 LINE",
"347 567 LINE SMOOTH",
"449 567 OFFCURVE",
"589 713 OFFCURVE",
"589 1015 CURVE SMOOTH",
"589 1309 OFFCURVE",
"453 1400 OFFCURVE",
"347 1400 CURVE SMOOTH",
"58 1400 LINE",
"58 1340 LINE",
"162 1340 LINE",
"162 60 LINE",
"58 60 LINE",
"58 0 LINE"
);
},
{
closed = 1;
nodes = (
"222 1340 LINE",
"338 1340 LINE SMOOTH",
"431 1340 OFFCURVE",
"525 1258 OFFCURVE",
"525 1016 CURVE SMOOTH",
"525 760 OFFCURVE",
"422 627 OFFCURVE",
"331 627 CURVE SMOOTH",
"222 627 LINE"
);
}
);
width = 638;
},
{
anchors = (
{
name = bottom;
position = "{477, 0}";
},
{
name = top;
position = "{477, 1400}";
}
);
layerId = "42FCB8D3-5141-4304-9365-2E27830BD286";
paths = (
{
closed = 1;
nodes = (
"562 0 LINE",
"562 80 LINE",
"451 80 LINE",
"451 556 LINE",
"538 556 LINE SMOOTH",
"678 556 OFFCURVE",
"876 713 OFFCURVE",
"876 1015 CURVE SMOOTH",
"876 1309 OFFCURVE",
"682 1400 OFFCURVE",
"538 1400 CURVE SMOOTH",
"44 1400 LINE",
"44 1320 LINE",
"155 1320 LINE",
"155 80 LINE",
"44 80 LINE",
"44 0 LINE"
);
},
{
closed = 1;
nodes = (
"451 1320 LINE",
"475 1320 LINE SMOOTH",
"539 1320 OFFCURVE",
"564 1236 OFFCURVE",
"564 1015 CURVE SMOOTH",
"564 781 OFFCURVE",
"532 636 OFFCURVE",
"466 636 CURVE SMOOTH",
"451 636 LINE"
);
}
);
width = 918;
}
);
leftKerningGroup = H;
rightKerningGroup = P;
unicode = 0050;
},
{
color = 3;
glyphname = Thorn;
lastChange = "2020-11-04 12:52:45 +0000";
layers = (
{
anchors = (
{
name = bottom;
position = "{346, 0}";
},
{
name = top;
position = "{346, 1400}";
}
);
components = (
{
name = I;
}
);
layerId = "798A1B98-D718-4469-8D5D-1F04921BF637";
paths = (
{
closed = 1;
nodes = (
"330 294 LINE SMOOTH",
"498 294 OFFCURVE",
"634 476 OFFCURVE",
"634 742 CURVE SMOOTH",
"634 998 OFFCURVE",
"502 1162 OFFCURVE",
"344 1162 CURVE",
"200 1162 LINE",
"200 1140 LINE",
"326 1140 LINE",
"468 1140 OFFCURVE",
"562 958 OFFCURVE",
"562 742 CURVE SMOOTH",
"562 512 OFFCURVE",
"462 316 OFFCURVE",
"304 316 CURVE",
"200 316 LINE",
"200 294 LINE"
);
}
);
width = 750;
},
{
anchors = (
{
name = bottom;
position = "{506, 0}";
},
{
name = top;
position = "{506, 1400}";
}
);
components = (
{
name = I;
}
);
layerId = "A4F0BE09-87B8-499B-8BA0-E8BD95093B86";
paths = (
{
closed = 1;
nodes = (
"563 300 LINE SMOOTH",
"775 300 OFFCURVE",
"907 480 OFFCURVE",
"907 746 CURVE SMOOTH",
"907 1002 OFFCURVE",
"779 1168 OFFCURVE",
"577 1168 CURVE",
"411 1168 LINE",
"411 1146 LINE",
"449 1146 LINE",
"525 1146 OFFCURVE",
"573 942 OFFCURVE",
"573 748 CURVE SMOOTH",
"573 540 OFFCURVE",
"519 322 OFFCURVE",
"427 322 CURVE",
"411 322 LINE",
"411 300 LINE"
);
}
);
width = 961;
},
{
anchors = (
{
name = bottom;
position = "{386, 0}";
},
{
name = top;
position = "{346, 1400}";
}
);
components = (
{
name = I;
}
);
layerId = "2224527B-843E-45D0-ACBE-AC9678FC6685";
paths = (
{
closed = 1;
nodes = (
"300 299 LINE SMOOTH",
"468 299 OFFCURVE",
"604 481 OFFCURVE",
"604 747 CURVE SMOOTH",
"604 1003 OFFCURVE",
"472 1167 OFFCURVE",
"314 1167 CURVE",
"190 1167 LINE",
"190 1101 LINE",
"296 1101 LINE",
"438 1101 OFFCURVE",
"532 963 OFFCURVE",
"532 747 CURVE SMOOTH",
"532 517 OFFCURVE",
"432 365 OFFCURVE",
"274 365 CURVE",
"190 365 LINE",
"190 299 LINE"
);
}
);
width = 700;
},
{
anchors = (
{
name = bottom;
position = "{536, 0}";
},
{
name = top;
position = "{536, 1400}";
}
);
components = (
{
name = I;
}
);
layerId = "42FCB8D3-5141-4304-9365-2E27830BD286";
paths = (
{
closed = 1;
nodes = (
"585 312 LINE SMOOTH",
"797 312 OFFCURVE",
"929 492 OFFCURVE",
"929 758 CURVE SMOOTH",
"929 1014 OFFCURVE",
"801 1180 OFFCURVE",
"599 1180 CURVE",
"433 1180 LINE",
"433 1092 LINE",
"471 1092 LINE",
"547 1092 OFFCURVE",
"595 954 OFFCURVE",
"595 760 CURVE SMOOTH",
"595 552 OFFCURVE",
"541 400 OFFCURVE",
"449 400 CURVE",
"433 400 LINE",
"433 312 LINE"
);
}
);
width = 1013;
}
);
leftKerningGroup = I;
leftMetricsKey = I;
unicode = 00DE;
},
{
color = 3;
glyphname = Q;
lastChange = "2020-11-04 12:52:45 +0000";
layers = (
{
anchors = (
{
name = bottom;
position = "{311, 0}";
},
{
name = top;
position = "{311, 1400}";
}
);
components = (
{
name = O;
}
);
layerId = "798A1B98-D718-4469-8D5D-1F04921BF637";
paths = (
{
closed = 1;
nodes = (
"571 -332 OFFCURVE",
"591 -310 OFFCURVE",
"591 -252 CURVE SMOOTH",
"591 -70 OFFCURVE",
"533 42 OFFCURVE",
"449 42 CURVE SMOOTH",
"437 42 OFFCURVE",
"415 37 OFFCURVE",
"407 34 CURVE",
"383 4 LINE",
"405 16 OFFCURVE",
"425 20 OFFCURVE",
"441 20 CURVE SMOOTH",
"503 20 OFFCURVE",
"529 -42 OFFCURVE",
"529 -86 CURVE SMOOTH",
"529 -176 OFFCURVE",
"507 -214 OFFCURVE",
"507 -268 CURVE SMOOTH",
"507 -306 OFFCURVE",
"525 -332 OFFCURVE",
"547 -332 CURVE SMOOTH"
);
}
);
width = 622;
},
{
anchors = (
{
name = bottom;
position = "{431, 0}";
},
{
name = top;
position = "{431, 1400}";
}
);
components = (
{
name = O;
}
);
layerId = "A4F0BE09-87B8-499B-8BA0-E8BD95093B86";
paths = (
{
closed = 1;
nodes = (
"743 -412 OFFCURVE",
"801 -362 OFFCURVE",
"801 -244 CURVE SMOOTH",
"801 -78 OFFCURVE",
"737 36 OFFCURVE",
"605 36 CURVE SMOOTH",
"585 36 OFFCURVE",
"547 32 OFFCURVE",
"539 26 CURVE",
"529 0 LINE",
"541 4 OFFCURVE",
"563 8 OFFCURVE",
"579 8 CURVE SMOOTH",
"613 8 OFFCURVE",
"649 -8 OFFCURVE",
"649 -36 CURVE SMOOTH",
"649 -100 OFFCURVE",
"537 -152 OFFCURVE",
"537 -264 CURVE SMOOTH",
"537 -362 OFFCURVE",
"595 -412 OFFCURVE",
"669 -412 CURVE SMOOTH"
);
}
);
width = 862;
},
{
anchors = (
{
name = bottom;
position = "{331, 0}";
},
{
name = top;
position = "{331, 1400}";
}
);
components = (
{
name = O;
}
);
layerId = "2224527B-843E-45D0-ACBE-AC9678FC6685";
paths = (
{
closed = 1;
nodes = (
"619 -332 OFFCURVE",
"640 -292 OFFCURVE",
"640 -208 CURVE SMOOTH",
"640 -34 OFFCURVE",
"587 76 OFFCURVE",
"491 76 CURVE SMOOTH",
"455 76 OFFCURVE",
"439 65 OFFCURVE",
"433 60 CURVE",
"413 4 LINE",
"427 14 OFFCURVE",
"455 26 OFFCURVE",
"471 26 CURVE SMOOTH",
"533 26 OFFCURVE",
"559 -44 OFFCURVE",
"559 -88 CURVE SMOOTH",
"559 -178 OFFCURVE",
"535 -210 OFFCURVE",
"535 -264 CURVE SMOOTH",
"535 -302 OFFCURVE",
"553 -332 OFFCURVE",
"583 -332 CURVE SMOOTH"
);
}
);
width = 662;
},
{
anchors = (
{
name = bottom;
position = "{453, 0}";
},
{
name = top;
position = "{453, 1400}";
}
);
components = (
{
name = O;
}
);
layerId = "42FCB8D3-5141-4304-9365-2E27830BD286";
paths = (
{
closed = 1;
nodes = (
"777 -412 OFFCURVE",
"845 -352 OFFCURVE",
"845 -234 CURVE SMOOTH",
"845 -32 OFFCURVE",
"797 98 OFFCURVE",
"655 98 CURVE SMOOTH",
"633 98 OFFCURVE",
"581 90 OFFCURVE",
"573 84 CURVE",
"563 0 LINE",
"575 4 OFFCURVE",
"597 8 OFFCURVE",
"613 8 CURVE SMOOTH",
"647 8 OFFCURVE",
"675 -8 OFFCURVE",
"675 -36 CURVE SMOOTH",
"675 -100 OFFCURVE",
"571 -152 OFFCURVE",
"571 -264 CURVE SMOOTH",
"571 -362 OFFCURVE",
"629 -412 OFFCURVE",
"703 -412 CURVE SMOOTH"
);
}
);
width = 906;
}
);
unicode = 0051;
},
{
color = 6;
glyphname = R;
lastChange = "2020-11-04 12:52:33 +0000";
layers = (
{
anchors = (
{
name = bottom;
position = "{349, 0}";
},
{
name = top;
position = "{349, 1400}";
}
);
layerId = "798A1B98-D718-4469-8D5D-1F04921BF637";
paths = (
{
closed = 1;
nodes = (
"629 -15 OFFCURVE",
"658 9 OFFCURVE",
"660 44 CURVE",
"642 44 LINE",
"640 29 OFFCURVE",
"629 18 OFFCURVE",
"618 18 CURVE SMOOTH",
"571 18 OFFCURVE",
"565 145 OFFCURVE",
"565 220 CURVE SMOOTH",
"565 289 OFFCURVE",
"569 362 OFFCURVE",
"569 431 CURVE SMOOTH",
"569 596 OFFCURVE",
"540 722 OFFCURVE",
"369 722 CURVE",
"482 729 OFFCURVE",
"587 840 OFFCURVE",
"587 1075 CURVE SMOOTH",
"587 1304 OFFCURVE",
"493 1400 OFFCURVE",
"347 1400 CURVE SMOOTH",
"60 1400 LINE",
"60 1380 LINE",
"153 1380 LINE",
"153 20 LINE",
"60 20 LINE",
"60 0 LINE",
"305 0 LINE",
"305 20 LINE",
"213 20 LINE",
"213 711 LINE",
"284 711 LINE SMOOTH",
"460 711 OFFCURVE",
"513 653 OFFCURVE",
"513 480 CURVE SMOOTH",
"513 398 OFFCURVE",
"504 296 OFFCURVE",
"504 204 CURVE SMOOTH",
"504 105 OFFCURVE",
"518 -15 OFFCURVE",
"596 -15 CURVE SMOOTH"
);
},
{
closed = 1;
nodes = (
"213 1380 LINE",
"333 1380 LINE SMOOTH",
"505 1380 OFFCURVE",
"525 1233 OFFCURVE",
"525 1071 CURVE SMOOTH",
"525 895 OFFCURVE",
"480 731 OFFCURVE",
"318 731 CURVE SMOOTH",
"213 731 LINE"
);
}
);
width = 696;
},
{
anchors = (
{
name = bottom;
position = "{475, 0}";
},
{
name = top;
position = "{475, 1400}";
}
);
layerId = "A4F0BE09-87B8-499B-8BA0-E8BD95093B86";
paths = (
{
closed = 1;
nodes = (
"836 -18 OFFCURVE",
"927 0 OFFCURVE",
"935 55 CURVE",
"915 55 LINE",
"913 42 OFFCURVE",
"902 31 OFFCURVE",
"887 31 CURVE SMOOTH",
"853 31 OFFCURVE",
"844 105 OFFCURVE",
"844 191 CURVE SMOOTH",
"844 231 OFFCURVE",
"847 276 OFFCURVE",
"847 322 CURVE SMOOTH",
"847 598 OFFCURVE",
"805 705 OFFCURVE",
"520 722 CURVE",
"656 744 OFFCURVE",
"860 820 OFFCURVE",
"860 1075 CURVE SMOOTH",
"860 1304 OFFCURVE",
"704 1400 OFFCURVE",
"518 1400 CURVE SMOOTH",
"31 1400 LINE",
"31 1380 LINE",
"124 1380 LINE",
"124 20 LINE",
"31 20 LINE",
"31 0 LINE",
"510 0 LINE",
"510 20 LINE",
"422 20 LINE",
"422 711 LINE",
"456 711 LINE SMOOTH",
"535 711 OFFCURVE",
"549 635 OFFCURVE",
"549 516 CURVE SMOOTH",
"549 442 OFFCURVE",
"536 355 OFFCURVE",
"536 267 CURVE SMOOTH",
"536 87 OFFCURVE",
"584 -18 OFFCURVE",
"780 -18 CURVE SMOOTH"
);
},
{
closed = 1;
nodes = (
"422 1380 LINE",
"452 1380 LINE SMOOTH",
"512 1380 OFFCURVE",
"544 1278 OFFCURVE",
"544 1071 CURVE SMOOTH",
"544 849 OFFCURVE",
"515 731 OFFCURVE",
"454 731 CURVE SMOOTH",
"422 731 LINE"
);
}
);
width = 946;
},
{
anchors = (
{
name = bottom;
position = "{358, 0}";
},
{
name = top;
position = "{358, 1400}";
}
);
layerId = "2224527B-843E-45D0-ACBE-AC9678FC6685";
paths = (
{
closed = 1;
nodes = (
"642 -15 OFFCURVE",
"689 15 OFFCURVE",
"689 71 CURVE",
"635 71 LINE",
"635 53 OFFCURVE",
"622 36 OFFCURVE",
"613 36 CURVE SMOOTH",
"580 36 OFFCURVE",
"575 147 OFFCURVE",
"575 220 CURVE SMOOTH",
"575 287 OFFCURVE",
"578 358 OFFCURVE",
"578 422 CURVE SMOOTH",
"578 604 OFFCURVE",
"551 722 OFFCURVE",
"398 722 CURVE",
"511 729 OFFCURVE",
"596 840 OFFCURVE",
"596 1075 CURVE SMOOTH",
"596 1304 OFFCURVE",
"502 1400 OFFCURVE",
"356 1400 CURVE SMOOTH",
"69 1400 LINE",
"69 1340 LINE",
"162 1340 LINE",
"162 60 LINE",
"69 60 LINE",
"69 0 LINE",
"315 0 LINE",
"315 60 LINE",
"222 60 LINE",
"222 691 LINE",
"293 691 LINE SMOOTH",
"487 691 OFFCURVE",
"515 640 OFFCURVE",
"515 411 CURVE SMOOTH",
"515 340 OFFCURVE",
"511 267 OFFCURVE",
"511 200 CURVE SMOOTH",
"511 85 OFFCURVE",
"522 -15 OFFCURVE",
"609 -15 CURVE SMOOTH"
);
},
{
closed = 1;
nodes = (
"222 1340 LINE",
"342 1340 LINE SMOOTH",
"502 1340 OFFCURVE",
"535 1233 OFFCURVE",
"535 1071 CURVE SMOOTH",
"535 895 OFFCURVE",
"476 751 OFFCURVE",
"327 751 CURVE SMOOTH",
"222 751 LINE"
);
}
);
width = 715;
},
{
anchors = (
{
name = bottom;
position = "{504, 0}";
},
{
name = top;
position = "{504, 1400}";
}
);
layerId = "42FCB8D3-5141-4304-9365-2E27830BD286";
paths = (
{
closed = 1;
nodes = (
"925 -18 OFFCURVE",
"985 20 OFFCURVE",
"1000 115 CURVE",
"925 115 LINE",
"924 98 OFFCURVE",
"918 82 OFFCURVE",
"900 82 CURVE SMOOTH",
"875 82 OFFCURVE",
"871 142 OFFCURVE",
"871 191 CURVE SMOOTH",
"871 249 OFFCURVE",
"878 322 OFFCURVE",
"878 395 CURVE SMOOTH",
"878 633 OFFCURVE",
"813 709 OFFCURVE",
"580 722 CURVE",
"707 742 OFFCURVE",
"884 847 OFFCURVE",
"884 1075 CURVE SMOOTH",
"884 1304 OFFCURVE",
"731 1400 OFFCURVE",
"547 1400 CURVE SMOOTH",
"44 1400 LINE",
"44 1320 LINE",
"155 1320 LINE",
"155 80 LINE",
"44 80 LINE",
"44 0 LINE",
"556 0 LINE",
"556 80 LINE",
"451 80 LINE",
"451 680 LINE",
"485 680 LINE SMOOTH",
"551 680 OFFCURVE",
"578 651 OFFCURVE",
"578 518 CURVE SMOOTH",
"578 485 OFFCURVE",
"575 418 OFFCURVE",
"575 347 CURVE SMOOTH",
"575 131 OFFCURVE",
"593 -18 OFFCURVE",
"809 -18 CURVE SMOOTH"
);
},
{
closed = 1;
nodes = (
"451 1320 LINE",
"484 1320 LINE SMOOTH",
"542 1320 OFFCURVE",
"582 1235 OFFCURVE",
"582 1071 CURVE SMOOTH",
"582 898 OFFCURVE",
"547 760 OFFCURVE",
"485 760 CURVE SMOOTH",
"451 760 LINE"
);
}
);
width = 1001;
}
);
leftKerningGroup = H;
rightKerningGroup = R;
unicode = 0052;
},
{
color = 6;
glyphname = S;
lastChange = "2020-11-04 12:52:33 +0000";
layers = (
{
anchors = (
{
name = bottom;
position = "{281, -5}";
},
{
name = top;
position = "{278, 1400}";
}
);
layerId = "798A1B98-D718-4469-8D5D-1F04921BF637";
paths = (
{
closed = 1;
nodes = (
"437 -27 OFFCURVE",
"493 136 OFFCURVE",
"493 289 CURVE SMOOTH",
"493 469 OFFCURVE",
"384 636 OFFCURVE",
"278 789 CURVE SMOOTH",
"147 978 OFFCURVE",
"120 1091 OFFCURVE",
"120 1193 CURVE SMOOTH",
"120 1338 OFFCURVE",
"198 1400 OFFCURVE",
"273 1400 CURVE SMOOTH",
"384 1400 OFFCURVE",
"424 1275 OFFCURVE",
"431 1135 CURVE",
"451 1135 LINE",
"451 1400 LINE",
"433 1400 LINE",
"431 1378 OFFCURVE",
"427 1373 OFFCURVE",
"418 1373 CURVE SMOOTH",
"400 1373 OFFCURVE",
"356 1422 OFFCURVE",
"267 1422 CURVE SMOOTH",
"151 1422 OFFCURVE",
"69 1318 OFFCURVE",
"69 1158 CURVE SMOOTH",
"69 1045 OFFCURVE",
"101 936 OFFCURVE",
"247 720 CURVE SMOOTH",
"333 593 OFFCURVE",
"440 415 OFFCURVE",
"440 258 CURVE SMOOTH",
"440 142 OFFCURVE",
"423 -4 OFFCURVE",
"275 -4 CURVE SMOOTH",
"181 -4 OFFCURVE",
"101 120 OFFCURVE",
"94 267 CURVE",
"74 267 LINE",
"74 0 LINE",
"92 0 LINE",
"92 27 OFFCURVE",
"97 35 OFFCURVE",
"108 35 CURVE SMOOTH",
"134 35 OFFCURVE",
"194 -27 OFFCURVE",
"277 -27 CURVE SMOOTH"
);
}
);
width = 542;
},
{
anchors = (
{
name = bottom;
position = "{344, -5}";
},
{
name = top;
position = "{353, 1400}";
}
);
layerId = "A4F0BE09-87B8-499B-8BA0-E8BD95093B86";
paths = (
{
closed = 1;
nodes = (
"440 -27 OFFCURVE",
"655 40 OFFCURVE",
"655 351 CURVE SMOOTH",
"655 531 OFFCURVE",
"591 671 OFFCURVE",
"455 827 CURVE SMOOTH",
"317 985 OFFCURVE",
"230 1085 OFFCURVE",
"230 1238 CURVE SMOOTH",
"230 1356 OFFCURVE",
"262 1400 OFFCURVE",
"327 1400 CURVE SMOOTH",
"469 1400 OFFCURVE",
"560 1107 OFFCURVE",
"567 1035 CURVE",
"587 1035 LINE",
"587 1400 LINE",
"569 1400 LINE",
"569 1375 OFFCURVE",
"560 1367 OFFCURVE",
"540 1367 CURVE SMOOTH",
"504 1367 OFFCURVE",
"422 1422 OFFCURVE",
"331 1422 CURVE SMOOTH",
"204 1422 OFFCURVE",
"39 1319 OFFCURVE",
"39 1046 CURVE SMOOTH",
"39 890 OFFCURVE",
"90 752 OFFCURVE",
"240 558 CURVE SMOOTH",
"367 393 OFFCURVE",
"456 271 OFFCURVE",
"456 153 CURVE SMOOTH",
"456 37 OFFCURVE",
"409 -4 OFFCURVE",
"338 -4 CURVE SMOOTH",
"176 -4 OFFCURVE",
"76 311 OFFCURVE",
"73 367 CURVE",
"53 367 LINE",
"53 0 LINE",
"71 0 LINE",
"71 27 OFFCURVE",
"78 35 OFFCURVE",
"93 35 CURVE SMOOTH",
"129 35 OFFCURVE",
"211 -27 OFFCURVE",
"336 -27 CURVE SMOOTH"
);
}
);
width = 694;
},
{
anchors = (
{
name = bottom;
position = "{298, 0}";
},
{
name = top;
position = "{283, 1400}";
}
);
layerId = "2224527B-843E-45D0-ACBE-AC9678FC6685";
paths = (
{
closed = 1;
nodes = (
"448 -27 OFFCURVE",
"501 95 OFFCURVE",
"501 278 CURVE SMOOTH",
"501 458 OFFCURVE",
"388 636 OFFCURVE",
"283 789 CURVE SMOOTH",
"152 980 OFFCURVE",
"141 1060 OFFCURVE",
"141 1178 CURVE SMOOTH",
"141 1295 OFFCURVE",
"192 1360 OFFCURVE",
"274 1360 CURVE SMOOTH",
"365 1360 OFFCURVE",
"410 1256 OFFCURVE",
"415 1135 CURVE",
"475 1135 LINE",
"475 1400 LINE",
"427 1400 LINE",
"427 1368 OFFCURVE",
"419 1353 OFFCURVE",
"405 1353 CURVE SMOOTH",
"383 1353 OFFCURVE",
"367 1422 OFFCURVE",
"272 1422 CURVE SMOOTH",
"155 1422 OFFCURVE",
"74 1318 OFFCURVE",
"74 1158 CURVE SMOOTH",
"74 1047 OFFCURVE",
"106 914 OFFCURVE",
"252 715 CURVE SMOOTH",
"343 591 OFFCURVE",
"434 435 OFFCURVE",
"434 284 CURVE SMOOTH",
"434 142 OFFCURVE",
"414 36 OFFCURVE",
"301 36 CURVE SMOOTH",
"200 36 OFFCURVE",
"136 149 OFFCURVE",
"129 267 CURVE",
"69 267 LINE",
"69 0 LINE",
"117 0 LINE",
"117 33 OFFCURVE",
"123 53 OFFCURVE",
"135 53 CURVE SMOOTH",
"162 53 OFFCURVE",
"199 -27 OFFCURVE",
"297 -27 CURVE SMOOTH"
);
}
);
width = 549;
},
{
anchors = (
{
name = bottom;
position = "{375, 0}";
},
{
name = top;
position = "{371, 1400}";
}
);
layerId = "42FCB8D3-5141-4304-9365-2E27830BD286";
paths = (
{
closed = 1;
nodes = (
"504 -27 OFFCURVE",
"673 40 OFFCURVE",
"673 351 CURVE SMOOTH",
"673 531 OFFCURVE",
"622 665 OFFCURVE",
"473 827 CURVE SMOOTH",
"338 974 OFFCURVE",
"244 1111 OFFCURVE",
"244 1207 CURVE SMOOTH",
"244 1289 OFFCURVE",
"278 1340 OFFCURVE",
"345 1340 CURVE SMOOTH",
"487 1340 OFFCURVE",
"549 1107 OFFCURVE",
"555 1035 CURVE",
"635 1035 LINE",
"635 1400 LINE",
"556 1400 LINE",
"554 1355 OFFCURVE",
"545 1344 OFFCURVE",
"527 1344 CURVE SMOOTH",
"489 1344 OFFCURVE",
"469 1422 OFFCURVE",
"340 1422 CURVE SMOOTH",
"198 1422 OFFCURVE",
"58 1302 OFFCURVE",
"58 1065 CURVE SMOOTH",
"58 905 OFFCURVE",
"97 759 OFFCURVE",
"258 558 CURVE SMOOTH",
"392 391 OFFCURVE",
"475 284 OFFCURVE",
"475 173 CURVE SMOOTH",
"475 91 OFFCURVE",
"445 56 OFFCURVE",
"375 56 CURVE SMOOTH",
"213 56 OFFCURVE",
"142 311 OFFCURVE",
"138 367 CURVE",
"58 367 LINE",
"58 0 LINE",
"136 0 LINE",
"136 40 OFFCURVE",
"145 60 OFFCURVE",
"167 60 CURVE SMOOTH",
"209 60 OFFCURVE",
"216 -27 OFFCURVE",
"378 -27 CURVE SMOOTH"
);
}
);
width = 730;
}
);
leftKerningGroup = S;
rightKerningGroup = S;
unicode = 0053;
},
{
color = 3;
glyphname = Scedilla;
lastChange = "2020-11-04 12:52:45 +0000";
layers = (
{
components = (
{
name = cedillacomb.case;
transform = "{1, 0, 0, 1, 3, -5}";
}
);
layerId = "798A1B98-D718-4469-8D5D-1F04921BF637";
paths = (
{
closed = 1;
nodes = (
"437 -27 OFFCURVE",
"493 136 OFFCURVE",
"493 289 CURVE SMOOTH",
"493 469 OFFCURVE",
"384 636 OFFCURVE",
"278 789 CURVE SMOOTH",
"147 978 OFFCURVE",
"120 1091 OFFCURVE",
"120 1193 CURVE SMOOTH",
"120 1338 OFFCURVE",
"198 1400 OFFCURVE",
"273 1400 CURVE SMOOTH",
"384 1400 OFFCURVE",
"424 1275 OFFCURVE",
"431 1135 CURVE",
"451 1135 LINE",
"451 1400 LINE",
"433 1400 LINE",
"431 1378 OFFCURVE",
"427 1373 OFFCURVE",
"418 1373 CURVE SMOOTH",
"400 1373 OFFCURVE",
"356 1422 OFFCURVE",
"267 1422 CURVE SMOOTH",
"151 1422 OFFCURVE",
"69 1318 OFFCURVE",
"69 1158 CURVE SMOOTH",
"69 1045 OFFCURVE",
"101 936 OFFCURVE",
"247 720 CURVE SMOOTH",
"333 593 OFFCURVE",
"440 415 OFFCURVE",
"440 258 CURVE SMOOTH",
"440 142 OFFCURVE",
"423 -4 OFFCURVE",
"275 -4 CURVE SMOOTH",
"181 -4 OFFCURVE",
"101 120 OFFCURVE",
"94 267 CURVE",
"74 267 LINE",
"74 0 LINE",
"92 0 LINE",
"92 27 OFFCURVE",
"97 35 OFFCURVE",
"108 35 CURVE SMOOTH",
"134 35 OFFCURVE",
"194 -27 OFFCURVE",
"277 -27 CURVE SMOOTH"
);
}
);
width = 542;
},
{
components = (
{
name = cedillacomb.case;
transform = "{1, 0, 0, 1, 74, -5}";
}
);
layerId = "A4F0BE09-87B8-499B-8BA0-E8BD95093B86";
paths = (
{
closed = 1;
nodes = (
"440 -27 OFFCURVE",
"655 40 OFFCURVE",
"655 351 CURVE SMOOTH",
"655 531 OFFCURVE",
"591 671 OFFCURVE",
"455 827 CURVE SMOOTH",
"317 985 OFFCURVE",
"230 1085 OFFCURVE",
"230 1238 CURVE SMOOTH",
"230 1356 OFFCURVE",
"262 1400 OFFCURVE",
"327 1400 CURVE SMOOTH",
"469 1400 OFFCURVE",
"560 1107 OFFCURVE",
"567 1035 CURVE",
"587 1035 LINE",
"587 1400 LINE",
"569 1400 LINE",
"569 1375 OFFCURVE",
"560 1367 OFFCURVE",
"540 1367 CURVE SMOOTH",
"504 1367 OFFCURVE",
"422 1422 OFFCURVE",
"331 1422 CURVE SMOOTH",
"204 1422 OFFCURVE",
"39 1319 OFFCURVE",
"39 1046 CURVE SMOOTH",
"39 890 OFFCURVE",
"90 752 OFFCURVE",
"240 558 CURVE SMOOTH",
"367 393 OFFCURVE",
"456 271 OFFCURVE",
"456 153 CURVE SMOOTH",
"456 37 OFFCURVE",
"409 -4 OFFCURVE",
"338 -4 CURVE SMOOTH",
"176 -4 OFFCURVE",
"76 311 OFFCURVE",
"73 367 CURVE",
"53 367 LINE",
"53 0 LINE",
"71 0 LINE",
"71 27 OFFCURVE",
"78 35 OFFCURVE",
"93 35 CURVE SMOOTH",
"129 35 OFFCURVE",
"211 -27 OFFCURVE",
"336 -27 CURVE SMOOTH"
);
}
);
width = 694;
},
{
components = (
{
name = cedillacomb.case;
transform = "{1, 0, 0, 1, 7, 0}";
}
);
layerId = "2224527B-843E-45D0-ACBE-AC9678FC6685";
paths = (
{
closed = 1;
nodes = (
"448 -27 OFFCURVE",
"501 95 OFFCURVE",
"501 278 CURVE SMOOTH",
"501 458 OFFCURVE",
"388 636 OFFCURVE",
"283 789 CURVE SMOOTH",
"152 980 OFFCURVE",
"141 1060 OFFCURVE",
"141 1178 CURVE SMOOTH",
"141 1295 OFFCURVE",
"192 1360 OFFCURVE",
"274 1360 CURVE SMOOTH",
"365 1360 OFFCURVE",
"410 1256 OFFCURVE",
"415 1135 CURVE",
"475 1135 LINE",
"475 1400 LINE",
"427 1400 LINE",
"427 1368 OFFCURVE",
"419 1353 OFFCURVE",
"405 1353 CURVE SMOOTH",
"383 1353 OFFCURVE",
"367 1422 OFFCURVE",
"272 1422 CURVE SMOOTH",
"155 1422 OFFCURVE",
"74 1318 OFFCURVE",
"74 1158 CURVE SMOOTH",
"74 1047 OFFCURVE",
"106 914 OFFCURVE",
"252 715 CURVE SMOOTH",
"343 591 OFFCURVE",
"434 435 OFFCURVE",
"434 284 CURVE SMOOTH",
"434 142 OFFCURVE",
"414 36 OFFCURVE",
"301 36 CURVE SMOOTH",
"200 36 OFFCURVE",
"136 149 OFFCURVE",
"129 267 CURVE",
"69 267 LINE",
"69 0 LINE",
"117 0 LINE",
"117 33 OFFCURVE",
"123 53 OFFCURVE",
"135 53 CURVE SMOOTH",
"162 53 OFFCURVE",
"199 -27 OFFCURVE",
"297 -27 CURVE SMOOTH"
);
}
);
width = 549;
},
{
components = (
{
name = cedillacomb.case;
transform = "{1, 0, 0, 1, 80, 0}";
}
);
layerId = "42FCB8D3-5141-4304-9365-2E27830BD286";
paths = (
{
closed = 1;
nodes = (
"504 -27 OFFCURVE",
"673 40 OFFCURVE",
"673 351 CURVE SMOOTH",
"673 531 OFFCURVE",
"622 665 OFFCURVE",
"473 827 CURVE SMOOTH",
"338 974 OFFCURVE",
"244 1111 OFFCURVE",
"244 1207 CURVE SMOOTH",
"244 1289 OFFCURVE",
"278 1340 OFFCURVE",
"345 1340 CURVE SMOOTH",
"487 1340 OFFCURVE",
"549 1107 OFFCURVE",
"555 1035 CURVE",
"635 1035 LINE",
"635 1400 LINE",
"556 1400 LINE",
"554 1355 OFFCURVE",
"545 1344 OFFCURVE",
"527 1344 CURVE SMOOTH",
"489 1344 OFFCURVE",
"469 1422 OFFCURVE",
"340 1422 CURVE SMOOTH",
"198 1422 OFFCURVE",
"58 1302 OFFCURVE",
"58 1065 CURVE SMOOTH",
"58 905 OFFCURVE",
"97 759 OFFCURVE",
"258 558 CURVE SMOOTH",
"392 391 OFFCURVE",
"475 284 OFFCURVE",
"475 173 CURVE SMOOTH",
"475 91 OFFCURVE",
"445 56 OFFCURVE",
"375 56 CURVE SMOOTH",
"213 56 OFFCURVE",
"142 311 OFFCURVE",
"138 367 CURVE",
"58 367 LINE",
"58 0 LINE",
"136 0 LINE",
"136 40 OFFCURVE",
"145 60 OFFCURVE",
"167 60 CURVE SMOOTH",
"209 60 OFFCURVE",
"216 -27 OFFCURVE",
"378 -27 CURVE SMOOTH"
);
}
);
width = 730;
}
);
unicode = 015E;
},
{
color = 6;
glyphname = Germandbls;
lastChange = "2020-11-04 12:52:33 +0000";
layers = (
{
layerId = "798A1B98-D718-4469-8D5D-1F04921BF637";
paths = (
{
closed = 1;
nodes = (
"585 -24 OFFCURVE",
"662 104 OFFCURVE",
"662 311 CURVE SMOOTH",
"662 591 OFFCURVE",
"367 836 OFFCURVE",
"367 904 CURVE SMOOTH",
"367 956 OFFCURVE",
"566 1251 OFFCURVE",
"689 1407 CURVE",
"675 1424 LINE",
"369 1424 LINE",
"220 1424 OFFCURVE",
"156 1379 OFFCURVE",
"156 1123 CURVE SMOOTH",
"156 20 LINE",
"60 20 LINE",
"60 0 LINE",
"215 0 LINE",
"215 1161 LINE SMOOTH",
"215 1315 OFFCURVE",
"255 1407 OFFCURVE",
"373 1407 CURVE",
"668 1407 LINE",
"560 1264 OFFCURVE",
"335 950 OFFCURVE",
"335 888 CURVE SMOOTH",
"335 777 OFFCURVE",
"613 575 OFFCURVE",
"613 307 CURVE SMOOTH",
"613 116 OFFCURVE",
"569 -7 OFFCURVE",
"456 -7 CURVE SMOOTH",
"425 -7 OFFCURVE",
"407 2 OFFCURVE",
"407 18 CURVE SMOOTH",
"407 38 OFFCURVE",
"436 60 OFFCURVE",
"436 93 CURVE SMOOTH",
"436 129 OFFCURVE",
"416 142 OFFCURVE",
"393 142 CURVE SMOOTH",
"371 142 OFFCURVE",
"353 122 OFFCURVE",
"353 87 CURVE SMOOTH",
"353 15 OFFCURVE",
"391 -24 OFFCURVE",
"464 -24 CURVE SMOOTH"
);
}
);
width = 738;
},
{
layerId = "A4F0BE09-87B8-499B-8BA0-E8BD95093B86";
paths = (
{
closed = 1;
nodes = (
"764 -22 OFFCURVE",
"916 73 OFFCURVE",
"916 322 CURVE SMOOTH",
"916 665 OFFCURVE",
"524 735 OFFCURVE",
"524 884 CURVE SMOOTH",
"524 980 OFFCURVE",
"774 1260 OFFCURVE",
"925 1400 CURVE",
"910 1424 LINE",
"511 1424 LINE",
"265 1424 OFFCURVE",
"80 1222 OFFCURVE",
"80 911 CURVE SMOOTH",
"80 20 LINE",
"24 20 LINE",
"24 0 LINE",
"395 0 LINE",
"395 1016 LINE SMOOTH",
"395 1220 OFFCURVE",
"395 1404 OFFCURVE",
"524 1404 CURVE",
"894 1404 LINE",
"764 1292 OFFCURVE",
"458 978 OFFCURVE",
"458 838 CURVE SMOOTH",
"458 639 OFFCURVE",
"678 545 OFFCURVE",
"678 209 CURVE SMOOTH",
"678 104 OFFCURVE",
"664 -4 OFFCURVE",
"600 -4 CURVE SMOOTH",
"573 -4 OFFCURVE",
"553 4 OFFCURVE",
"553 33 CURVE SMOOTH",
"553 87 OFFCURVE",
"615 115 OFFCURVE",
"615 184 CURVE SMOOTH",
"615 238 OFFCURVE",
"585 276 OFFCURVE",
"535 276 CURVE SMOOTH",
"476 276 OFFCURVE",
"442 222 OFFCURVE",
"442 145 CURVE SMOOTH",
"442 35 OFFCURVE",
"527 -22 OFFCURVE",
"607 -22 CURVE SMOOTH"
);
}
);
width = 964;
},
{
layerId = "2224527B-843E-45D0-ACBE-AC9678FC6685";
paths = (
{
closed = 1;
nodes = (
"585 -24 OFFCURVE",
"671 104 OFFCURVE",
"671 311 CURVE SMOOTH",
"671 591 OFFCURVE",
"395 835 OFFCURVE",
"395 903 CURVE SMOOTH",
"395 955 OFFCURVE",
"582 1215 OFFCURVE",
"698 1371 CURVE",
"662 1424 LINE",
"387 1424 LINE",
"238 1424 OFFCURVE",
"165 1379 OFFCURVE",
"165 1123 CURVE SMOOTH",
"165 61 LINE",
"60 61 LINE",
"60 0 LINE",
"224 0 LINE",
"224 1134 LINE SMOOTH",
"224 1316 OFFCURVE",
"264 1371 OFFCURVE",
"382 1371 CURVE",
"632 1371 LINE",
"524 1227 OFFCURVE",
"335 968 OFFCURVE",
"335 897 CURVE SMOOTH",
"335 786 OFFCURVE",
"613 575 OFFCURVE",
"613 307 CURVE SMOOTH",
"613 125 OFFCURVE",
"551 33 OFFCURVE",
"465 33 CURVE SMOOTH",
"435 33 OFFCURVE",
"428 54 OFFCURVE",
"428 70 CURVE SMOOTH",
"428 90 OFFCURVE",
"445 100 OFFCURVE",
"445 133 CURVE SMOOTH",
"445 169 OFFCURVE",
"425 182 OFFCURVE",
"402 182 CURVE SMOOTH",
"380 182 OFFCURVE",
"356 168 OFFCURVE",
"356 120 CURVE SMOOTH",
"356 25 OFFCURVE",
"392 -24 OFFCURVE",
"464 -24 CURVE SMOOTH"
);
}
);
width = 746;
},
{
layerId = "42FCB8D3-5141-4304-9365-2E27830BD286";
paths = (
{
closed = 1;
nodes = (
"818 -22 OFFCURVE",
"971 73 OFFCURVE",
"971 322 CURVE SMOOTH",
"971 682 OFFCURVE",
"624 735 OFFCURVE",
"624 865 CURVE SMOOTH",
"624 953 OFFCURVE",
"863 1205 OFFCURVE",
"997 1345 CURVE",
"955 1424 LINE",
"565 1424 LINE",
"320 1424 OFFCURVE",
"135 1222 OFFCURVE",
"135 911 CURVE SMOOTH",
"135 75 LINE",
"42 75 LINE",
"42 0 LINE",
"449 0 LINE",
"449 1016 LINE SMOOTH",
"449 1220 OFFCURVE",
"450 1349 OFFCURVE",
"578 1349 CURVE",
"894 1349 LINE",
"782 1237 OFFCURVE",
"513 967 OFFCURVE",
"513 829 CURVE SMOOTH",
"513 630 OFFCURVE",
"733 588 OFFCURVE",
"733 228 CURVE SMOOTH",
"733 123 OFFCURVE",
"718 51 OFFCURVE",
"655 51 CURVE SMOOTH",
"638 51 OFFCURVE",
"626 62 OFFCURVE",
"626 78 CURVE SMOOTH",
"626 105 OFFCURVE",
"669 115 OFFCURVE",
"669 184 CURVE SMOOTH",
"669 238 OFFCURVE",
"640 276 OFFCURVE",
"589 276 CURVE SMOOTH",
"531 276 OFFCURVE",
"496 222 OFFCURVE",
"496 145 CURVE SMOOTH",
"496 35 OFFCURVE",
"582 -22 OFFCURVE",
"662 -22 CURVE SMOOTH"
);
}
);
width = 1054;
}
);
leftKerningGroup = H;
leftMetricsKey = H;
rightKerningGroup = S;
rightMetricsKey = S;
unicode = 1E9E;
},
{
color = 6;
glyphname = Schwa;
lastChange = "2020-11-04 12:52:33 +0000";
layers = (
{
anchors = (
{
name = bottom;
position = "{309, -16}";
},
{
name = ogonek;
position = "{157, 1394}";
},
{
name = top;
position = "{273, 1401}";
}
);
layerId = "798A1B98-D718-4469-8D5D-1F04921BF637";
paths = (
{
closed = 1;
nodes = (
"473 -22 OFFCURVE",
"578 234 OFFCURVE",
"578 689 CURVE SMOOTH",
"578 1022 OFFCURVE",
"529 1431 OFFCURVE",
"298 1431 CURVE SMOOTH",
"180 1431 OFFCURVE",
"101 1342 OFFCURVE",
"64 1231 CURVE",
"85 1219 LINE",
"109 1307 OFFCURVE",
"180 1411 OFFCURVE",
"293 1411 CURVE SMOOTH",
"487 1411 OFFCURVE",
"513 985 OFFCURVE",
"513 647 CURVE SMOOTH",
"513 222 OFFCURVE",
"424 -2 OFFCURVE",
"303 -2 CURVE SMOOTH",
"175 -2 OFFCURVE",
"125 264 OFFCURVE",
"125 640 CURVE",
"520 640 LINE",
"520 667 LINE",
"62 667 LINE",
"60 643 OFFCURVE",
"60 618 OFFCURVE",
"60 592 CURVE SMOOTH",
"60 314 OFFCURVE",
"111 -22 OFFCURVE",
"303 -22 CURVE SMOOTH"
);
},
{
closed = 1;
nodes = (
"85 1219 LINE",
"101 1297 LINE",
"92 1297 OFFCURVE",
"85 1340 OFFCURVE",
"85 1400 CURVE",
"64 1400 LINE",
"64 1219 LINE"
);
}
);
width = 638;
},
{
anchors = (
{
name = bottom;
position = "{454, -17}";
},
{
name = ogonek;
position = "{294, 1396}";
},
{
name = top;
position = "{386, 1401}";
}
);
layerId = "A4F0BE09-87B8-499B-8BA0-E8BD95093B86";
paths = (
{
closed = 1;
nodes = (
"645 -25 OFFCURVE",
"859 153 OFFCURVE",
"859 687 CURVE SMOOTH",
"859 1127 OFFCURVE",
"739 1428 OFFCURVE",
"429 1428 CURVE SMOOTH",
"215 1428 OFFCURVE",
"112 1316 OFFCURVE",
"67 1225 CURVE",
"83 1216 LINE",
"120 1305 OFFCURVE",
"235 1405 OFFCURVE",
"378 1405 CURVE SMOOTH",
"533 1405 OFFCURVE",
"535 1157 OFFCURVE",
"535 702 CURVE SMOOTH",
"535 216 OFFCURVE",
"503 -5 OFFCURVE",
"449 -5 CURVE SMOOTH",
"395 -5 OFFCURVE",
"375 215 OFFCURVE",
"375 721 CURVE",
"560 721 LINE",
"560 741 LINE",
"54 741 LINE",
"51 703 OFFCURVE",
"50 675 OFFCURVE",
"50 639 CURVE SMOOTH",
"50 195 OFFCURVE",
"200 -25 OFFCURVE",
"449 -25 CURVE SMOOTH"
);
},
{
closed = 1;
nodes = (
"83 1216 LINE",
"103 1285 LINE",
"84 1285 OFFCURVE",
"84 1331 OFFCURVE",
"84 1400 CURVE",
"53 1400 LINE",
"53 1216 LINE"
);
}
);
width = 909;
},
{
anchors = (
{
name = bottom;
position = "{288, -15}";
},
{
name = ogonek;
position = "{141, 1394}";
},
{
name = top;
position = "{256, 1401}";
}
);
layerId = "2224527B-843E-45D0-ACBE-AC9678FC6685";
paths = (
{
closed = 1;
nodes = (
"458 -25 OFFCURVE",
"539 252 OFFCURVE",
"539 689 CURVE SMOOTH",
"539 1019 OFFCURVE",
"514 1431 OFFCURVE",
"288 1431 CURVE SMOOTH",
"196 1431 OFFCURVE",
"113 1345 OFFCURVE",
"77 1241 CURVE",
"134 1211 LINE",
"148 1268 OFFCURVE",
"193 1371 OFFCURVE",
"288 1371 CURVE SMOOTH",
"451 1371 OFFCURVE",
"476 985 OFFCURVE",
"476 647 CURVE SMOOTH",
"476 303 OFFCURVE",
"406 35 OFFCURVE",
"286 35 CURVE SMOOTH",
"158 35 OFFCURVE",
"131 320 OFFCURVE",
"131 661 CURVE",
"493 661 LINE",
"493 721 LINE",
"67 721 LINE",
"66 685 OFFCURVE",
"66 646 OFFCURVE",
"66 607 CURVE SMOOTH",
"66 312 OFFCURVE",
"104 -25 OFFCURVE",
"286 -25 CURVE SMOOTH"
);
},
{
closed = 1;
nodes = (
"134 1211 LINE",
"138 1316 LINE",
"128 1316 OFFCURVE",
"118 1368 OFFCURVE",
"118 1400 CURVE",
"60 1400 LINE",
"60 1211 LINE"
);
}
);
width = 599;
},
{
anchors = (
{
name = bottom;
position = "{487, -17}";
},
{
name = ogonek;
position = "{327, 1396}";
},
{
name = top;
position = "{418, 1401}";
}
);
layerId = "42FCB8D3-5141-4304-9365-2E27830BD286";
paths = (
{
closed = 1;
nodes = (
"660 -25 OFFCURVE",
"915 153 OFFCURVE",
"915 687 CURVE SMOOTH",
"915 1214 OFFCURVE",
"738 1428 OFFCURVE",
"470 1428 CURVE SMOOTH",
"291 1428 OFFCURVE",
"149 1314 OFFCURVE",
"103 1225 CURVE",
"187 1165 LINE",
"225 1236 OFFCURVE",
"312 1337 OFFCURVE",
"443 1337 CURVE SMOOTH",
"571 1337 OFFCURVE",
"591 1194 OFFCURVE",
"591 702 CURVE SMOOTH",
"591 216 OFFCURVE",
"541 55 OFFCURVE",
"480 55 CURVE SMOOTH",
"421 55 OFFCURVE",
"388 245 OFFCURVE",
"388 723 CURVE",
"611 723 LINE",
"611 803 LINE",
"73 803 LINE",
"70 765 OFFCURVE",
"68 729 OFFCURVE",
"68 693 CURVE SMOOTH",
"68 198 OFFCURVE",
"254 -25 OFFCURVE",
"480 -25 CURVE SMOOTH"
);
},
{
closed = 1;
nodes = (
"187 1165 LINE",
"180 1299 LINE",
"156 1299 OFFCURVE",
"154 1350 OFFCURVE",
"154 1400 CURVE",
"73 1400 LINE",
"73 1165 LINE"
);
}
);
width = 969;
}
);
leftKerningGroup = O;
leftMetricsKey = O;
rightKerningGroup = O;
rightMetricsKey = O;
unicode = 018F;
},
{
color = 6;
glyphname = T;
lastChange = "2020-11-04 12:52:33 +0000";
layers = (
{
anchors = (
{
name = bottom;
position = "{315, 0}";
},
{
name = center;
position = "{315, 720}";
},
{
name = top;
position = "{322, 1420}";
}
);
layerId = "798A1B98-D718-4469-8D5D-1F04921BF637";
paths = (
{
closed = 1;
nodes = (
"440 0 LINE",
"440 20 LINE",
"345 20 LINE",
"345 1380 LINE",
"447 1380 LINE SMOOTH",
"545 1380 OFFCURVE",
"562 1313 OFFCURVE",
"562 1156 CURVE",
"582 1156 LINE",
"582 1400 LINE",
"49 1400 LINE",
"49 1156 LINE",
"69 1156 LINE",
"69 1313 OFFCURVE",
"85 1380 OFFCURVE",
"184 1380 CURVE SMOOTH",
"285 1380 LINE",
"285 20 LINE",
"196 20 LINE",
"196 0 LINE"
);
}
);
width = 631;
},
{
anchors = (
{
name = bottom;
position = "{405, 0}";
},
{
name = center;
position = "{407, 700}";
},
{
name = top;
position = "{404, 1400}";
}
);
layerId = "A4F0BE09-87B8-499B-8BA0-E8BD95093B86";
paths = (
{
closed = 1;
nodes = (
"649 0 LINE",
"649 20 LINE",
"555 20 LINE",
"555 1380 LINE",
"556 1380 LINE SMOOTH",
"675 1380 OFFCURVE",
"751 1198 OFFCURVE",
"751 1036 CURVE",
"771 1036 LINE",
"771 1400 LINE",
"40 1400 LINE",
"40 1036 LINE",
"60 1036 LINE",
"60 1198 OFFCURVE",
"136 1380 OFFCURVE",
"255 1380 CURVE SMOOTH",
"256 1380 LINE",
"256 20 LINE",
"167 20 LINE",
"167 0 LINE"
);
}
);
width = 810;
},
{
anchors = (
{
name = bottom;
position = "{323, 0}";
},
{
name = center;
position = "{323, 720}";
},
{
name = top;
position = "{331, 1420}";
}
);
layerId = "2224527B-843E-45D0-ACBE-AC9678FC6685";
paths = (
{
closed = 1;
nodes = (
"469 0 LINE",
"469 60 LINE",
"355 60 LINE",
"355 1340 LINE",
"469 1340 LINE SMOOTH",
"551 1340 OFFCURVE",
"551 1318 OFFCURVE",
"551 1156 CURVE",
"611 1156 LINE",
"611 1400 LINE",
"38 1400 LINE",
"38 1156 LINE",
"98 1156 LINE",
"98 1318 OFFCURVE",
"98 1340 OFFCURVE",
"180 1340 CURVE SMOOTH",
"295 1340 LINE",
"295 60 LINE",
"185 60 LINE",
"185 0 LINE"
);
}
);
width = 649;
},
{
anchors = (
{
name = bottom;
position = "{434, 0}";
},
{
name = center;
position = "{438, 700}";
},
{
name = top;
position = "{431, 1400}";
}
);
layerId = "42FCB8D3-5141-4304-9365-2E27830BD286";
paths = (
{
closed = 1;
nodes = (
"705 0 LINE",
"705 80 LINE",
"582 80 LINE",
"582 1320 LINE",
"584 1320 LINE SMOOTH",
"722 1320 OFFCURVE",
"747 1229 OFFCURVE",
"747 1036 CURVE",
"827 1036 LINE",
"827 1400 LINE",
"38 1400 LINE",
"38 1036 LINE",
"118 1036 LINE",
"118 1229 OFFCURVE",
"144 1320 OFFCURVE",
"282 1320 CURVE SMOOTH",
"284 1320 LINE",
"284 80 LINE",
"164 80 LINE",
"164 0 LINE"
);
}
);
width = 865;
}
);
leftKerningGroup = T;
rightKerningGroup = T;
unicode = 0054;
},
{
color = 3;
glyphname = Tbar;
lastChange = "2020-11-04 12:52:45 +0000";
layers = (
{
components = (
{
name = T;
}
);
layerId = "798A1B98-D718-4469-8D5D-1F04921BF637";
paths = (
{
closed = 1;
nodes = (
"509 691 LINE",
"509 711 LINE",
"127 711 LINE",
"127 691 LINE"
);
}
);
width = 631;
},
{
components = (
{
name = T;
}
);
layerId = "A4F0BE09-87B8-499B-8BA0-E8BD95093B86";
paths = (
{
closed = 1;
nodes = (
"715 691 LINE",
"715 711 LINE",
"97 711 LINE",
"97 691 LINE"
);
}
);
width = 810;
},
{
components = (
{
name = T;
}
);
layerId = "2224527B-843E-45D0-ACBE-AC9678FC6685";
paths = (
{
closed = 1;
nodes = (
"519 669 LINE",
"519 729 LINE",
"137 729 LINE",
"137 669 LINE"
);
}
);
width = 649;
},
{
components = (
{
name = T;
}
);
layerId = "42FCB8D3-5141-4304-9365-2E27830BD286";
paths = (
{
closed = 1;
nodes = (
"748 663 LINE",
"748 743 LINE",
"108 743 LINE",
"108 663 LINE"
);
}
);
width = 865;
}
);
unicode = 0166;
},
{
color = 6;
glyphname = U;
lastChange = "2020-11-04 12:52:33 +0000";
layers = (
{
anchors = (
{
name = bottom;
position = "{336, 0}";
},
{
name = ogonek;
position = "{463, 20}";
},
{
name = top;
position = "{342, 1400}";
},
{
name = topright;
position = "{627, 1400}";
}
);
layerId = "798A1B98-D718-4469-8D5D-1F04921BF637";
paths = (
{
closed = 1;
nodes = (
"431 -24 OFFCURVE",
"533 29 OFFCURVE",
"533 216 CURVE SMOOTH",
"533 1380 LINE",
"627 1380 LINE",
"627 1400 LINE",
"429 1400 LINE",
"429 1380 LINE",
"511 1380 LINE",
"511 216 LINE SMOOTH",
"511 56 OFFCURVE",
"427 9 OFFCURVE",
"345 9 CURVE SMOOTH",
"247 9 OFFCURVE",
"193 82 OFFCURVE",
"193 282 CURVE SMOOTH",
"193 1380 LINE",
"285 1380 LINE",
"285 1400 LINE",
"40 1400 LINE",
"40 1380 LINE",
"133 1380 LINE",
"133 276 LINE SMOOTH",
"133 22 OFFCURVE",
"238 -24 OFFCURVE",
"336 -24 CURVE SMOOTH"
);
}
);
width = 667;
},
{
anchors = (
{
name = bottom;
position = "{418, 0}";
},
{
name = ogonek;
position = "{579, 13}";
},
{
name = top;
position = "{436, 1400}";
},
{
name = topright;
position = "{784, 1400}";
}
);
layerId = "A4F0BE09-87B8-499B-8BA0-E8BD95093B86";
paths = (
{
closed = 1;
nodes = (
"569 -24 OFFCURVE",
"691 20 OFFCURVE",
"691 329 CURVE SMOOTH",
"691 1380 LINE",
"784 1380 LINE",
"784 1400 LINE",
"578 1400 LINE",
"578 1380 LINE",
"669 1380 LINE",
"669 304 LINE SMOOTH",
"669 44 OFFCURVE",
"555 9 OFFCURVE",
"509 9 CURVE SMOOTH",
"431 9 OFFCURVE",
"420 140 OFFCURVE",
"420 340 CURVE SMOOTH",
"420 1380 LINE",
"502 1380 LINE",
"502 1400 LINE",
"20 1400 LINE",
"20 1380 LINE",
"115 1380 LINE",
"115 355 LINE SMOOTH",
"115 29 OFFCURVE",
"307 -24 OFFCURVE",
"418 -24 CURVE SMOOTH"
);
}
);
width = 814;
},
{
anchors = (
{
name = bottom;
position = "{340, 0}";
},
{
name = ogonek;
position = "{467, 20}";
},
{
name = top;
position = "{340, 1400}";
},
{
name = topright;
position = "{647, 1400}";
}
);
layerId = "2224527B-843E-45D0-ACBE-AC9678FC6685";
paths = (
{
closed = 1;
nodes = (
"451 -24 OFFCURVE",
"553 49 OFFCURVE",
"553 282 CURVE SMOOTH",
"553 1340 LINE",
"647 1340 LINE",
"647 1400 LINE",
"411 1400 LINE",
"411 1340 LINE",
"493 1340 LINE",
"493 296 LINE SMOOTH",
"493 96 OFFCURVE",
"427 38 OFFCURVE",
"342 38 CURVE SMOOTH",
"258 38 OFFCURVE",
"193 96 OFFCURVE",
"193 296 CURVE SMOOTH",
"193 1340 LINE",
"285 1340 LINE",
"285 1400 LINE",
"38 1400 LINE",
"38 1340 LINE",
"133 1340 LINE",
"133 282 LINE SMOOTH",
"133 49 OFFCURVE",
"235 -24 OFFCURVE",
"342 -24 CURVE SMOOTH"
);
}
);
width = 685;
},
{
anchors = (
{
name = bottom;
position = "{471, 0}";
},
{
name = ogonek;
position = "{637, 18}";
},
{
name = top;
position = "{456, 1400}";
},
{
name = topright;
position = "{835, 1400}";
}
);
layerId = "42FCB8D3-5141-4304-9365-2E27830BD286";
paths = (
{
closed = 1;
nodes = (
"642 -24 OFFCURVE",
"740 51 OFFCURVE",
"740 298 CURVE SMOOTH",
"740 1320 LINE",
"835 1320 LINE",
"835 1400 LINE",
"569 1400 LINE",
"569 1320 LINE",
"658 1320 LINE",
"658 304 LINE SMOOTH",
"658 122 OFFCURVE",
"607 78 OFFCURVE",
"551 78 CURVE SMOOTH",
"471 78 OFFCURVE",
"440 160 OFFCURVE",
"440 340 CURVE SMOOTH",
"440 1320 LINE",
"553 1320 LINE",
"553 1400 LINE",
"35 1400 LINE",
"35 1320 LINE",
"135 1320 LINE",
"135 355 LINE SMOOTH",
"135 29 OFFCURVE",
"327 -24 OFFCURVE",
"469 -24 CURVE SMOOTH"
);
}
);
width = 868;
}
);
leftKerningGroup = U;
rightKerningGroup = U;
unicode = 0055;
},
{
color = 3;
glyphname = Ubar;
lastChange = "2020-11-04 12:52:45 +0000";
layers = (
{
components = (
{
name = U;
}
);
layerId = "798A1B98-D718-4469-8D5D-1F04921BF637";
paths = (
{
closed = 1;
nodes = (
"691 856 LINE",
"691 876 LINE",
"84 876 LINE",
"84 856 LINE"
);
}
);
width = 707;
},
{
components = (
{
name = U;
}
);
layerId = "A4F0BE09-87B8-499B-8BA0-E8BD95093B86";
paths = (
{
closed = 1;
nodes = (
"762 856 LINE",
"762 876 LINE",
"75 876 LINE",
"75 856 LINE"
);
}
);
width = 814;
},
{
components = (
{
name = U;
}
);
layerId = "2224527B-843E-45D0-ACBE-AC9678FC6685";
paths = (
{
closed = 1;
nodes = (
"680 836 LINE",
"680 896 LINE",
"73 896 LINE",
"73 836 LINE"
);
}
);
width = 725;
},
{
components = (
{
name = U;
}
);
layerId = "42FCB8D3-5141-4304-9365-2E27830BD286";
paths = (
{
closed = 1;
nodes = (
"809 827 LINE",
"809 907 LINE",
"82 907 LINE",
"82 827 LINE"
);
}
);
width = 868;
}
);
leftKerningGroup = Ubar;
rightKerningGroup = Ubar;
unicode = 0244;
},
{
color = 3;
glyphname = Uhorn;
lastChange = "2020-11-04 12:52:45 +0000";
layers = (
{
anchors = (
{
name = bottom;
position = "{334, 0}";
},
{
name = top;
position = "{334, 1400}";
}
);
components = (
{
name = horncomb.case;
transform = "{1, 0, 0, 1, 311, 0}";
}
);
layerId = "798A1B98-D718-4469-8D5D-1F04921BF637";
paths = (
{
closed = 1;
nodes = (
"431 -24 OFFCURVE",
"533 29 OFFCURVE",
"533 216 CURVE SMOOTH",
"533 1380 LINE",
"547 1380 LINE",
"547 1400 LINE",
"429 1400 LINE",
"429 1380 LINE",
"511 1380 LINE",
"511 216 LINE SMOOTH",
"511 56 OFFCURVE",
"427 9 OFFCURVE",
"345 9 CURVE SMOOTH",
"247 9 OFFCURVE",
"193 82 OFFCURVE",
"193 282 CURVE SMOOTH",
"193 1380 LINE",
"285 1380 LINE",
"285 1400 LINE",
"40 1400 LINE",
"40 1380 LINE",
"133 1380 LINE",
"133 276 LINE SMOOTH",
"133 22 OFFCURVE",
"238 -24 OFFCURVE",
"336 -24 CURVE SMOOTH"
);
}
);
width = 667;
},
{
anchors = (
{
name = bottom;
position = "{407, 0}";
},
{
name = top;
position = "{407, 1400}";
}
);
components = (
{
name = horncomb.case;
transform = "{1, 0, 0, 1, 478, 0}";
}
);
layerId = "A4F0BE09-87B8-499B-8BA0-E8BD95093B86";
paths = (
{
closed = 1;
nodes = (
"569 -24 OFFCURVE",
"691 20 OFFCURVE",
"691 329 CURVE SMOOTH",
"691 1380 LINE",
"714 1380 LINE",
"714 1400 LINE",
"578 1400 LINE",
"578 1380 LINE",
"669 1380 LINE",
"669 304 LINE SMOOTH",
"669 44 OFFCURVE",
"555 9 OFFCURVE",
"509 9 CURVE SMOOTH",
"431 9 OFFCURVE",
"420 140 OFFCURVE",
"420 340 CURVE SMOOTH",
"420 1380 LINE",
"502 1380 LINE",
"502 1400 LINE",
"20 1400 LINE",
"20 1380 LINE",
"115 1380 LINE",
"115 355 LINE SMOOTH",
"115 29 OFFCURVE",
"307 -24 OFFCURVE",
"418 -24 CURVE SMOOTH"
);
}
);
width = 814;
},
{
anchors = (
{
name = bottom;
position = "{343, 0}";
},
{
name = top;
position = "{343, 1400}";
}
);
components = (
{
name = horncomb.case;
transform = "{1, 0, 0, 1, 341, 0}";
}
);
layerId = "2224527B-843E-45D0-ACBE-AC9678FC6685";
paths = (
{
closed = 1;
nodes = (
"451 -24 OFFCURVE",
"553 49 OFFCURVE",
"553 282 CURVE SMOOTH",
"553 1340 LINE",
"577 1340 LINE",
"577 1400 LINE",
"411 1400 LINE",
"411 1340 LINE",
"493 1340 LINE",
"493 296 LINE SMOOTH",
"493 96 OFFCURVE",
"427 38 OFFCURVE",
"342 38 CURVE SMOOTH",
"258 38 OFFCURVE",
"193 96 OFFCURVE",
"193 296 CURVE SMOOTH",
"193 1340 LINE",
"285 1340 LINE",
"285 1400 LINE",
"38 1400 LINE",
"38 1340 LINE",
"133 1340 LINE",
"133 282 LINE SMOOTH",
"133 49 OFFCURVE",
"235 -24 OFFCURVE",
"342 -24 CURVE SMOOTH"
);
}
);
width = 685;
},
{
anchors = (
{
name = bottom;
position = "{434, 0}";
},
{
name = top;
position = "{434, 1400}";
}
);
components = (
{
name = horncomb.case;
transform = "{1, 0, 0, 1, 512, 0}";
}
);
layerId = "42FCB8D3-5141-4304-9365-2E27830BD286";
paths = (
{
closed = 1;
nodes = (
"642 -24 OFFCURVE",
"740 51 OFFCURVE",
"740 298 CURVE SMOOTH",
"740 1320 LINE",
"748 1320 LINE",
"748 1400 LINE",
"569 1400 LINE",
"569 1320 LINE",
"658 1320 LINE",
"658 304 LINE SMOOTH",
"658 122 OFFCURVE",
"607 78 OFFCURVE",
"551 78 CURVE SMOOTH",
"471 78 OFFCURVE",
"440 160 OFFCURVE",
"440 340 CURVE SMOOTH",
"440 1320 LINE",
"553 1320 LINE",
"553 1400 LINE",
"35 1400 LINE",
"35 1320 LINE",
"135 1320 LINE",
"135 355 LINE SMOOTH",
"135 29 OFFCURVE",
"327 -24 OFFCURVE",
"469 -24 CURVE SMOOTH"
);
}
);
width = 868;
}
);
unicode = 01AF;
},
{
color = 3;
glyphname = Uogonek;
lastChange = "2020-11-04 12:52:45 +0000";
layers = (
{
components = (
{
name = ogonekcomb.case;
transform = "{1, 0, 0, 1, 125, 20}";
}
);
layerId = "798A1B98-D718-4469-8D5D-1F04921BF637";
paths = (
{
closed = 1;
nodes = (
"431 -24 OFFCURVE",
"533 29 OFFCURVE",
"533 216 CURVE SMOOTH",
"533 1380 LINE",
"627 1380 LINE",
"627 1400 LINE",
"429 1400 LINE",
"429 1380 LINE",
"511 1380 LINE",
"511 216 LINE SMOOTH",
"511 56 OFFCURVE",
"427 9 OFFCURVE",
"345 9 CURVE SMOOTH",
"247 9 OFFCURVE",
"193 82 OFFCURVE",
"193 282 CURVE SMOOTH",
"193 1380 LINE",
"285 1380 LINE",
"285 1400 LINE",
"40 1400 LINE",
"40 1380 LINE",
"133 1380 LINE",
"133 276 LINE SMOOTH",
"133 22 OFFCURVE",
"238 -24 OFFCURVE",
"336 -24 CURVE SMOOTH"
);
}
);
width = 667;
},
{
components = (
{
name = ogonekcomb.case;
transform = "{1, 0, 0, 1, 269, 13}";
}
);
layerId = "A4F0BE09-87B8-499B-8BA0-E8BD95093B86";
paths = (
{
closed = 1;
nodes = (
"569 -24 OFFCURVE",
"691 20 OFFCURVE",
"691 329 CURVE SMOOTH",
"691 1380 LINE",
"784 1380 LINE",
"784 1400 LINE",
"578 1400 LINE",
"578 1380 LINE",
"669 1380 LINE",
"669 304 LINE SMOOTH",
"669 44 OFFCURVE",
"555 9 OFFCURVE",
"509 9 CURVE SMOOTH",
"431 9 OFFCURVE",
"420 140 OFFCURVE",
"420 340 CURVE SMOOTH",
"420 1380 LINE",
"502 1380 LINE",
"502 1400 LINE",
"20 1400 LINE",
"20 1380 LINE",
"115 1380 LINE",
"115 355 LINE SMOOTH",
"115 29 OFFCURVE",
"307 -24 OFFCURVE",
"418 -24 CURVE SMOOTH"
);
}
);
width = 814;
},
{
components = (
{
name = ogonekcomb.case;
transform = "{1, 0, 0, 1, 131, 20}";
}
);
layerId = "2224527B-843E-45D0-ACBE-AC9678FC6685";
paths = (
{
closed = 1;
nodes = (
"451 -24 OFFCURVE",
"553 49 OFFCURVE",
"553 282 CURVE SMOOTH",
"553 1340 LINE",
"647 1340 LINE",
"647 1400 LINE",
"411 1400 LINE",
"411 1340 LINE",
"493 1340 LINE",
"493 296 LINE SMOOTH",
"493 96 OFFCURVE",
"427 38 OFFCURVE",
"342 38 CURVE SMOOTH",
"258 38 OFFCURVE",
"193 96 OFFCURVE",
"193 296 CURVE SMOOTH",
"193 1340 LINE",
"285 1340 LINE",
"285 1400 LINE",
"38 1400 LINE",
"38 1340 LINE",
"133 1340 LINE",
"133 282 LINE SMOOTH",
"133 49 OFFCURVE",
"235 -24 OFFCURVE",
"342 -24 CURVE SMOOTH"
);
}
);
width = 685;
},
{
components = (
{
name = ogonekcomb.case;
transform = "{1, 0, 0, 1, 281, 18}";
}
);
layerId = "42FCB8D3-5141-4304-9365-2E27830BD286";
paths = (
{
closed = 1;
nodes = (
"642 -24 OFFCURVE",
"740 51 OFFCURVE",
"740 298 CURVE SMOOTH",
"740 1320 LINE",
"835 1320 LINE",
"835 1400 LINE",
"569 1400 LINE",
"569 1320 LINE",
"658 1320 LINE",
"658 304 LINE SMOOTH",
"658 122 OFFCURVE",
"607 78 OFFCURVE",
"551 78 CURVE SMOOTH",
"471 78 OFFCURVE",
"440 160 OFFCURVE",
"440 340 CURVE SMOOTH",
"440 1320 LINE",
"553 1320 LINE",
"553 1400 LINE",
"35 1400 LINE",
"35 1320 LINE",
"135 1320 LINE",
"135 355 LINE SMOOTH",
"135 29 OFFCURVE",
"327 -24 OFFCURVE",
"469 -24 CURVE SMOOTH"
);
}
);
width = 868;
}
);
unicode = 0172;
},
{
color = 6;
glyphname = V;
lastChange = "2020-11-04 12:52:33 +0000";
layers = (
{
anchors = (
{
name = bottom;
position = "{327, 0}";
},
{
name = top;
position = "{327, 1400}";
}
);
layerId = "798A1B98-D718-4469-8D5D-1F04921BF637";
paths = (
{
closed = 1;
nodes = (
"329 -4 LINE",
"513 1380 LINE",
"605 1380 LINE",
"605 1400 LINE",
"405 1400 LINE",
"405 1380 LINE",
"493 1380 LINE",
"338 213 LINE",
"345 213 LINE",
"164 1380 LINE",
"249 1380 LINE",
"249 1400 LINE",
"20 1400 LINE",
"20 1380 LINE",
"100 1380 LINE",
"318 -4 LINE"
);
}
);
width = 625;
},
{
anchors = (
{
name = bottom;
position = "{369, 0}";
},
{
name = top;
position = "{369, 1400}";
}
);
layerId = "A4F0BE09-87B8-499B-8BA0-E8BD95093B86";
paths = (
{
closed = 1;
nodes = (
"391 0 LINE",
"624 1380 LINE",
"716 1380 LINE",
"716 1400 LINE",
"535 1400 LINE",
"535 1380 LINE",
"600 1380 LINE",
"487 724 LINE",
"500 724 LINE",
"395 1380 LINE",
"476 1380 LINE",
"476 1400 LINE",
"-24 1400 LINE",
"-24 1380 LINE",
"71 1380 LINE",
"320 0 LINE"
);
}
);
width = 706;
},
{
anchors = (
{
name = bottom;
position = "{336, 0}";
},
{
name = top;
position = "{336, 1400}";
}
);
layerId = "2224527B-843E-45D0-ACBE-AC9678FC6685";
paths = (
{
closed = 1;
nodes = (
"365 -4 LINE",
"533 1340 LINE",
"631 1340 LINE",
"631 1400 LINE",
"376 1400 LINE",
"376 1340 LINE",
"467 1340 LINE",
"316 87 LINE",
"318 87 LINE",
"160 1340 LINE",
"240 1340 LINE",
"240 1400 LINE",
"18 1400 LINE",
"18 1340 LINE",
"98 1340 LINE",
"273 -4 LINE"
);
}
);
width = 644;
},
{
anchors = (
{
name = bottom;
position = "{396, 0}";
},
{
name = top;
position = "{396, 1400}";
}
);
layerId = "42FCB8D3-5141-4304-9365-2E27830BD286";
paths = (
{
closed = 1;
nodes = (
"447 0 LINE",
"680 1320 LINE",
"760 1320 LINE",
"760 1400 LINE",
"515 1400 LINE",
"515 1320 LINE",
"591 1320 LINE",
"489 724 LINE",
"515 724 LINE",
"422 1320 LINE",
"502 1320 LINE",
"502 1400 LINE",
"9 1400 LINE",
"9 1320 LINE",
"98 1320 LINE",
"335 0 LINE"
);
}
);
width = 761;
}
);
leftKerningGroup = V;
rightKerningGroup = V;
unicode = 0056;
},
{
color = 6;
glyphname = W;
lastChange = "2020-11-04 12:52:33 +0000";
layers = (
{
anchors = (
{
name = bottom;
position = "{485, 0}";
},
{
name = top;
position = "{485, 1400}";
}
);
layerId = "798A1B98-D718-4469-8D5D-1F04921BF637";
paths = (
{
closed = 1;
nodes = (
"309 -4 LINE",
"489 1193 LINE",
"482 1193 LINE",
"669 -4 LINE",
"682 -4 LINE",
"845 1380 LINE",
"958 1380 LINE",
"958 1400 LINE",
"718 1400 LINE",
"718 1380 LINE",
"825 1380 LINE",
"689 213 LINE",
"698 213 LINE",
"516 1380 LINE",
"625 1380 LINE",
"625 1400 LINE",
"356 1400 LINE",
"356 1380 LINE",
"451 1380 LINE",
"478 1211 LINE",
"478 1262 LINE",
"318 213 LINE",
"325 213 LINE",
"184 1380 LINE",
"287 1380 LINE",
"287 1400 LINE",
"20 1400 LINE",
"20 1380 LINE",
"120 1380 LINE",
"298 -4 LINE"
);
}
);
width = 976;
},
{
anchors = (
{
name = bottom;
position = "{638, 0}";
},
{
name = top;
position = "{638, 1400}";
}
);
layerId = "A4F0BE09-87B8-499B-8BA0-E8BD95093B86";
paths = (
{
closed = 1;
nodes = (
"400 0 LINE",
"629 1116 LINE",
"613 1096 LINE",
"820 0 LINE",
"882 0 LINE",
"1124 1380 LINE",
"1215 1380 LINE",
"1215 1400 LINE",
"1031 1400 LINE",
"1031 1380 LINE",
"1102 1380 LINE",
"969 627 LINE",
"1009 796 LINE",
"895 1380 LINE",
"976 1380 LINE",
"976 1400 LINE",
"496 1400 LINE",
"496 1380 LINE",
"553 1380 LINE",
"618 1067 LINE",
"613 1162 LINE",
"507 602 LINE",
"555 773 LINE",
"433 1380 LINE",
"496 1380 LINE",
"496 1400 LINE",
"-20 1400 LINE",
"-20 1380 LINE",
"71 1380 LINE",
"338 0 LINE"
);
}
);
width = 1194;
},
{
anchors = (
{
name = bottom;
position = "{495, 0}";
},
{
name = top;
position = "{495, 1400}";
}
);
layerId = "2224527B-843E-45D0-ACBE-AC9678FC6685";
paths = (
{
closed = 1;
nodes = (
"360 -4 LINE",
"515 1213 LINE",
"493 1193 LINE",
"647 -4 LINE",
"733 -4 LINE",
"878 1340 LINE",
"967 1340 LINE",
"967 1400 LINE",
"727 1400 LINE",
"727 1340 LINE",
"811 1340 LINE",
"689 73 LINE",
"696 73 LINE",
"531 1340 LINE",
"635 1340 LINE",
"635 1400 LINE",
"360 1400 LINE",
"360 1340 LINE",
"467 1340 LINE",
"487 1211 LINE",
"471 1342 LINE",
"316 73 LINE",
"325 73 LINE",
"198 1340 LINE",
"298 1340 LINE",
"298 1400 LINE",
"29 1400 LINE",
"29 1340 LINE",
"135 1340 LINE",
"275 -4 LINE"
);
}
);
width = 976;
},
{
anchors = (
{
name = bottom;
position = "{666, 0}";
},
{
name = top;
position = "{666, 1400}";
}
);
layerId = "42FCB8D3-5141-4304-9365-2E27830BD286";
paths = (
{
closed = 1;
nodes = (
"449 0 LINE",
"691 1144 LINE",
"647 1053 LINE",
"838 0 LINE",
"940 0 LINE",
"1176 1320 LINE",
"1256 1320 LINE",
"1256 1400 LINE",
"1011 1400 LINE",
"1011 1320 LINE",
"1089 1320 LINE",
"969 656 LINE",
"998 758 LINE",
"924 1320 LINE",
"993 1320 LINE",
"993 1400 LINE",
"524 1400 LINE",
"524 1320 LINE",
"591 1320 LINE",
"646 1067 LINE",
"620 1247 LINE",
"495 633 LINE",
"536 735 LINE",
"453 1320 LINE",
"506 1320 LINE",
"506 1400 LINE",
"0 1400 LINE",
"0 1320 LINE",
"100 1320 LINE",
"347 0 LINE"
);
}
);
width = 1248;
}
);
leftKerningGroup = W;
rightKerningGroup = W;
unicode = 0057;
},
{
color = 6;
glyphname = X;
lastChange = "2020-11-04 12:52:33 +0000";
layers = (
{
anchors = (
{
name = bottom;
position = "{349, 0}";
},
{
name = top;
position = "{349, 1400}";
}
);
layerId = "798A1B98-D718-4469-8D5D-1F04921BF637";
paths = (
{
closed = 1;
nodes = (
"658 0 LINE",
"658 20 LINE",
"573 20 LINE",
"193 1380 LINE",
"278 1380 LINE",
"278 1400 LINE",
"49 1400 LINE",
"49 1380 LINE",
"131 1380 LINE",
"511 20 LINE",
"420 20 LINE",
"420 0 LINE"
);
},
{
closed = 1;
nodes = (
"238 0 LINE",
"238 20 LINE",
"140 20 LINE",
"356 700 LINE",
"342 727 LINE",
"116 20 LINE",
"20 20 LINE",
"20 0 LINE"
);
},
{
closed = 1;
nodes = (
"571 1380 LINE",
"662 1380 LINE",
"662 1400 LINE",
"453 1400 LINE",
"453 1380 LINE",
"547 1380 LINE",
"349 753 LINE",
"364 727 LINE"
);
}
);
width = 680;
},
{
anchors = (
{
name = bottom;
position = "{436, 0}";
},
{
name = top;
position = "{436, 1400}";
}
);
layerId = "A4F0BE09-87B8-499B-8BA0-E8BD95093B86";
paths = (
{
closed = 1;
nodes = (
"847 0 LINE",
"847 20 LINE",
"782 20 LINE",
"402 1380 LINE",
"467 1380 LINE",
"467 1400 LINE",
"11 1400 LINE",
"11 1380 LINE",
"73 1380 LINE",
"453 20 LINE",
"380 20 LINE",
"380 0 LINE"
);
},
{
closed = 1;
nodes = (
"233 0 LINE",
"233 20 LINE",
"151 20 LINE",
"378 622 LINE",
"362 642 LINE",
"129 20 LINE",
"35 20 LINE",
"35 0 LINE"
);
},
{
closed = 1;
nodes = (
"676 1380 LINE",
"767 1380 LINE",
"767 1400 LINE",
"578 1400 LINE",
"578 1380 LINE",
"655 1380 LINE",
"433 793 LINE",
"449 771 LINE"
);
}
);
width = 856;
},
{
anchors = (
{
name = bottom;
position = "{358, 0}";
},
{
name = top;
position = "{358, 1400}";
}
);
layerId = "2224527B-843E-45D0-ACBE-AC9678FC6685";
paths = (
{
closed = 1;
nodes = (
"665 0 LINE",
"665 60 LINE",
"571 60 LINE",
"213 1340 LINE",
"305 1340 LINE",
"305 1400 LINE",
"58 1400 LINE",
"58 1340 LINE",
"149 1340 LINE",
"507 60 LINE",
"413 60 LINE",
"413 0 LINE"
);
},
{
closed = 1;
nodes = (
"273 0 LINE",
"273 60 LINE",
"180 60 LINE",
"384 693 LINE",
"329 733 LINE",
"116 60 LINE",
"20 60 LINE",
"20 0 LINE"
);
},
{
closed = 1;
nodes = (
"587 1340 LINE",
"680 1340 LINE",
"680 1400 LINE",
"431 1400 LINE",
"431 1340 LINE",
"524 1340 LINE",
"338 747 LINE",
"385 698 LINE"
);
}
);
width = 698;
},
{
anchors = (
{
name = bottom;
position = "{449, 0}";
},
{
name = top;
position = "{449, 1400}";
}
);
layerId = "42FCB8D3-5141-4304-9365-2E27830BD286";
paths = (
{
closed = 1;
nodes = (
"860 0 LINE",
"860 80 LINE",
"778 80 LINE",
"435 1320 LINE",
"540 1320 LINE",
"540 1400 LINE",
"20 1400 LINE",
"20 1320 LINE",
"104 1320 LINE",
"447 80 LINE",
"335 80 LINE",
"335 0 LINE"
);
},
{
closed = 1;
nodes = (
"276 0 LINE",
"276 80 LINE",
"189 80 LINE",
"395 622 LINE",
"309 642 LINE",
"100 80 LINE",
"15 80 LINE",
"15 0 LINE"
);
},
{
closed = 1;
nodes = (
"731 1320 LINE",
"809 1320 LINE",
"809 1400 LINE",
"562 1400 LINE",
"562 1320 LINE",
"640 1320 LINE",
"440 793 LINE",
"524 771 LINE"
);
}
);
width = 881;
}
);
leftKerningGroup = X;
rightKerningGroup = X;
unicode = 0058;
},
{
color = 6;
glyphname = Y;
lastChange = "2020-11-04 12:52:33 +0000";
layers = (
{
anchors = (
{
name = bottom;
position = "{311, 0}";
},
{
name = top;
position = "{311, 1400}";
},
{
name = topleft;
position = "{49, 1400}";
}
);
layerId = "798A1B98-D718-4469-8D5D-1F04921BF637";
paths = (
{
closed = 1;
nodes = (
"427 0 LINE",
"427 20 LINE",
"344 20 LINE",
"344 589 LINE",
"520 1380 LINE",
"602 1380 LINE",
"602 1400 LINE",
"404 1400 LINE",
"404 1380 LINE",
"498 1380 LINE",
"327 618 LINE",
"338 618 LINE",
"171 1380 LINE",
"256 1380 LINE",
"256 1400 LINE",
"20 1400 LINE",
"20 1380 LINE",
"102 1380 LINE",
"284 589 LINE",
"284 20 LINE",
"191 20 LINE",
"191 0 LINE"
);
}
);
width = 620;
},
{
anchors = (
{
name = bottom;
position = "{420, 0}";
},
{
name = top;
position = "{420, 1400}";
},
{
name = topleft;
position = "{40, 1400}";
}
);
layerId = "A4F0BE09-87B8-499B-8BA0-E8BD95093B86";
paths = (
{
closed = 1;
nodes = (
"662 0 LINE",
"662 20 LINE",
"578 20 LINE",
"578 640 LINE",
"769 1380 LINE",
"851 1380 LINE",
"851 1400 LINE",
"673 1400 LINE",
"673 1380 LINE",
"747 1380 LINE",
"560 667 LINE",
"575 667 LINE",
"409 1380 LINE",
"473 1380 LINE",
"473 1400 LINE",
"-20 1400 LINE",
"-20 1380 LINE",
"73 1380 LINE",
"278 587 LINE",
"278 20 LINE",
"187 20 LINE",
"187 0 LINE"
);
}
);
width = 840;
},
{
anchors = (
{
name = bottom;
position = "{320, 0}";
},
{
name = top;
position = "{320, 1400}";
},
{
name = topleft;
position = "{58, 1400}";
}
);
layerId = "2224527B-843E-45D0-ACBE-AC9678FC6685";
paths = (
{
closed = 1;
nodes = (
"436 0 LINE",
"436 60 LINE",
"353 60 LINE",
"353 589 LINE",
"540 1340 LINE",
"631 1340 LINE",
"631 1400 LINE",
"402 1400 LINE",
"402 1340 LINE",
"476 1340 LINE",
"307 618 LINE",
"347 618 LINE",
"191 1340 LINE",
"265 1340 LINE",
"265 1400 LINE",
"29 1400 LINE",
"29 1340 LINE",
"118 1340 LINE",
"293 589 LINE",
"293 60 LINE",
"200 60 LINE",
"200 0 LINE"
);
}
);
width = 638;
},
{
anchors = (
{
name = bottom;
position = "{447, 0}";
},
{
name = top;
position = "{447, 1400}";
},
{
name = topleft;
position = "{67, 1400}";
}
);
layerId = "42FCB8D3-5141-4304-9365-2E27830BD286";
paths = (
{
closed = 1;
nodes = (
"720 0 LINE",
"720 80 LINE",
"605 80 LINE",
"605 640 LINE",
"782 1320 LINE",
"878 1320 LINE",
"878 1400 LINE",
"609 1400 LINE",
"609 1320 LINE",
"696 1320 LINE",
"527 667 LINE",
"602 667 LINE",
"451 1320 LINE",
"529 1320 LINE",
"529 1400 LINE",
"16 1400 LINE",
"16 1320 LINE",
"116 1320 LINE",
"305 587 LINE",
"305 80 LINE",
"193 80 LINE",
"193 0 LINE"
);
}
);
width = 895;
}
);
leftKerningGroup = Y;
rightKerningGroup = Y;
unicode = 0059;
},
{
color = 6;
glyphname = Z;
lastChange = "2020-11-04 12:52:33 +0000";
layers = (
{
anchors = (
{
name = bottom;
position = "{280, 0}";
},
{
name = center;
position = "{280, 700}";
},
{
name = top;
position = "{280, 1400}";
}
);
layerId = "798A1B98-D718-4469-8D5D-1F04921BF637";
paths = (
{
closed = 1;
nodes = (
"469 0 LINE",
"469 247 LINE",
"449 247 LINE",
"449 84 OFFCURVE",
"425 20 OFFCURVE",
"287 20 CURVE SMOOTH",
"124 20 LINE",
"471 1380 LINE",
"471 1400 LINE",
"78 1400 LINE",
"78 1156 LINE",
"98 1156 LINE",
"98 1318 OFFCURVE",
"122 1380 OFFCURVE",
"278 1380 CURVE SMOOTH",
"409 1380 LINE",
"69 20 LINE",
"69 0 LINE"
);
}
);
width = 540;
},
{
anchors = (
{
name = bottom;
position = "{380, 0}";
},
{
name = center;
position = "{380, 700}";
},
{
name = top;
position = "{380, 1400}";
}
);
layerId = "A4F0BE09-87B8-499B-8BA0-E8BD95093B86";
paths = (
{
closed = 1;
nodes = (
"684 0 LINE",
"684 367 LINE",
"664 367 LINE",
"664 204 OFFCURVE",
"535 20 OFFCURVE",
"396 20 CURVE SMOOTH",
"371 20 LINE",
"687 1380 LINE",
"687 1400 LINE",
"60 1400 LINE",
"60 1036 LINE",
"80 1036 LINE",
"80 1198 OFFCURVE",
"200 1380 OFFCURVE",
"356 1380 CURVE SMOOTH",
"378 1380 LINE",
"62 20 LINE",
"62 0 LINE"
);
}
);
width = 746;
},
{
anchors = (
{
name = bottom;
position = "{289, 0}";
},
{
name = center;
position = "{289, 700}";
},
{
name = top;
position = "{289, 1400}";
}
);
layerId = "2224527B-843E-45D0-ACBE-AC9678FC6685";
paths = (
{
closed = 1;
nodes = (
"498 0 LINE",
"498 247 LINE",
"438 247 LINE",
"438 84 OFFCURVE",
"433 60 OFFCURVE",
"296 60 CURVE SMOOTH",
"122 60 LINE",
"480 1342 LINE",
"480 1400 LINE",
"67 1400 LINE",
"67 1156 LINE",
"127 1156 LINE",
"127 1318 OFFCURVE",
"135 1340 OFFCURVE",
"287 1340 CURVE SMOOTH",
"409 1340 LINE",
"58 60 LINE",
"58 0 LINE"
);
}
);
width = 558;
},
{
anchors = (
{
name = bottom;
position = "{407, 0}";
},
{
name = center;
position = "{407, 700}";
},
{
name = top;
position = "{407, 1400}";
}
);
layerId = "42FCB8D3-5141-4304-9365-2E27830BD286";
paths = (
{
closed = 1;
nodes = (
"742 0 LINE",
"742 367 LINE",
"662 367 LINE",
"662 204 OFFCURVE",
"565 80 OFFCURVE",
"424 80 CURVE SMOOTH",
"384 80 LINE",
"715 1320 LINE",
"715 1400 LINE",
"87 1400 LINE",
"87 1036 LINE",
"167 1036 LINE",
"167 1198 OFFCURVE",
"196 1320 OFFCURVE",
"355 1320 CURVE SMOOTH",
"391 1320 LINE",
"60 80 LINE",
"60 0 LINE"
);
}
);
width = 801;
}
);
leftKerningGroup = Z;
rightKerningGroup = Z;
unicode = 005A;
},
{
color = 6;
glyphname = a;
lastChange = "2020-11-04 12:52:33 +0000";
layers = (
{
anchors = (
{
name = bottom;
position = "{289, 0}";
},
{
name = ogonek;
position = "{527, 13}";
},
{
name = top;
position = "{256, 1047}";
}
);
layerId = "798A1B98-D718-4469-8D5D-1F04921BF637";
paths = (
{
closed = 1;
nodes = (
"311 -20 OFFCURVE",
"367 47 OFFCURVE",
"382 89 CURVE",
"384 13 OFFCURVE",
"422 -9 OFFCURVE",
"460 -9 CURVE SMOOTH",
"485 -9 OFFCURVE",
"513 2 OFFCURVE",
"527 13 CURVE",
"516 31 LINE",
"507 24 OFFCURVE",
"489 15 OFFCURVE",
"473 15 CURVE SMOOTH",
"453 15 OFFCURVE",
"433 27 OFFCURVE",
"433 73 CURVE SMOOTH",
"433 716 LINE SMOOTH",
"433 931 OFFCURVE",
"382 1053 OFFCURVE",
"260 1053 CURVE SMOOTH",
"147 1053 OFFCURVE",
"80 924 OFFCURVE",
"80 802 CURVE SMOOTH",
"80 762 OFFCURVE",
"84 738 OFFCURVE",
"109 738 CURVE SMOOTH",
"136 738 OFFCURVE",
"140 762 OFFCURVE",
"140 793 CURVE SMOOTH",
"140 824 OFFCURVE",
"129 852 OFFCURVE",
"129 895 CURVE SMOOTH",
"129 960 OFFCURVE",
"191 1031 OFFCURVE",
"260 1031 CURVE SMOOTH",
"351 1031 OFFCURVE",
"373 884 OFFCURVE",
"373 722 CURVE SMOOTH",
"373 547 OFFCURVE",
"60 535 OFFCURVE",
"60 216 CURVE SMOOTH",
"60 35 OFFCURVE",
"145 -20 OFFCURVE",
"238 -20 CURVE SMOOTH"
);
},
{
closed = 1;
nodes = (
"151 2 OFFCURVE",
"127 91 OFFCURVE",
"127 235 CURVE SMOOTH",
"127 476 OFFCURVE",
"367 573 OFFCURVE",
"373 649 CURVE",
"373 131 LINE SMOOTH",
"373 73 OFFCURVE",
"311 2 OFFCURVE",
"245 2 CURVE SMOOTH"
);
}
);
width = 547;
},
{
anchors = (
{
name = bottom;
position = "{444, 0}";
},
{
name = ogonek;
position = "{864, 24}";
},
{
name = top;
position = "{424, 1047}";
}
);
layerId = "A4F0BE09-87B8-499B-8BA0-E8BD95093B86";
paths = (
{
closed = 1;
nodes = (
"429 -22 OFFCURVE",
"462 67 OFFCURVE",
"467 122 CURVE",
"469 22 OFFCURVE",
"580 -20 OFFCURVE",
"695 -20 CURVE SMOOTH",
"795 -20 OFFCURVE",
"853 7 OFFCURVE",
"864 24 CURVE",
"853 42 LINE",
"844 31 OFFCURVE",
"820 18 OFFCURVE",
"802 18 CURVE SMOOTH",
"773 18 OFFCURVE",
"758 51 OFFCURVE",
"758 116 CURVE SMOOTH",
"758 695 LINE SMOOTH",
"758 969 OFFCURVE",
"575 1053 OFFCURVE",
"411 1053 CURVE SMOOTH",
"214 1053 OFFCURVE",
"62 944 OFFCURVE",
"62 782 CURVE SMOOTH",
"62 680 OFFCURVE",
"107 618 OFFCURVE",
"178 618 CURVE SMOOTH",
"251 618 OFFCURVE",
"295 673 OFFCURVE",
"295 755 CURVE SMOOTH",
"295 836 OFFCURVE",
"238 867 OFFCURVE",
"238 924 CURVE SMOOTH",
"238 995 OFFCURVE",
"293 1027 OFFCURVE",
"345 1027 CURVE SMOOTH",
"445 1027 OFFCURVE",
"458 862 OFFCURVE",
"458 720 CURVE SMOOTH",
"458 544 OFFCURVE",
"51 562 OFFCURVE",
"51 236 CURVE SMOOTH",
"51 73 OFFCURVE",
"151 -22 OFFCURVE",
"291 -22 CURVE SMOOTH"
);
},
{
closed = 1;
nodes = (
"364 58 OFFCURVE",
"353 138 OFFCURVE",
"353 275 CURVE SMOOTH",
"353 496 OFFCURVE",
"451 589 OFFCURVE",
"458 664 CURVE",
"458 153 LINE SMOOTH",
"458 115 OFFCURVE",
"438 58 OFFCURVE",
"407 58 CURVE SMOOTH"
);
}
);
width = 872;
},
{
anchors = (
{
name = bottom;
position = "{295, 0}";
},
{
name = ogonek;
position = "{540, 11}";
},
{
name = top;
position = "{260, 1047}";
}
);
layerId = "2224527B-843E-45D0-ACBE-AC9678FC6685";
paths = (
{
closed = 1;
nodes = (
"333 -20 OFFCURVE",
"373 38 OFFCURVE",
"387 80 CURVE",
"387 16 OFFCURVE",
"429 -9 OFFCURVE",
"469 -9 CURVE SMOOTH",
"500 -9 OFFCURVE",
"527 -1 OFFCURVE",
"540 11 CURVE",
"511 65 LINE",
"505 58 OFFCURVE",
"493 51 OFFCURVE",
"475 51 CURVE SMOOTH",
"451 51 OFFCURVE",
"438 64 OFFCURVE",
"438 111 CURVE SMOOTH",
"438 756 LINE SMOOTH",
"438 971 OFFCURVE",
"367 1053 OFFCURVE",
"256 1053 CURVE SMOOTH",
"144 1053 OFFCURVE",
"73 944 OFFCURVE",
"73 802 CURVE SMOOTH",
"73 762 OFFCURVE",
"84 738 OFFCURVE",
"109 738 CURVE SMOOTH",
"136 738 OFFCURVE",
"147 763 OFFCURVE",
"147 794 CURVE SMOOTH",
"147 825 OFFCURVE",
"136 827 OFFCURVE",
"136 865 CURVE SMOOTH",
"136 929 OFFCURVE",
"187 991 OFFCURVE",
"256 991 CURVE SMOOTH",
"349 991 OFFCURVE",
"378 887 OFFCURVE",
"378 731 CURVE SMOOTH",
"378 555 OFFCURVE",
"60 535 OFFCURVE",
"60 236 CURVE SMOOTH",
"60 64 OFFCURVE",
"131 -20 OFFCURVE",
"242 -20 CURVE SMOOTH"
);
},
{
closed = 1;
nodes = (
"167 42 OFFCURVE",
"129 109 OFFCURVE",
"129 236 CURVE SMOOTH",
"129 467 OFFCURVE",
"373 527 OFFCURVE",
"378 602 CURVE",
"378 229 LINE SMOOTH",
"378 171 OFFCURVE",
"333 42 OFFCURVE",
"242 42 CURVE SMOOTH"
);
}
);
width = 550;
},
{
anchors = (
{
name = bottom;
position = "{460, 0}";
},
{
name = ogonek;
position = "{911, 60}";
},
{
name = top;
position = "{440, 1047}";
}
);
layerId = "42FCB8D3-5141-4304-9365-2E27830BD286";
paths = (
{
closed = 1;
nodes = (
"444 -22 OFFCURVE",
"492 70 OFFCURVE",
"499 90 CURVE",
"515 59 OFFCURVE",
"542 -20 OFFCURVE",
"700 -20 CURVE SMOOTH",
"802 -20 OFFCURVE",
"885 24 OFFCURVE",
"911 60 CURVE",
"864 120 LINE",
"855 109 OFFCURVE",
"835 89 OFFCURVE",
"809 89 CURVE SMOOTH",
"785 89 OFFCURVE",
"775 107 OFFCURVE",
"775 182 CURVE SMOOTH",
"775 676 LINE SMOOTH",
"775 951 OFFCURVE",
"629 1063 OFFCURVE",
"425 1063 CURVE SMOOTH",
"222 1063 OFFCURVE",
"78 944 OFFCURVE",
"78 782 CURVE SMOOTH",
"78 680 OFFCURVE",
"125 618 OFFCURVE",
"195 618 CURVE SMOOTH",
"262 618 OFFCURVE",
"309 662 OFFCURVE",
"309 735 CURVE SMOOTH",
"309 816 OFFCURVE",
"255 836 OFFCURVE",
"255 895 CURVE SMOOTH",
"255 935 OFFCURVE",
"297 968 OFFCURVE",
"360 968 CURVE SMOOTH",
"436 968 OFFCURVE",
"475 893 OFFCURVE",
"475 751 CURVE SMOOTH",
"475 575 OFFCURVE",
"45 575 OFFCURVE",
"45 249 CURVE SMOOTH",
"45 84 OFFCURVE",
"165 -22 OFFCURVE",
"305 -22 CURVE SMOOTH"
);
},
{
closed = 1;
nodes = (
"375 109 OFFCURVE",
"347 169 OFFCURVE",
"347 287 CURVE SMOOTH",
"347 509 OFFCURVE",
"465 533 OFFCURVE",
"475 609 CURVE",
"475 242 LINE SMOOTH",
"475 169 OFFCURVE",
"449 109 OFFCURVE",
"411 109 CURVE SMOOTH"
);
}
);
width = 906;
}
);
leftKerningGroup = a;
rightKerningGroup = n;
unicode = 0061;
},
{
color = 3;
glyphname = aogonek;
lastChange = "2020-11-04 12:52:45 +0000";
layers = (
{
components = (
{
name = ogonekcomb;
transform = "{1, 0, 0, 1, 189, 13}";
}
);
layerId = "798A1B98-D718-4469-8D5D-1F04921BF637";
paths = (
{
closed = 1;
nodes = (
"311 -20 OFFCURVE",
"367 47 OFFCURVE",
"382 89 CURVE",
"384 13 OFFCURVE",
"422 -9 OFFCURVE",
"460 -9 CURVE SMOOTH",
"485 -9 OFFCURVE",
"513 2 OFFCURVE",
"527 13 CURVE",
"516 31 LINE",
"507 24 OFFCURVE",
"489 15 OFFCURVE",
"473 15 CURVE SMOOTH",
"453 15 OFFCURVE",
"433 27 OFFCURVE",
"433 73 CURVE SMOOTH",
"433 716 LINE SMOOTH",
"433 931 OFFCURVE",
"382 1053 OFFCURVE",
"260 1053 CURVE SMOOTH",
"147 1053 OFFCURVE",
"80 924 OFFCURVE",
"80 802 CURVE SMOOTH",
"80 762 OFFCURVE",
"84 738 OFFCURVE",
"109 738 CURVE SMOOTH",
"136 738 OFFCURVE",
"140 762 OFFCURVE",
"140 793 CURVE SMOOTH",
"140 824 OFFCURVE",
"129 842 OFFCURVE",
"129 895 CURVE SMOOTH",
"129 960 OFFCURVE",
"191 1031 OFFCURVE",
"260 1031 CURVE SMOOTH",
"351 1031 OFFCURVE",
"373 884 OFFCURVE",
"373 722 CURVE SMOOTH",
"373 547 OFFCURVE",
"60 535 OFFCURVE",
"60 216 CURVE SMOOTH",
"60 35 OFFCURVE",
"145 -20 OFFCURVE",
"238 -20 CURVE SMOOTH"
);
},
{
closed = 1;
nodes = (
"151 2 OFFCURVE",
"127 91 OFFCURVE",
"127 235 CURVE SMOOTH",
"127 476 OFFCURVE",
"367 573 OFFCURVE",
"373 649 CURVE",
"373 131 LINE SMOOTH",
"373 73 OFFCURVE",
"311 2 OFFCURVE",
"245 2 CURVE SMOOTH"
);
}
);
width = 547;
},
{
components = (
{
name = ogonekcomb;
transform = "{1, 0, 0, 1, 554, 24}";
}
);
layerId = "A4F0BE09-87B8-499B-8BA0-E8BD95093B86";
paths = (
{
closed = 1;
nodes = (
"429 -22 OFFCURVE",
"462 67 OFFCURVE",
"467 122 CURVE",
"469 22 OFFCURVE",
"580 -20 OFFCURVE",
"695 -20 CURVE SMOOTH",
"795 -20 OFFCURVE",
"853 7 OFFCURVE",
"864 24 CURVE",
"853 42 LINE",
"844 31 OFFCURVE",
"820 18 OFFCURVE",
"802 18 CURVE SMOOTH",
"773 18 OFFCURVE",
"758 51 OFFCURVE",
"758 116 CURVE SMOOTH",
"758 695 LINE SMOOTH",
"758 969 OFFCURVE",
"575 1053 OFFCURVE",
"411 1053 CURVE SMOOTH",
"214 1053 OFFCURVE",
"62 944 OFFCURVE",
"62 782 CURVE SMOOTH",
"62 680 OFFCURVE",
"107 618 OFFCURVE",
"178 618 CURVE SMOOTH",
"251 618 OFFCURVE",
"295 673 OFFCURVE",
"295 755 CURVE SMOOTH",
"295 836 OFFCURVE",
"238 867 OFFCURVE",
"238 924 CURVE SMOOTH",
"238 995 OFFCURVE",
"293 1027 OFFCURVE",
"345 1027 CURVE SMOOTH",
"445 1027 OFFCURVE",
"458 862 OFFCURVE",
"458 720 CURVE SMOOTH",
"458 544 OFFCURVE",
"51 562 OFFCURVE",
"51 236 CURVE SMOOTH",
"51 73 OFFCURVE",
"151 -22 OFFCURVE",
"291 -22 CURVE SMOOTH"
);
},
{
closed = 1;
nodes = (
"364 58 OFFCURVE",
"353 138 OFFCURVE",
"353 275 CURVE SMOOTH",
"353 496 OFFCURVE",
"451 589 OFFCURVE",
"458 664 CURVE",
"458 153 LINE SMOOTH",
"458 115 OFFCURVE",
"438 58 OFFCURVE",
"407 58 CURVE SMOOTH"
);
}
);
width = 872;
},
{
components = (
{
name = ogonekcomb;
transform = "{1, 0, 0, 1, 204, 11}";
}
);
layerId = "2224527B-843E-45D0-ACBE-AC9678FC6685";
paths = (
{
closed = 1;
nodes = (
"333 -20 OFFCURVE",
"373 38 OFFCURVE",
"387 80 CURVE",
"387 16 OFFCURVE",
"429 -9 OFFCURVE",
"469 -9 CURVE SMOOTH",
"500 -9 OFFCURVE",
"527 -1 OFFCURVE",
"540 11 CURVE",
"511 65 LINE",
"505 58 OFFCURVE",
"493 51 OFFCURVE",
"475 51 CURVE SMOOTH",
"451 51 OFFCURVE",
"438 64 OFFCURVE",
"438 111 CURVE SMOOTH",
"438 756 LINE SMOOTH",
"438 971 OFFCURVE",
"367 1053 OFFCURVE",
"256 1053 CURVE SMOOTH",
"144 1053 OFFCURVE",
"71 935 OFFCURVE",
"71 793 CURVE SMOOTH",
"71 753 OFFCURVE",
"84 729 OFFCURVE",
"109 729 CURVE SMOOTH",
"136 729 OFFCURVE",
"147 753 OFFCURVE",
"147 784 CURVE SMOOTH",
"147 815 OFFCURVE",
"140 827 OFFCURVE",
"140 865 CURVE SMOOTH",
"140 929 OFFCURVE",
"187 991 OFFCURVE",
"256 991 CURVE SMOOTH",
"349 991 OFFCURVE",
"378 887 OFFCURVE",
"378 731 CURVE SMOOTH",
"378 555 OFFCURVE",
"60 535 OFFCURVE",
"60 236 CURVE SMOOTH",
"60 64 OFFCURVE",
"131 -20 OFFCURVE",
"242 -20 CURVE SMOOTH"
);
},
{
closed = 1;
nodes = (
"167 42 OFFCURVE",
"129 109 OFFCURVE",
"129 236 CURVE SMOOTH",
"129 467 OFFCURVE",
"373 527 OFFCURVE",
"378 602 CURVE",
"378 229 LINE SMOOTH",
"378 171 OFFCURVE",
"333 42 OFFCURVE",
"242 42 CURVE SMOOTH"
);
}
);
width = 550;
},
{
components = (
{
name = ogonekcomb;
transform = "{1, 0, 0, 1, 555, 60}";
}
);
layerId = "42FCB8D3-5141-4304-9365-2E27830BD286";
paths = (
{
closed = 1;
nodes = (
"444 -22 OFFCURVE",
"482 40 OFFCURVE",
"489 60 CURVE",
"505 29 OFFCURVE",
"542 -20 OFFCURVE",
"700 -20 CURVE SMOOTH",
"802 -20 OFFCURVE",
"885 24 OFFCURVE",
"911 60 CURVE",
"864 120 LINE",
"855 109 OFFCURVE",
"835 89 OFFCURVE",
"809 89 CURVE SMOOTH",
"785 89 OFFCURVE",
"775 107 OFFCURVE",
"775 182 CURVE SMOOTH",
"775 676 LINE SMOOTH",
"775 951 OFFCURVE",
"629 1063 OFFCURVE",
"425 1063 CURVE SMOOTH",
"222 1063 OFFCURVE",
"78 944 OFFCURVE",
"78 782 CURVE SMOOTH",
"78 680 OFFCURVE",
"125 618 OFFCURVE",
"195 618 CURVE SMOOTH",
"262 618 OFFCURVE",
"309 662 OFFCURVE",
"309 735 CURVE SMOOTH",
"309 816 OFFCURVE",
"255 836 OFFCURVE",
"255 895 CURVE SMOOTH",
"255 935 OFFCURVE",
"297 968 OFFCURVE",
"360 968 CURVE SMOOTH",
"436 968 OFFCURVE",
"475 893 OFFCURVE",
"475 751 CURVE SMOOTH",
"475 575 OFFCURVE",
"45 575 OFFCURVE",
"45 249 CURVE SMOOTH",
"45 84 OFFCURVE",
"165 -22 OFFCURVE",
"305 -22 CURVE SMOOTH"
);
},
{
closed = 1;
nodes = (
"375 109 OFFCURVE",
"347 169 OFFCURVE",
"347 287 CURVE SMOOTH",
"347 509 OFFCURVE",
"465 533 OFFCURVE",
"475 609 CURVE",
"475 242 LINE SMOOTH",
"475 169 OFFCURVE",
"449 109 OFFCURVE",
"411 109 CURVE SMOOTH"
);
}
);
width = 906;
}
);
leftKerningGroup = a;
rightKerningGroup = n;
unicode = 0105;
},
{
color = 3;
glyphname = ae;
lastChange = "2020-11-04 12:52:45 +0000";
layers = (
{
anchors = (
{
name = bottom;
position = "{415, 0}";
},
{
name = top;
position = "{415, 1047}";
}
);
components = (
{
alignment = -1;
name = e;
transform = "{1, 0, 0, 1, 311, 0}";
}
);
layerId = "798A1B98-D718-4469-8D5D-1F04921BF637";
paths = (
{
closed = 1;
nodes = (
"287 -16 OFFCURVE",
"345 40 OFFCURVE",
"364 73 CURVE SMOOTH",
"409 144 OFFCURVE",
"413 191 OFFCURVE",
"413 275 CURVE SMOOTH",
"413 716 LINE SMOOTH",
"413 931 OFFCURVE",
"353 1053 OFFCURVE",
"244 1053 CURVE SMOOTH",
"136 1053 OFFCURVE",
"80 944 OFFCURVE",
"80 822 CURVE SMOOTH",
"80 782 OFFCURVE",
"84 758 OFFCURVE",
"109 758 CURVE SMOOTH",
"135 758 OFFCURVE",
"140 782 OFFCURVE",
"140 813 CURVE SMOOTH",
"140 844 OFFCURVE",
"129 875 OFFCURVE",
"129 915 CURVE SMOOTH",
"129 1009 OFFCURVE",
"196 1031 OFFCURVE",
"242 1031 CURVE SMOOTH",
"332 1031 OFFCURVE",
"353 884 OFFCURVE",
"353 722 CURVE SMOOTH",
"353 547 OFFCURVE",
"60 535 OFFCURVE",
"60 196 CURVE SMOOTH",
"60 73 OFFCURVE",
"120 -16 OFFCURVE",
"216 -16 CURVE SMOOTH"
);
},
{
closed = 1;
nodes = (
"129 7 OFFCURVE",
"127 118 OFFCURVE",
"127 215 CURVE SMOOTH",
"127 456 OFFCURVE",
"347 573 OFFCURVE",
"353 649 CURVE",
"353 133 LINE SMOOTH",
"353 75 OFFCURVE",
"291 7 OFFCURVE",
"225 7 CURVE SMOOTH"
);
}
);
width = 813;
},
{
anchors = (
{
name = bottom;
position = "{623, 0}";
},
{
name = top;
position = "{624, 1047}";
}
);
components = (
{
alignment = -1;
name = e;
transform = "{1, 0, 0, 1, 422, 0}";
}
);
layerId = "A4F0BE09-87B8-499B-8BA0-E8BD95093B86";
paths = (
{
closed = 1;
nodes = (
"503 -22 OFFCURVE",
"605 54 OFFCURVE",
"642 112 CURVE SMOOTH",
"698 199 OFFCURVE",
"708 261 OFFCURVE",
"708 452 CURVE SMOOTH",
"708 695 LINE SMOOTH",
"708 969 OFFCURVE",
"575 1053 OFFCURVE",
"411 1053 CURVE SMOOTH",
"214 1053 OFFCURVE",
"62 944 OFFCURVE",
"62 782 CURVE SMOOTH",
"62 680 OFFCURVE",
"107 618 OFFCURVE",
"178 618 CURVE SMOOTH",
"251 618 OFFCURVE",
"295 673 OFFCURVE",
"295 755 CURVE SMOOTH",
"295 836 OFFCURVE",
"238 867 OFFCURVE",
"238 924 CURVE SMOOTH",
"238 995 OFFCURVE",
"293 1027 OFFCURVE",
"345 1027 CURVE SMOOTH",
"445 1027 OFFCURVE",
"458 862 OFFCURVE",
"458 720 CURVE SMOOTH",
"458 544 OFFCURVE",
"51 562 OFFCURVE",
"51 236 CURVE SMOOTH",
"51 73 OFFCURVE",
"164 -22 OFFCURVE",
"365 -22 CURVE SMOOTH"
);
},
{
closed = 1;
nodes = (
"364 58 OFFCURVE",
"353 138 OFFCURVE",
"353 275 CURVE SMOOTH",
"353 496 OFFCURVE",
"451 589 OFFCURVE",
"458 664 CURVE",
"458 153 LINE SMOOTH",
"458 115 OFFCURVE",
"438 58 OFFCURVE",
"407 58 CURVE SMOOTH"
);
}
);
width = 1205;
},
{
anchors = (
{
name = bottom;
position = "{415, 0}";
},
{
name = top;
position = "{415, 1047}";
}
);
components = (
{
alignment = -1;
name = e;
transform = "{1, 0, 0, 1, 296, 0}";
}
);
layerId = "2224527B-843E-45D0-ACBE-AC9678FC6685";
paths = (
{
closed = 1;
nodes = (
"287 -16 OFFCURVE",
"345 40 OFFCURVE",
"364 73 CURVE SMOOTH",
"406 146 OFFCURVE",
"413 191 OFFCURVE",
"413 275 CURVE SMOOTH",
"413 716 LINE SMOOTH",
"413 931 OFFCURVE",
"353 1053 OFFCURVE",
"244 1053 CURVE SMOOTH",
"136 1053 OFFCURVE",
"80 944 OFFCURVE",
"80 822 CURVE SMOOTH",
"80 782 OFFCURVE",
"89 758 OFFCURVE",
"115 758 CURVE SMOOTH",
"142 758 OFFCURVE",
"151 782 OFFCURVE",
"151 813 CURVE SMOOTH",
"151 844 OFFCURVE",
"145 847 OFFCURVE",
"145 887 CURVE SMOOTH",
"145 960 OFFCURVE",
"196 991 OFFCURVE",
"242 991 CURVE SMOOTH",
"331 991 OFFCURVE",
"353 844 OFFCURVE",
"353 722 CURVE SMOOTH",
"353 547 OFFCURVE",
"60 535 OFFCURVE",
"60 196 CURVE SMOOTH",
"60 73 OFFCURVE",
"120 -16 OFFCURVE",
"216 -16 CURVE SMOOTH"
);
},
{
closed = 1;
nodes = (
"151 47 OFFCURVE",
"127 118 OFFCURVE",
"127 215 CURVE SMOOTH",
"127 456 OFFCURVE",
"347 513 OFFCURVE",
"353 589 CURVE",
"353 233 LINE SMOOTH",
"353 135 OFFCURVE",
"291 47 OFFCURVE",
"225 47 CURVE SMOOTH"
);
}
);
width = 788;
},
{
anchors = (
{
name = bottom;
position = "{673, 0}";
},
{
name = top;
position = "{674, 1047}";
}
);
components = (
{
alignment = -1;
name = e;
transform = "{1, 0, 0, 1, 445, 0}";
}
);
layerId = "42FCB8D3-5141-4304-9365-2E27830BD286";
paths = (
{
closed = 1;
nodes = (
"497 -22 OFFCURVE",
"586 15 OFFCURVE",
"655 84 CURVE SMOOTH",
"716 145 OFFCURVE",
"776 288 OFFCURVE",
"776 522 CURVE SMOOTH",
"776 676 LINE SMOOTH",
"776 951 OFFCURVE",
"629 1063 OFFCURVE",
"425 1063 CURVE SMOOTH",
"222 1063 OFFCURVE",
"78 944 OFFCURVE",
"78 782 CURVE SMOOTH",
"78 680 OFFCURVE",
"125 618 OFFCURVE",
"195 618 CURVE SMOOTH",
"262 618 OFFCURVE",
"309 662 OFFCURVE",
"309 735 CURVE SMOOTH",
"309 816 OFFCURVE",
"255 836 OFFCURVE",
"255 895 CURVE SMOOTH",
"255 935 OFFCURVE",
"297 968 OFFCURVE",
"360 968 CURVE SMOOTH",
"436 968 OFFCURVE",
"475 893 OFFCURVE",
"475 751 CURVE SMOOTH",
"475 575 OFFCURVE",
"45 575 OFFCURVE",
"45 249 CURVE SMOOTH",
"45 84 OFFCURVE",
"130 -22 OFFCURVE",
"358 -22 CURVE SMOOTH"
);
},
{
closed = 1;
nodes = (
"375 109 OFFCURVE",
"347 169 OFFCURVE",
"347 287 CURVE SMOOTH",
"347 509 OFFCURVE",
"465 533 OFFCURVE",
"475 609 CURVE",
"475 242 LINE SMOOTH",
"475 169 OFFCURVE",
"449 109 OFFCURVE",
"411 109 CURVE SMOOTH"
);
}
);
width = 1304;
}
);
leftKerningGroup = a;
leftMetricsKey = a;
rightKerningGroup = e;
rightMetricsKey = e;
unicode = 00E6;
},
{
color = 6;
glyphname = b;
lastChange = "2020-11-04 12:52:33 +0000";
layers = (
{
anchors = (
{
name = bottom;
position = "{287, 0}";
},
{
name = top;
position = "{287, 1500}";
}
);
layerId = "798A1B98-D718-4469-8D5D-1F04921BF637";
paths = (
{
closed = 1;
nodes = (
"407 -20 OFFCURVE",
"504 136 OFFCURVE",
"504 518 CURVE SMOOTH",
"504 907 OFFCURVE",
"416 1051 OFFCURVE",
"316 1051 CURVE SMOOTH",
"227 1051 OFFCURVE",
"191 956 OFFCURVE",
"178 904 CURVE",
"178 1500 LINE",
"29 1500 LINE",
"29 1480 LINE",
"118 1480 LINE",
"118 20 LINE",
"29 20 LINE",
"29 0 LINE",
"178 0 LINE",
"178 135 LINE",
"184 78 OFFCURVE",
"218 -20 OFFCURVE",
"305 -20 CURVE SMOOTH"
);
},
{
closed = 1;
nodes = (
"216 2 OFFCURVE",
"185 158 OFFCURVE",
"178 278 CURVE",
"178 807 LINE",
"187 887 OFFCURVE",
"227 1020 OFFCURVE",
"313 1020 CURVE SMOOTH",
"429 1020 OFFCURVE",
"436 729 OFFCURVE",
"436 513 CURVE SMOOTH",
"436 233 OFFCURVE",
"422 2 OFFCURVE",
"305 2 CURVE SMOOTH"
);
}
);
width = 573;
},
{
anchors = (
{
name = bottom;
position = "{442, 0}";
},
{
name = top;
position = "{442, 1500}";
}
);
layerId = "A4F0BE09-87B8-499B-8BA0-E8BD95093B86";
paths = (
{
closed = 1;
nodes = (
"693 -20 OFFCURVE",
"831 98 OFFCURVE",
"831 518 CURVE SMOOTH",
"831 898 OFFCURVE",
"700 1053 OFFCURVE",
"553 1053 CURVE SMOOTH",
"431 1053 OFFCURVE",
"407 930 OFFCURVE",
"404 911 CURVE",
"404 1500 LINE",
"11 1500 LINE",
"11 1480 LINE",
"98 1480 LINE",
"98 20 LINE",
"11 20 LINE",
"11 0 LINE",
"400 0 LINE",
"400 111 LINE",
"402 85 OFFCURVE",
"440 -20 OFFCURVE",
"535 -20 CURVE SMOOTH"
);
},
{
closed = 1;
nodes = (
"455 15 OFFCURVE",
"407 93 OFFCURVE",
"404 196 CURVE",
"404 809 LINE",
"411 915 OFFCURVE",
"452 1009 OFFCURVE",
"482 1009 CURVE SMOOTH",
"518 1009 OFFCURVE",
"524 749 OFFCURVE",
"524 515 CURVE SMOOTH",
"524 280 OFFCURVE",
"518 15 OFFCURVE",
"482 15 CURVE SMOOTH"
);
}
);
width = 884;
},
{
anchors = (
{
name = bottom;
position = "{296, 0}";
},
{
name = top;
position = "{296, 1500}";
}
);
layerId = "2224527B-843E-45D0-ACBE-AC9678FC6685";
paths = (
{
closed = 1;
nodes = (
"438 -20 OFFCURVE",
"513 136 OFFCURVE",
"513 518 CURVE SMOOTH",
"513 907 OFFCURVE",
"445 1051 OFFCURVE",
"325 1051 CURVE SMOOTH",
"236 1051 OFFCURVE",
"196 960 OFFCURVE",
"187 916 CURVE",
"187 1500 LINE",
"18 1500 LINE",
"18 1440 LINE",
"127 1440 LINE",
"127 60 LINE",
"18 60 LINE",
"18 0 LINE",
"187 0 LINE",
"187 135 LINE",
"193 78 OFFCURVE",
"227 -20 OFFCURVE",
"315 -20 CURVE SMOOTH"
);
},
{
closed = 1;
nodes = (
"236 42 OFFCURVE",
"195 218 OFFCURVE",
"187 338 CURVE",
"187 767 LINE",
"196 847 OFFCURVE",
"247 980 OFFCURVE",
"322 980 CURVE SMOOTH",
"413 980 OFFCURVE",
"449 789 OFFCURVE",
"449 513 CURVE SMOOTH",
"449 193 OFFCURVE",
"405 42 OFFCURVE",
"315 42 CURVE SMOOTH"
);
}
);
width = 580;
},
{
anchors = (
{
name = bottom;
position = "{460, 0}";
},
{
name = top;
position = "{460, 1500}";
}
);
layerId = "42FCB8D3-5141-4304-9365-2E27830BD286";
paths = (
{
closed = 1;
nodes = (
"709 -20 OFFCURVE",
"871 98 OFFCURVE",
"871 518 CURVE SMOOTH",
"871 898 OFFCURVE",
"718 1063 OFFCURVE",
"569 1063 CURVE SMOOTH",
"462 1063 OFFCURVE",
"427 987 OFFCURVE",
"422 971 CURVE",
"422 1500 LINE",
"15 1500 LINE",
"15 1420 LINE",
"116 1420 LINE",
"116 80 LINE",
"15 80 LINE",
"15 0 LINE",
"367 0 LINE",
"397 106 LINE",
"403 63 OFFCURVE",
"444 -20 OFFCURVE",
"551 -20 CURVE SMOOTH"
);
},
{
closed = 1;
nodes = (
"458 140 OFFCURVE",
"422 240 OFFCURVE",
"422 375 CURVE",
"422 728 LINE",
"427 834 OFFCURVE",
"449 892 OFFCURVE",
"485 892 CURVE SMOOTH",
"551 892 OFFCURVE",
"571 759 OFFCURVE",
"571 515 CURVE SMOOTH",
"571 280 OFFCURVE",
"551 140 OFFCURVE",
"485 140 CURVE SMOOTH"
);
}
);
width = 938;
}
);
leftKerningGroup = h;
rightKerningGroup = o;
unicode = 0062;
},
{
color = 6;
glyphname = c;
lastChange = "2020-11-04 12:52:33 +0000";
layers = (
{
anchors = (
{
name = bottom;
position = "{307, 2}";
},
{
name = top;
position = "{265, 1047}";
}
);
layerId = "798A1B98-D718-4469-8D5D-1F04921BF637";
paths = (
{
closed = 1;
nodes = (
"353 -20 OFFCURVE",
"407 42 OFFCURVE",
"433 122 CURVE",
"416 131 LINE",
"404 76 OFFCURVE",
"358 2 OFFCURVE",
"276 2 CURVE SMOOTH",
"131 2 OFFCURVE",
"105 320 OFFCURVE",
"105 540 CURVE SMOOTH",
"105 776 OFFCURVE",
"162 1031 OFFCURVE",
"282 1031 CURVE SMOOTH",
"344 1031 OFFCURVE",
"392 988 OFFCURVE",
"392 895 CURVE SMOOTH",
"392 855 OFFCURVE",
"381 824 OFFCURVE",
"381 793 CURVE SMOOTH",
"381 762 OFFCURVE",
"386 738 OFFCURVE",
"412 738 CURVE SMOOTH",
"437 738 OFFCURVE",
"441 762 OFFCURVE",
"441 802 CURVE SMOOTH",
"441 924 OFFCURVE",
"397 1053 OFFCURVE",
"282 1053 CURVE SMOOTH",
"151 1053 OFFCURVE",
"40 858 OFFCURVE",
"40 535 CURVE SMOOTH",
"40 295 OFFCURVE",
"109 -20 OFFCURVE",
"276 -20 CURVE SMOOTH"
);
}
);
width = 500;
},
{
anchors = (
{
name = bottom;
position = "{429, 0}";
},
{
name = top;
position = "{409, 1047}";
}
);
layerId = "A4F0BE09-87B8-499B-8BA0-E8BD95093B86";
paths = (
{
closed = 1;
nodes = (
"536 -22 OFFCURVE",
"607 47 OFFCURVE",
"635 127 CURVE",
"616 135 LINE",
"604 80 OFFCURVE",
"542 2 OFFCURVE",
"460 2 CURVE SMOOTH",
"364 2 OFFCURVE",
"351 320 OFFCURVE",
"351 535 CURVE SMOOTH",
"351 704 OFFCURVE",
"355 1031 OFFCURVE",
"444 1031 CURVE SMOOTH",
"493 1031 OFFCURVE",
"526 1009 OFFCURVE",
"526 960 CURVE SMOOTH",
"526 922 OFFCURVE",
"443 855 OFFCURVE",
"443 755 CURVE SMOOTH",
"443 669 OFFCURVE",
"492 618 OFFCURVE",
"559 618 CURVE SMOOTH",
"626 618 OFFCURVE",
"674 671 OFFCURVE",
"674 793 CURVE SMOOTH",
"674 949 OFFCURVE",
"557 1053 OFFCURVE",
"423 1053 CURVE SMOOTH",
"274 1053 OFFCURVE",
"40 931 OFFCURVE",
"40 527 CURVE SMOOTH",
"40 156 OFFCURVE",
"209 -22 OFFCURVE",
"404 -22 CURVE SMOOTH"
);
}
);
width = 702;
},
{
anchors = (
{
name = bottom;
position = "{316, 2}";
},
{
name = top;
position = "{275, 1047}";
}
);
layerId = "2224527B-843E-45D0-ACBE-AC9678FC6685";
paths = (
{
closed = 1;
nodes = (
"391 -20 OFFCURVE",
"440 53 OFFCURVE",
"460 100 CURVE",
"415 136 LINE",
"393 75 OFFCURVE",
"360 42 OFFCURVE",
"293 42 CURVE SMOOTH",
"158 42 OFFCURVE",
"115 320 OFFCURVE",
"115 540 CURVE SMOOTH",
"115 776 OFFCURVE",
"171 991 OFFCURVE",
"291 991 CURVE SMOOTH",
"355 991 OFFCURVE",
"397 939 OFFCURVE",
"397 865 CURVE SMOOTH",
"397 825 OFFCURVE",
"385 824 OFFCURVE",
"385 793 CURVE SMOOTH",
"385 762 OFFCURVE",
"397 738 OFFCURVE",
"423 738 CURVE SMOOTH",
"448 738 OFFCURVE",
"459 762 OFFCURVE",
"459 802 CURVE SMOOTH",
"459 924 OFFCURVE",
"406 1053 OFFCURVE",
"291 1053 CURVE SMOOTH",
"160 1053 OFFCURVE",
"49 858 OFFCURVE",
"49 535 CURVE SMOOTH",
"49 295 OFFCURVE",
"107 -20 OFFCURVE",
"293 -20 CURVE SMOOTH"
);
}
);
width = 518;
},
{
anchors = (
{
name = bottom;
position = "{465, 0}";
},
{
name = top;
position = "{445, 1047}";
}
);
layerId = "42FCB8D3-5141-4304-9365-2E27830BD286";
paths = (
{
closed = 1;
nodes = (
"574 -22 OFFCURVE",
"663 50 OFFCURVE",
"695 130 CURVE",
"633 184 LINE",
"614 129 OFFCURVE",
"575 69 OFFCURVE",
"495 69 CURVE SMOOTH",
"382 69 OFFCURVE",
"366 320 OFFCURVE",
"366 535 CURVE SMOOTH",
"366 704 OFFCURVE",
"372 981 OFFCURVE",
"468 981 CURVE SMOOTH",
"506 981 OFFCURVE",
"548 957 OFFCURVE",
"548 898 CURVE SMOOTH",
"548 831 OFFCURVE",
"488 811 OFFCURVE",
"488 740 CURVE SMOOTH",
"488 664 OFFCURVE",
"537 618 OFFCURVE",
"605 618 CURVE SMOOTH",
"670 618 OFFCURVE",
"719 671 OFFCURVE",
"719 767 CURVE SMOOTH",
"719 922 OFFCURVE",
"614 1063 OFFCURVE",
"448 1063 CURVE SMOOTH",
"308 1063 OFFCURVE",
"55 931 OFFCURVE",
"55 527 CURVE SMOOTH",
"55 151 OFFCURVE",
"248 -22 OFFCURVE",
"437 -22 CURVE SMOOTH"
);
}
);
width = 756;
}
);
leftKerningGroup = o;
rightKerningGroup = c;
unicode = 0063;
},
{
color = 3;
glyphname = ccedilla;
lastChange = "2020-11-04 12:52:45 +0000";
layers = (
{
components = (
{
name = cedillacomb;
transform = "{1, 0, 0, 1, 29, 2}";
}
);
layerId = "798A1B98-D718-4469-8D5D-1F04921BF637";
paths = (
{
closed = 1;
nodes = (
"353 -20 OFFCURVE",
"407 42 OFFCURVE",
"433 122 CURVE",
"416 131 LINE",
"404 76 OFFCURVE",
"358 2 OFFCURVE",
"276 2 CURVE SMOOTH",
"131 2 OFFCURVE",
"105 320 OFFCURVE",
"105 540 CURVE SMOOTH",
"105 776 OFFCURVE",
"162 1031 OFFCURVE",
"282 1031 CURVE SMOOTH",
"344 1031 OFFCURVE",
"392 988 OFFCURVE",
"392 895 CURVE SMOOTH",
"392 855 OFFCURVE",
"381 824 OFFCURVE",
"381 793 CURVE SMOOTH",
"381 762 OFFCURVE",
"386 738 OFFCURVE",
"412 738 CURVE SMOOTH",
"437 738 OFFCURVE",
"441 762 OFFCURVE",
"441 802 CURVE SMOOTH",
"441 924 OFFCURVE",
"397 1053 OFFCURVE",
"282 1053 CURVE SMOOTH",
"151 1053 OFFCURVE",
"40 858 OFFCURVE",
"40 535 CURVE SMOOTH",
"40 295 OFFCURVE",
"109 -20 OFFCURVE",
"276 -20 CURVE SMOOTH"
);
}
);
width = 500;
},
{
components = (
{
name = cedillacomb;
transform = "{1, 0, 0, 1, 159, 0}";
}
);
layerId = "A4F0BE09-87B8-499B-8BA0-E8BD95093B86";
paths = (
{
closed = 1;
nodes = (
"536 -22 OFFCURVE",
"607 47 OFFCURVE",
"635 127 CURVE",
"616 135 LINE",
"604 80 OFFCURVE",
"542 2 OFFCURVE",
"460 2 CURVE SMOOTH",
"364 2 OFFCURVE",
"351 320 OFFCURVE",
"351 535 CURVE SMOOTH",
"351 704 OFFCURVE",
"355 1031 OFFCURVE",
"444 1031 CURVE SMOOTH",
"493 1031 OFFCURVE",
"526 1009 OFFCURVE",
"526 960 CURVE SMOOTH",
"526 922 OFFCURVE",
"443 855 OFFCURVE",
"443 755 CURVE SMOOTH",
"443 669 OFFCURVE",
"492 618 OFFCURVE",
"559 618 CURVE SMOOTH",
"626 618 OFFCURVE",
"674 671 OFFCURVE",
"674 793 CURVE SMOOTH",
"674 949 OFFCURVE",
"557 1053 OFFCURVE",
"423 1053 CURVE SMOOTH",
"274 1053 OFFCURVE",
"40 931 OFFCURVE",
"40 527 CURVE SMOOTH",
"40 156 OFFCURVE",
"209 -22 OFFCURVE",
"404 -22 CURVE SMOOTH"
);
}
);
width = 702;
},
{
components = (
{
name = cedillacomb;
transform = "{1, 0, 0, 1, 25, 2}";
}
);
layerId = "2224527B-843E-45D0-ACBE-AC9678FC6685";
paths = (
{
closed = 1;
nodes = (
"391 -20 OFFCURVE",
"440 53 OFFCURVE",
"460 100 CURVE",
"415 136 LINE",
"393 75 OFFCURVE",
"360 42 OFFCURVE",
"293 42 CURVE SMOOTH",
"158 42 OFFCURVE",
"115 320 OFFCURVE",
"115 540 CURVE SMOOTH",
"115 776 OFFCURVE",
"171 991 OFFCURVE",
"291 991 CURVE SMOOTH",
"355 991 OFFCURVE",
"397 939 OFFCURVE",
"397 865 CURVE SMOOTH",
"397 825 OFFCURVE",
"385 824 OFFCURVE",
"385 793 CURVE SMOOTH",
"385 762 OFFCURVE",
"397 738 OFFCURVE",
"423 738 CURVE SMOOTH",
"448 738 OFFCURVE",
"459 762 OFFCURVE",
"459 802 CURVE SMOOTH",
"459 924 OFFCURVE",
"406 1053 OFFCURVE",
"291 1053 CURVE SMOOTH",
"160 1053 OFFCURVE",
"49 858 OFFCURVE",
"49 535 CURVE SMOOTH",
"49 295 OFFCURVE",
"107 -20 OFFCURVE",
"293 -20 CURVE SMOOTH"
);
}
);
width = 518;
},
{
components = (
{
name = cedillacomb;
transform = "{1, 0, 0, 1, 170, 0}";
}
);
layerId = "42FCB8D3-5141-4304-9365-2E27830BD286";
paths = (
{
closed = 1;
nodes = (
"574 -22 OFFCURVE",
"663 50 OFFCURVE",
"695 130 CURVE",
"633 184 LINE",
"614 129 OFFCURVE",
"575 69 OFFCURVE",
"495 69 CURVE SMOOTH",
"382 69 OFFCURVE",
"366 320 OFFCURVE",
"366 535 CURVE SMOOTH",
"366 704 OFFCURVE",
"372 981 OFFCURVE",
"468 981 CURVE SMOOTH",
"506 981 OFFCURVE",
"548 957 OFFCURVE",
"548 898 CURVE SMOOTH",
"548 831 OFFCURVE",
"488 811 OFFCURVE",
"488 740 CURVE SMOOTH",
"488 664 OFFCURVE",
"537 618 OFFCURVE",
"605 618 CURVE SMOOTH",
"670 618 OFFCURVE",
"719 671 OFFCURVE",
"719 767 CURVE SMOOTH",
"719 922 OFFCURVE",
"614 1063 OFFCURVE",
"448 1063 CURVE SMOOTH",
"308 1063 OFFCURVE",
"55 931 OFFCURVE",
"55 527 CURVE SMOOTH",
"55 151 OFFCURVE",
"248 -22 OFFCURVE",
"437 -22 CURVE SMOOTH"
);
}
);
width = 756;
}
);
leftKerningGroup = o;
rightKerningGroup = c;
unicode = 00E7;
},
{
color = 6;
glyphname = d;
lastChange = "2020-11-04 12:52:33 +0000";
layers = (
{
anchors = (
{
name = bottom;
position = "{287, 0}";
},
{
name = center;
position = "{287, 524}";
},
{
name = top;
position = "{287, 1500}";
},
{
name = topright;
position = "{538, 1047}";
}
);
layerId = "798A1B98-D718-4469-8D5D-1F04921BF637";
paths = (
{
closed = 1;
nodes = (
"349 -20 OFFCURVE",
"389 78 OFFCURVE",
"396 135 CURVE",
"396 0 LINE",
"544 0 LINE",
"544 20 LINE",
"456 20 LINE",
"456 1500 LINE",
"307 1500 LINE",
"307 1480 LINE",
"396 1480 LINE",
"396 904 LINE",
"382 956 OFFCURVE",
"345 1051 OFFCURVE",
"258 1051 CURVE SMOOTH",
"164 1051 OFFCURVE",
"69 907 OFFCURVE",
"69 518 CURVE SMOOTH",
"69 136 OFFCURVE",
"160 -20 OFFCURVE",
"262 -20 CURVE SMOOTH"
);
},
{
closed = 1;
nodes = (
"149 2 OFFCURVE",
"138 233 OFFCURVE",
"138 513 CURVE SMOOTH",
"138 729 OFFCURVE",
"151 1020 OFFCURVE",
"262 1020 CURVE SMOOTH",
"347 1020 OFFCURVE",
"385 887 OFFCURVE",
"396 807 CURVE",
"396 278 LINE",
"387 158 OFFCURVE",
"356 2 OFFCURVE",
"265 2 CURVE SMOOTH"
);
}
);
width = 573;
},
{
anchors = (
{
name = bottom;
position = "{444, 0}";
},
{
name = center;
position = "{444, 524}";
},
{
name = top;
position = "{444, 1500}";
},
{
name = topright;
position = "{849, 1047}";
}
);
layerId = "A4F0BE09-87B8-499B-8BA0-E8BD95093B86";
paths = (
{
closed = 1;
nodes = (
"451 -20 OFFCURVE",
"480 78 OFFCURVE",
"487 115 CURVE",
"487 0 LINE",
"895 0 LINE",
"895 20 LINE",
"787 20 LINE",
"787 1500 LINE",
"387 1500 LINE",
"387 1478 LINE",
"480 1478 LINE",
"480 911 LINE",
"476 931 OFFCURVE",
"447 1053 OFFCURVE",
"336 1053 CURVE SMOOTH",
"189 1053 OFFCURVE",
"53 898 OFFCURVE",
"53 518 CURVE SMOOTH",
"53 98 OFFCURVE",
"193 -20 OFFCURVE",
"355 -20 CURVE SMOOTH"
);
},
{
closed = 1;
nodes = (
"367 15 OFFCURVE",
"360 280 OFFCURVE",
"360 515 CURVE SMOOTH",
"360 749 OFFCURVE",
"364 1009 OFFCURVE",
"402 1009 CURVE SMOOTH",
"427 1009 OFFCURVE",
"475 913 OFFCURVE",
"480 809 CURVE",
"480 193 LINE",
"478 84 OFFCURVE",
"433 15 OFFCURVE",
"402 15 CURVE SMOOTH"
);
}
);
width = 894;
},
{
anchors = (
{
name = bottom;
position = "{296, 0}";
},
{
name = center;
position = "{296, 524}";
},
{
name = top;
position = "{296, 1500}";
},
{
name = topright;
position = "{547, 1047}";
}
);
layerId = "2224527B-843E-45D0-ACBE-AC9678FC6685";
paths = (
{
closed = 1;
nodes = (
"358 -20 OFFCURVE",
"398 82 OFFCURVE",
"405 135 CURVE",
"405 0 LINE",
"573 0 LINE",
"573 60 LINE",
"465 60 LINE",
"465 1500 LINE",
"296 1500 LINE",
"296 1440 LINE",
"405 1440 LINE",
"405 924 LINE",
"395 975 OFFCURVE",
"355 1051 OFFCURVE",
"267 1051 CURVE SMOOTH",
"153 1051 OFFCURVE",
"78 907 OFFCURVE",
"78 518 CURVE SMOOTH",
"78 136 OFFCURVE",
"149 -20 OFFCURVE",
"271 -20 CURVE SMOOTH"
);
},
{
closed = 1;
nodes = (
"182 42 OFFCURVE",
"142 193 OFFCURVE",
"142 513 CURVE SMOOTH",
"142 769 OFFCURVE",
"169 980 OFFCURVE",
"271 980 CURVE SMOOTH",
"336 980 OFFCURVE",
"395 867 OFFCURVE",
"405 767 CURVE",
"405 318 LINE",
"396 198 OFFCURVE",
"349 42 OFFCURVE",
"278 42 CURVE SMOOTH"
);
}
);
width = 583;
},
{
anchors = (
{
name = bottom;
position = "{475, 0}";
},
{
name = center;
position = "{476, 787}";
},
{
name = top;
position = "{476, 1500}";
},
{
name = topright;
position = "{880, 1047}";
}
);
layerId = "42FCB8D3-5141-4304-9365-2E27830BD286";
paths = (
{
closed = 1;
nodes = (
"478 -20 OFFCURVE",
"532 54 OFFCURVE",
"535 108 CURVE",
"567 0 LINE",
"936 0 LINE",
"936 80 LINE",
"818 80 LINE",
"818 1500 LINE",
"387 1500 LINE",
"387 1418 LINE",
"511 1418 LINE",
"511 981 LINE",
"507 997 OFFCURVE",
"482 1063 OFFCURVE",
"362 1063 CURVE SMOOTH",
"215 1063 OFFCURVE",
"58 898 OFFCURVE",
"58 518 CURVE SMOOTH",
"58 98 OFFCURVE",
"224 -20 OFFCURVE",
"382 -20 CURVE SMOOTH"
);
},
{
closed = 1;
nodes = (
"387 140 OFFCURVE",
"358 287 OFFCURVE",
"358 515 CURVE SMOOTH",
"358 759 OFFCURVE",
"395 897 OFFCURVE",
"444 897 CURVE SMOOTH",
"485 897 OFFCURVE",
"507 832 OFFCURVE",
"511 728 CURVE",
"511 362 LINE",
"511 247 OFFCURVE",
"485 140 OFFCURVE",
"442 140 CURVE SMOOTH"
);
}
);
width = 948;
}
);
leftKerningGroup = o;
rightKerningGroup = l;
unicode = 0064;
},
{
color = 6;
glyphname = eth;
lastChange = "2020-11-04 12:52:33 +0000";
layers = (
{
layerId = "798A1B98-D718-4469-8D5D-1F04921BF637";
paths = (
{
closed = 1;
nodes = (
"447 -22 OFFCURVE",
"538 209 OFFCURVE",
"538 527 CURVE SMOOTH",
"538 1013 OFFCURVE",
"465 1187 OFFCURVE",
"322 1327 CURVE",
"371 1407 LINE",
"356 1418 LINE",
"307 1338 LINE",
"284 1356 LINE SMOOTH",
"244 1387 OFFCURVE",
"204 1404 OFFCURVE",
"162 1420 CURVE",
"158 1396 LINE",
"200 1384 OFFCURVE",
"262 1347 OFFCURVE",
"291 1316 CURVE",
"220 1207 LINE",
"238 1195 LINE",
"305 1302 LINE",
"365 1249 OFFCURVE",
"455 1046 OFFCURVE",
"462 920 CURVE",
"447 964 OFFCURVE",
"391 1053 OFFCURVE",
"311 1053 CURVE SMOOTH",
"184 1053 OFFCURVE",
"89 862 OFFCURVE",
"89 529 CURVE SMOOTH",
"89 220 OFFCURVE",
"165 -22 OFFCURVE",
"311 -22 CURVE SMOOTH"
);
},
{
closed = 1;
nodes = (
"244 -2 OFFCURVE",
"153 138 OFFCURVE",
"153 527 CURVE SMOOTH",
"153 909 OFFCURVE",
"244 1033 OFFCURVE",
"311 1033 CURVE SMOOTH",
"380 1033 OFFCURVE",
"467 909 OFFCURVE",
"467 527 CURVE SMOOTH",
"467 138 OFFCURVE",
"380 -2 OFFCURVE",
"311 -2 CURVE SMOOTH"
);
}
);
width = 647;
},
{
layerId = "A4F0BE09-87B8-499B-8BA0-E8BD95093B86";
paths = (
{
closed = 1;
nodes = (
"549 -22 OFFCURVE",
"744 169 OFFCURVE",
"744 527 CURVE SMOOTH",
"744 975 OFFCURVE",
"542 1240 OFFCURVE",
"407 1331 CURVE",
"453 1407 LINE",
"436 1418 LINE",
"393 1344 LINE",
"360 1362 LINE SMOOTH",
"315 1386 OFFCURVE",
"240 1418 OFFCURVE",
"215 1420 CURVE",
"205 1396 LINE",
"260 1382 OFFCURVE",
"331 1335 OFFCURVE",
"360 1302 CURVE",
"300 1207 LINE",
"318 1195 LINE",
"373 1282 LINE",
"400 1240 OFFCURVE",
"453 1118 OFFCURVE",
"467 1036 CURVE",
"458 1040 OFFCURVE",
"422 1053 OFFCURVE",
"393 1053 CURVE SMOOTH",
"244 1053 OFFCURVE",
"40 902 OFFCURVE",
"40 529 CURVE SMOOTH",
"40 180 OFFCURVE",
"227 -22 OFFCURVE",
"393 -22 CURVE SMOOTH"
);
},
{
closed = 1;
nodes = (
"344 -2 OFFCURVE",
"335 238 OFFCURVE",
"335 527 CURVE SMOOTH",
"335 809 OFFCURVE",
"344 1033 OFFCURVE",
"393 1033 CURVE SMOOTH",
"440 1033 OFFCURVE",
"449 809 OFFCURVE",
"449 527 CURVE SMOOTH",
"449 238 OFFCURVE",
"440 -2 OFFCURVE",
"393 -2 CURVE SMOOTH"
);
}
);
width = 804;
},
{
layerId = "2224527B-843E-45D0-ACBE-AC9678FC6685";
paths = (
{
closed = 1;
nodes = (
"456 -22 OFFCURVE",
"547 209 OFFCURVE",
"547 527 CURVE SMOOTH",
"547 947 OFFCURVE",
"500 1169 OFFCURVE",
"356 1309 CURVE",
"407 1389 LINE",
"365 1418 LINE",
"318 1342 LINE",
"295 1360 LINE SMOOTH",
"267 1382 OFFCURVE",
"209 1411 OFFCURVE",
"173 1422 CURVE",
"153 1376 LINE",
"195 1362 OFFCURVE",
"256 1327 OFFCURVE",
"287 1296 CURVE",
"215 1187 LINE",
"258 1156 LINE",
"322 1258 LINE",
"382 1204 OFFCURVE",
"433 1093 OFFCURVE",
"456 940 CURVE",
"442 984 OFFCURVE",
"400 1053 OFFCURVE",
"320 1053 CURVE SMOOTH",
"193 1053 OFFCURVE",
"98 862 OFFCURVE",
"98 529 CURVE SMOOTH",
"98 220 OFFCURVE",
"175 -22 OFFCURVE",
"320 -22 CURVE SMOOTH"
);
},
{
closed = 1;
nodes = (
"253 38 OFFCURVE",
"162 158 OFFCURVE",
"162 527 CURVE SMOOTH",
"162 889 OFFCURVE",
"253 993 OFFCURVE",
"320 993 CURVE SMOOTH",
"389 993 OFFCURVE",
"476 889 OFFCURVE",
"476 527 CURVE SMOOTH",
"476 158 OFFCURVE",
"389 38 OFFCURVE",
"320 38 CURVE SMOOTH"
);
}
);
width = 665;
},
{
layerId = "42FCB8D3-5141-4304-9365-2E27830BD286";
paths = (
{
closed = 1;
nodes = (
"576 -22 OFFCURVE",
"771 169 OFFCURVE",
"771 527 CURVE SMOOTH",
"771 1008 OFFCURVE",
"636 1215 OFFCURVE",
"491 1311 CURVE",
"535 1371 LINE",
"464 1418 LINE",
"420 1362 LINE",
"409 1367 LINE SMOOTH",
"376 1384 OFFCURVE",
"291 1418 OFFCURVE",
"269 1420 CURVE",
"242 1335 LINE",
"287 1319 OFFCURVE",
"358 1293 OFFCURVE",
"376 1276 CURVE",
"316 1193 LINE",
"387 1144 LINE",
"445 1229 LINE",
"465 1198 OFFCURVE",
"489 1109 OFFCURVE",
"495 1036 CURVE",
"485 1040 OFFCURVE",
"449 1053 OFFCURVE",
"420 1053 CURVE SMOOTH",
"271 1053 OFFCURVE",
"67 902 OFFCURVE",
"67 529 CURVE SMOOTH",
"67 180 OFFCURVE",
"255 -22 OFFCURVE",
"420 -22 CURVE SMOOTH"
);
},
{
closed = 1;
nodes = (
"371 58 OFFCURVE",
"362 269 OFFCURVE",
"362 527 CURVE SMOOTH",
"362 778 OFFCURVE",
"371 973 OFFCURVE",
"420 973 CURVE SMOOTH",
"467 973 OFFCURVE",
"476 778 OFFCURVE",
"476 527 CURVE SMOOTH",
"476 269 OFFCURVE",
"467 58 OFFCURVE",
"420 58 CURVE SMOOTH"
);
}
);
width = 858;
}
);
leftKerningGroup = eth;
rightKerningGroup = eth;
unicode = 00F0;
},
{
color = 3;
glyphname = dcaron;
lastChange = "2020-11-04 12:52:45 +0000";
layers = (
{
components = (
{
alignment = -1;
name = d;
}
);
layerId = "798A1B98-D718-4469-8D5D-1F04921BF637";
paths = (
{
closed = 1;
nodes = (
"552 1185 LINE",
"582 1266 OFFCURVE",
"613 1355 OFFCURVE",
"613 1410 CURVE SMOOTH",
"613 1448 OFFCURVE",
"608 1473 OFFCURVE",
"582 1473 CURVE SMOOTH",
"556 1473 OFFCURVE",
"548 1447 OFFCURVE",
"548 1400 CURVE SMOOTH",
"548 1345 OFFCURVE",
"548 1249 OFFCURVE",
"533 1191 CURVE"
);
}
);
width = 647;
},
{
components = (
{
alignment = -1;
name = d;
}
);
layerId = "A4F0BE09-87B8-499B-8BA0-E8BD95093B86";
paths = (
{
closed = 1;
nodes = (
"899 1133 LINE",
"957 1206 OFFCURVE",
"1021 1301 OFFCURVE",
"1021 1401 CURVE SMOOTH",
"1021 1476 OFFCURVE",
"983 1493 OFFCURVE",
"943 1493 CURVE SMOOTH",
"903 1493 OFFCURVE",
"861 1475 OFFCURVE",
"861 1390 CURVE SMOOTH",
"861 1318 OFFCURVE",
"861 1227 OFFCURVE",
"845 1163 CURVE"
);
}
);
width = 1021;
},
{
components = (
{
alignment = -1;
name = d;
}
);
layerId = "2224527B-843E-45D0-ACBE-AC9678FC6685";
paths = (
{
closed = 1;
nodes = (
"574 1185 LINE",
"604 1266 OFFCURVE",
"617 1355 OFFCURVE",
"617 1410 CURVE SMOOTH",
"617 1448 OFFCURVE",
"612 1473 OFFCURVE",
"586 1473 CURVE SMOOTH",
"560 1473 OFFCURVE",
"552 1447 OFFCURVE",
"552 1400 CURVE SMOOTH",
"552 1335 OFFCURVE",
"542 1263 OFFCURVE",
"527 1205 CURVE"
);
}
);
width = 665;
},
{
components = (
{
alignment = -1;
name = d;
}
);
layerId = "42FCB8D3-5141-4304-9365-2E27830BD286";
paths = (
{
closed = 1;
nodes = (
"966 1133 LINE",
"1024 1186 OFFCURVE",
"1088 1291 OFFCURVE",
"1088 1401 CURVE SMOOTH",
"1088 1476 OFFCURVE",
"1040 1493 OFFCURVE",
"1000 1493 CURVE SMOOTH",
"960 1493 OFFCURVE",
"908 1475 OFFCURVE",
"908 1390 CURVE SMOOTH",
"908 1318 OFFCURVE",
"908 1227 OFFCURVE",
"892 1163 CURVE"
);
}
);
width = 1088;
}
);
leftKerningGroup = o;
rightKerningGroup = l;
unicode = 010F;
},
{
color = 3;
glyphname = dcroat;
lastChange = "2020-11-04 12:52:45 +0000";
layers = (
{
components = (
{
name = d;
}
);
layerId = "798A1B98-D718-4469-8D5D-1F04921BF637";
paths = (
{
closed = 1;
nodes = (
"540 1275 LINE",
"540 1295 LINE",
"158 1295 LINE",
"158 1275 LINE"
);
}
);
width = 573;
},
{
components = (
{
name = d;
}
);
layerId = "A4F0BE09-87B8-499B-8BA0-E8BD95093B86";
paths = (
{
closed = 1;
nodes = (
"878 1275 LINE",
"878 1295 LINE",
"231 1295 LINE",
"231 1275 LINE"
);
}
);
width = 894;
},
{
components = (
{
name = d;
}
);
layerId = "2224527B-843E-45D0-ACBE-AC9678FC6685";
paths = (
{
closed = 1;
nodes = (
"575 1255 LINE",
"575 1315 LINE",
"193 1315 LINE",
"193 1255 LINE"
);
}
);
width = 583;
},
{
components = (
{
name = d;
}
);
layerId = "42FCB8D3-5141-4304-9365-2E27830BD286";
paths = (
{
closed = 1;
nodes = (
"910 1231 LINE",
"910 1311 LINE",
"204 1311 LINE",
"204 1231 LINE"
);
}
);
width = 948;
}
);
leftKerningGroup = o;
rightKerningGroup = l;
unicode = 0111;
},
{
color = 6;
glyphname = e;
lastChange = "2020-11-04 12:52:33 +0000";
layers = (
{
anchors = (
{
name = bottom;
position = "{286, 0}";
},
{
name = ogonek;
position = "{359, 10}";
},
{
name = top;
position = "{259, 1046}";
}
);
layerId = "798A1B98-D718-4469-8D5D-1F04921BF637";
paths = (
{
closed = 1;
nodes = (
"355 -22 OFFCURVE",
"413 44 OFFCURVE",
"440 125 CURVE",
"422 135 LINE",
"404 69 OFFCURVE",
"355 2 OFFCURVE",
"271 2 CURVE SMOOTH",
"127 2 OFFCURVE",
"124 307 OFFCURVE",
"124 556 CURVE SMOOTH",
"124 871 OFFCURVE",
"175 1035 OFFCURVE",
"264 1035 CURVE SMOOTH",
"358 1035 OFFCURVE",
"378 840 OFFCURVE",
"378 582 CURVE",
"111 582 LINE",
"111 562 LINE",
"442 562 LINE",
"443 580 OFFCURVE",
"443 598 OFFCURVE",
"443 617 CURVE SMOOTH",
"443 803 OFFCURVE",
"406 1053 OFFCURVE",
"264 1053 CURVE SMOOTH",
"138 1053 OFFCURVE",
"60 862 OFFCURVE",
"60 525 CURVE SMOOTH",
"60 280 OFFCURVE",
"97 -22 OFFCURVE",
"267 -22 CURVE SMOOTH"
);
}
);
width = 502;
},
{
anchors = (
{
name = bottom;
position = "{446, 0}";
},
{
name = ogonek;
position = "{584, 10}";
},
{
name = top;
position = "{396, 1047}";
}
);
layerId = "A4F0BE09-87B8-499B-8BA0-E8BD95093B86";
paths = (
{
closed = 1;
nodes = (
"592 -20 OFFCURVE",
"685 49 OFFCURVE",
"718 124 CURVE",
"703 136 LINE",
"676 71 OFFCURVE",
"598 5 OFFCURVE",
"465 5 CURVE SMOOTH",
"348 5 OFFCURVE",
"336 180 OFFCURVE",
"336 516 CURVE SMOOTH",
"336 875 OFFCURVE",
"360 1033 OFFCURVE",
"400 1033 CURVE SMOOTH",
"440 1033 OFFCURVE",
"454 876 OFFCURVE",
"454 532 CURVE",
"318 532 LINE",
"318 512 LINE",
"745 512 LINE",
"747 540 OFFCURVE",
"748 566 OFFCURVE",
"748 593 CURVE SMOOTH",
"748 890 OFFCURVE",
"583 1053 OFFCURVE",
"400 1053 CURVE SMOOTH",
"254 1053 OFFCURVE",
"36 922 OFFCURVE",
"36 527 CURVE SMOOTH",
"36 202 OFFCURVE",
"185 -20 OFFCURVE",
"414 -20 CURVE SMOOTH"
);
}
);
width = 783;
},
{
anchors = (
{
name = bottom;
position = "{276, 0}";
},
{
name = ogonek;
position = "{351, 14}";
},
{
name = top;
position = "{252, 1045}";
}
);
layerId = "2224527B-843E-45D0-ACBE-AC9678FC6685";
paths = (
{
closed = 1;
nodes = (
"334 -22 OFFCURVE",
"402 42 OFFCURVE",
"421 118 CURVE",
"367 140 LINE",
"356 98 OFFCURVE",
"323 40 OFFCURVE",
"252 40 CURVE SMOOTH",
"132 40 OFFCURVE",
"114 307 OFFCURVE",
"114 556 CURVE SMOOTH",
"114 811 OFFCURVE",
"165 993 OFFCURVE",
"254 993 CURVE SMOOTH",
"348 993 OFFCURVE",
"368 800 OFFCURVE",
"368 592 CURVE",
"101 592 LINE",
"101 532 LINE",
"432 532 LINE",
"433 559 OFFCURVE",
"433 587 OFFCURVE",
"433 616 CURVE SMOOTH",
"433 805 OFFCURVE",
"408 1053 OFFCURVE",
"254 1053 CURVE SMOOTH",
"121 1053 OFFCURVE",
"50 862 OFFCURVE",
"50 525 CURVE SMOOTH",
"50 282 OFFCURVE",
"72 -22 OFFCURVE",
"252 -22 CURVE SMOOTH"
);
}
);
width = 492;
},
{
anchors = (
{
name = bottom;
position = "{491, 0}";
},
{
name = ogonek;
position = "{606, 15}";
},
{
name = top;
position = "{440, 1047}";
}
);
layerId = "42FCB8D3-5141-4304-9365-2E27830BD286";
paths = (
{
closed = 1;
nodes = (
"598 -20 OFFCURVE",
"716 61 OFFCURVE",
"751 134 CURVE",
"685 187 LINE",
"657 135 OFFCURVE",
"596 73 OFFCURVE",
"493 73 CURVE SMOOTH",
"398 73 OFFCURVE",
"356 193 OFFCURVE",
"356 556 CURVE SMOOTH",
"356 915 OFFCURVE",
"400 981 OFFCURVE",
"446 981 CURVE SMOOTH",
"489 981 OFFCURVE",
"520 915 OFFCURVE",
"520 592 CURVE",
"342 592 LINE",
"342 512 LINE",
"800 512 LINE",
"802 540 OFFCURVE",
"803 566 OFFCURVE",
"803 593 CURVE SMOOTH",
"803 888 OFFCURVE",
"639 1063 OFFCURVE",
"446 1063 CURVE SMOOTH",
"286 1063 OFFCURVE",
"56 922 OFFCURVE",
"56 527 CURVE SMOOTH",
"56 138 OFFCURVE",
"235 -20 OFFCURVE",
"453 -20 CURVE SMOOTH"
);
}
);
width = 859;
}
);
leftKerningGroup = o;
leftMetricsKey = o;
rightKerningGroup = o;
rightMetricsKey = o;
unicode = 0065;
},
{
color = 3;
glyphname = ecedilla;
lastChange = "2020-11-04 12:52:45 +0000";
layers = (
{
components = (
{
name = cedillacomb;
transform = "{1, 0, 0, 1, 8, 0}";
}
);
layerId = "798A1B98-D718-4469-8D5D-1F04921BF637";
paths = (
{
closed = 1;
nodes = (
"355 -22 OFFCURVE",
"413 44 OFFCURVE",
"440 125 CURVE",
"422 135 LINE",
"404 69 OFFCURVE",
"355 2 OFFCURVE",
"271 2 CURVE SMOOTH",
"127 2 OFFCURVE",
"124 307 OFFCURVE",
"124 556 CURVE SMOOTH",
"124 871 OFFCURVE",
"175 1035 OFFCURVE",
"264 1035 CURVE SMOOTH",
"358 1035 OFFCURVE",
"378 840 OFFCURVE",
"378 582 CURVE",
"111 582 LINE",
"111 562 LINE",
"442 562 LINE",
"443 580 OFFCURVE",
"443 598 OFFCURVE",
"443 617 CURVE SMOOTH",
"443 803 OFFCURVE",
"406 1053 OFFCURVE",
"264 1053 CURVE SMOOTH",
"138 1053 OFFCURVE",
"60 862 OFFCURVE",
"60 525 CURVE SMOOTH",
"60 280 OFFCURVE",
"97 -22 OFFCURVE",
"267 -22 CURVE SMOOTH"
);
}
);
width = 502;
},
{
components = (
{
name = cedillacomb;
transform = "{1, 0, 0, 1, 176, 0}";
}
);
layerId = "A4F0BE09-87B8-499B-8BA0-E8BD95093B86";
paths = (
{
closed = 1;
nodes = (
"592 -20 OFFCURVE",
"685 49 OFFCURVE",
"718 124 CURVE",
"703 136 LINE",
"676 71 OFFCURVE",
"598 4 OFFCURVE",
"465 4 CURVE SMOOTH",
"348 4 OFFCURVE",
"336 180 OFFCURVE",
"336 516 CURVE SMOOTH",
"336 875 OFFCURVE",
"360 1033 OFFCURVE",
"400 1033 CURVE SMOOTH",
"440 1033 OFFCURVE",
"454 876 OFFCURVE",
"454 532 CURVE",
"318 532 LINE",
"318 512 LINE",
"745 512 LINE",
"747 540 OFFCURVE",
"748 566 OFFCURVE",
"748 593 CURVE SMOOTH",
"748 890 OFFCURVE",
"583 1053 OFFCURVE",
"400 1053 CURVE SMOOTH",
"254 1053 OFFCURVE",
"36 922 OFFCURVE",
"36 527 CURVE SMOOTH",
"36 202 OFFCURVE",
"185 -20 OFFCURVE",
"414 -20 CURVE SMOOTH"
);
}
);
width = 783;
},
{
components = (
{
name = cedillacomb;
transform = "{1, 0, 0, 1, -15, 0}";
}
);
layerId = "2224527B-843E-45D0-ACBE-AC9678FC6685";
paths = (
{
closed = 1;
nodes = (
"334 -22 OFFCURVE",
"402 42 OFFCURVE",
"421 118 CURVE",
"367 140 LINE",
"356 98 OFFCURVE",
"323 40 OFFCURVE",
"252 40 CURVE SMOOTH",
"132 40 OFFCURVE",
"114 307 OFFCURVE",
"114 556 CURVE SMOOTH",
"114 811 OFFCURVE",
"165 993 OFFCURVE",
"254 993 CURVE SMOOTH",
"348 993 OFFCURVE",
"368 800 OFFCURVE",
"368 592 CURVE",
"101 592 LINE",
"101 532 LINE",
"432 532 LINE",
"433 559 OFFCURVE",
"433 587 OFFCURVE",
"433 616 CURVE SMOOTH",
"433 805 OFFCURVE",
"408 1053 OFFCURVE",
"254 1053 CURVE SMOOTH",
"121 1053 OFFCURVE",
"50 862 OFFCURVE",
"50 525 CURVE SMOOTH",
"50 282 OFFCURVE",
"72 -22 OFFCURVE",
"252 -22 CURVE SMOOTH"
);
}
);
width = 492;
},
{
components = (
{
name = cedillacomb;
transform = "{1, 0, 0, 1, 196, 0}";
}
);
layerId = "42FCB8D3-5141-4304-9365-2E27830BD286";
paths = (
{
closed = 1;
nodes = (
"598 -20 OFFCURVE",
"716 61 OFFCURVE",
"751 134 CURVE",
"685 187 LINE",
"657 135 OFFCURVE",
"596 64 OFFCURVE",
"493 64 CURVE SMOOTH",
"398 64 OFFCURVE",
"356 153 OFFCURVE",
"356 516 CURVE SMOOTH",
"356 875 OFFCURVE",
"400 981 OFFCURVE",
"446 981 CURVE SMOOTH",
"489 981 OFFCURVE",
"520 875 OFFCURVE",
"520 552 CURVE",
"342 552 LINE",
"342 472 LINE",
"800 472 LINE",
"802 500 OFFCURVE",
"803 526 OFFCURVE",
"803 553 CURVE SMOOTH",
"803 888 OFFCURVE",
"639 1063 OFFCURVE",
"446 1063 CURVE SMOOTH",
"286 1063 OFFCURVE",
"56 922 OFFCURVE",
"56 527 CURVE SMOOTH",
"56 138 OFFCURVE",
"235 -20 OFFCURVE",
"453 -20 CURVE SMOOTH"
);
}
);
width = 859;
}
);
leftKerningGroup = o;
rightKerningGroup = e;
unicode = 0229;
},
{
color = 3;
glyphname = eogonek;
lastChange = "2020-11-04 12:52:45 +0000";
layers = (
{
anchors = (
{
name = top;
position = "{251, 1046}";
}
);
components = (
{
name = ogonekcomb;
transform = "{1, 0, 0, 1, 21, 10}";
}
);
layerId = "798A1B98-D718-4469-8D5D-1F04921BF637";
paths = (
{
closed = 1;
nodes = (
"355 -22 OFFCURVE",
"413 44 OFFCURVE",
"440 125 CURVE",
"422 135 LINE",
"404 69 OFFCURVE",
"355 2 OFFCURVE",
"271 2 CURVE SMOOTH",
"127 2 OFFCURVE",
"124 307 OFFCURVE",
"124 556 CURVE SMOOTH",
"124 871 OFFCURVE",
"175 1035 OFFCURVE",
"264 1035 CURVE SMOOTH",
"358 1035 OFFCURVE",
"378 840 OFFCURVE",
"378 582 CURVE",
"111 582 LINE",
"111 562 LINE",
"442 562 LINE",
"443 580 OFFCURVE",
"443 598 OFFCURVE",
"443 617 CURVE SMOOTH",
"443 803 OFFCURVE",
"406 1053 OFFCURVE",
"264 1053 CURVE SMOOTH",
"138 1053 OFFCURVE",
"60 862 OFFCURVE",
"60 525 CURVE SMOOTH",
"60 280 OFFCURVE",
"97 -22 OFFCURVE",
"267 -22 CURVE SMOOTH"
);
}
);
width = 502;
},
{
anchors = (
{
name = top;
position = "{392, 1046}";
}
);
components = (
{
name = ogonekcomb;
transform = "{1, 0, 0, 1, 274, 10}";
}
);
layerId = "A4F0BE09-87B8-499B-8BA0-E8BD95093B86";
paths = (
{
closed = 1;
nodes = (
"592 -20 OFFCURVE",
"685 49 OFFCURVE",
"718 124 CURVE",
"703 136 LINE",
"676 71 OFFCURVE",
"598 4 OFFCURVE",
"465 4 CURVE SMOOTH",
"348 4 OFFCURVE",
"336 180 OFFCURVE",
"336 516 CURVE SMOOTH",
"336 875 OFFCURVE",
"360 1033 OFFCURVE",
"400 1033 CURVE SMOOTH",
"440 1033 OFFCURVE",
"454 876 OFFCURVE",
"454 532 CURVE",
"318 532 LINE",
"318 512 LINE",
"745 512 LINE",
"747 540 OFFCURVE",
"748 566 OFFCURVE",
"748 593 CURVE SMOOTH",
"748 890 OFFCURVE",
"583 1053 OFFCURVE",
"400 1053 CURVE SMOOTH",
"254 1053 OFFCURVE",
"36 922 OFFCURVE",
"36 527 CURVE SMOOTH",
"36 202 OFFCURVE",
"185 -20 OFFCURVE",
"414 -20 CURVE SMOOTH"
);
}
);
width = 783;
},
{
anchors = (
{
name = top;
position = "{246, 1046}";
}
);
components = (
{
name = ogonekcomb;
transform = "{1, 0, 0, 1, 15, 14}";
}
);
layerId = "2224527B-843E-45D0-ACBE-AC9678FC6685";
paths = (
{
closed = 1;
nodes = (
"334 -22 OFFCURVE",
"402 42 OFFCURVE",
"421 118 CURVE",
"367 140 LINE",
"356 98 OFFCURVE",
"323 40 OFFCURVE",
"252 40 CURVE SMOOTH",
"132 40 OFFCURVE",
"114 307 OFFCURVE",
"114 556 CURVE SMOOTH",
"114 811 OFFCURVE",
"165 993 OFFCURVE",
"254 993 CURVE SMOOTH",
"348 993 OFFCURVE",
"368 800 OFFCURVE",
"368 592 CURVE",
"101 592 LINE",
"101 532 LINE",
"432 532 LINE",
"433 559 OFFCURVE",
"433 587 OFFCURVE",
"433 616 CURVE SMOOTH",
"433 805 OFFCURVE",
"408 1053 OFFCURVE",
"254 1053 CURVE SMOOTH",
"121 1053 OFFCURVE",
"50 862 OFFCURVE",
"50 525 CURVE SMOOTH",
"50 282 OFFCURVE",
"72 -22 OFFCURVE",
"252 -22 CURVE SMOOTH"
);
}
);
width = 492;
},
{
anchors = (
{
name = top;
position = "{430, 1046}";
}
);
components = (
{
name = ogonekcomb;
transform = "{1, 0, 0, 1, 250, 15}";
}
);
layerId = "42FCB8D3-5141-4304-9365-2E27830BD286";
paths = (
{
closed = 1;
nodes = (
"598 -20 OFFCURVE",
"716 61 OFFCURVE",
"751 134 CURVE",
"685 187 LINE",
"657 135 OFFCURVE",
"596 64 OFFCURVE",
"493 64 CURVE SMOOTH",
"398 64 OFFCURVE",
"356 153 OFFCURVE",
"356 516 CURVE SMOOTH",
"356 875 OFFCURVE",
"400 981 OFFCURVE",
"446 981 CURVE SMOOTH",
"489 981 OFFCURVE",
"520 875 OFFCURVE",
"520 552 CURVE",
"342 552 LINE",
"342 472 LINE",
"800 472 LINE",
"802 500 OFFCURVE",
"803 526 OFFCURVE",
"803 553 CURVE SMOOTH",
"803 888 OFFCURVE",
"639 1063 OFFCURVE",
"446 1063 CURVE SMOOTH",
"286 1063 OFFCURVE",
"56 922 OFFCURVE",
"56 527 CURVE SMOOTH",
"56 138 OFFCURVE",
"235 -20 OFFCURVE",
"453 -20 CURVE SMOOTH"
);
}
);
width = 859;
}
);
leftKerningGroup = o;
rightKerningGroup = e;
unicode = 0119;
},
{
color = 6;
glyphname = schwa;
lastChange = "2020-11-04 12:52:33 +0000";
layers = (
{
layerId = "798A1B98-D718-4469-8D5D-1F04921BF637";
paths = (
{
closed = 1;
nodes = (
"64 912 LINE",
"83 912 LINE",
"94 981 LINE",
"87 981 OFFCURVE",
"84 1015 OFFCURVE",
"84 1046 CURVE",
"64 1046 LINE"
);
},
{
closed = 1;
nodes = (
"148 1068 OFFCURVE",
"90 1002 OFFCURVE",
"63 921 CURVE",
"81 911 LINE",
"99 977 OFFCURVE",
"148 1044 OFFCURVE",
"232 1044 CURVE SMOOTH",
"376 1044 OFFCURVE",
"379 739 OFFCURVE",
"379 490 CURVE SMOOTH",
"379 175 OFFCURVE",
"328 11 OFFCURVE",
"239 11 CURVE SMOOTH",
"145 11 OFFCURVE",
"125 206 OFFCURVE",
"125 464 CURVE",
"392 464 LINE",
"392 484 LINE",
"61 484 LINE",
"60 466 OFFCURVE",
"60 448 OFFCURVE",
"60 429 CURVE SMOOTH",
"60 243 OFFCURVE",
"97 -7 OFFCURVE",
"239 -7 CURVE SMOOTH",
"365 -7 OFFCURVE",
"443 184 OFFCURVE",
"443 521 CURVE SMOOTH",
"443 766 OFFCURVE",
"406 1068 OFFCURVE",
"236 1068 CURVE SMOOTH"
);
}
);
width = 502;
},
{
layerId = "A4F0BE09-87B8-499B-8BA0-E8BD95093B86";
paths = (
{
closed = 1;
nodes = (
"58 910 LINE",
"77 910 LINE",
"99 976 LINE",
"83 976 OFFCURVE",
"78 989 OFFCURVE",
"78 1046 CURVE",
"58 1046 LINE"
);
},
{
closed = 1;
nodes = (
"192 1066 OFFCURVE",
"99 997 OFFCURVE",
"66 922 CURVE",
"81 910 LINE",
"108 975 OFFCURVE",
"186 1042 OFFCURVE",
"319 1042 CURVE SMOOTH",
"436 1042 OFFCURVE",
"448 866 OFFCURVE",
"448 530 CURVE SMOOTH",
"448 171 OFFCURVE",
"424 13 OFFCURVE",
"384 13 CURVE SMOOTH",
"344 13 OFFCURVE",
"330 170 OFFCURVE",
"330 514 CURVE",
"466 514 LINE",
"466 534 LINE",
"39 534 LINE",
"37 506 OFFCURVE",
"36 480 OFFCURVE",
"36 453 CURVE SMOOTH",
"36 156 OFFCURVE",
"201 -7 OFFCURVE",
"384 -7 CURVE SMOOTH",
"530 -7 OFFCURVE",
"748 124 OFFCURVE",
"748 519 CURVE SMOOTH",
"748 844 OFFCURVE",
"599 1066 OFFCURVE",
"370 1066 CURVE SMOOTH"
);
}
);
width = 783;
},
{
layerId = "2224527B-843E-45D0-ACBE-AC9678FC6685";
paths = (
{
closed = 1;
nodes = (
"50 906 LINE",
"114 906 LINE",
"107 981 LINE",
"101 981 OFFCURVE",
"99 1015 OFFCURVE",
"99 1046 CURVE",
"50 1046 LINE"
);
},
{
closed = 1;
nodes = (
"164 1068 OFFCURVE",
"96 1004 OFFCURVE",
"77 928 CURVE",
"131 906 LINE",
"142 948 OFFCURVE",
"175 1006 OFFCURVE",
"246 1006 CURVE SMOOTH",
"366 1006 OFFCURVE",
"384 739 OFFCURVE",
"384 490 CURVE SMOOTH",
"384 235 OFFCURVE",
"333 53 OFFCURVE",
"244 53 CURVE SMOOTH",
"150 53 OFFCURVE",
"130 246 OFFCURVE",
"130 454 CURVE",
"397 454 LINE",
"397 514 LINE",
"66 514 LINE",
"65 487 OFFCURVE",
"65 459 OFFCURVE",
"65 430 CURVE SMOOTH",
"65 241 OFFCURVE",
"90 -7 OFFCURVE",
"244 -7 CURVE SMOOTH",
"377 -7 OFFCURVE",
"448 184 OFFCURVE",
"448 521 CURVE SMOOTH",
"448 764 OFFCURVE",
"426 1068 OFFCURVE",
"246 1068 CURVE SMOOTH"
);
}
);
width = 507;
},
{
layerId = "42FCB8D3-5141-4304-9365-2E27830BD286";
paths = (
{
closed = 1;
nodes = (
"72 879 LINE",
"196 879 LINE",
"188 981 LINE",
"165 981 OFFCURVE",
"153 996 OFFCURVE",
"153 1046 CURVE",
"72 1046 LINE"
);
},
{
closed = 1;
nodes = (
"261 1066 OFFCURVE",
"143 985 OFFCURVE",
"108 912 CURVE",
"174 859 LINE",
"202 911 OFFCURVE",
"263 982 OFFCURVE",
"366 982 CURVE SMOOTH",
"461 982 OFFCURVE",
"503 893 OFFCURVE",
"503 530 CURVE SMOOTH",
"503 171 OFFCURVE",
"459 65 OFFCURVE",
"413 65 CURVE SMOOTH",
"370 65 OFFCURVE",
"339 171 OFFCURVE",
"339 494 CURVE",
"517 494 LINE",
"517 574 LINE",
"59 574 LINE",
"57 546 OFFCURVE",
"56 520 OFFCURVE",
"56 493 CURVE SMOOTH",
"56 158 OFFCURVE",
"220 -17 OFFCURVE",
"413 -17 CURVE SMOOTH",
"573 -17 OFFCURVE",
"803 124 OFFCURVE",
"803 519 CURVE SMOOTH",
"803 908 OFFCURVE",
"624 1066 OFFCURVE",
"406 1066 CURVE SMOOTH"
);
}
);
width = 859;
}
);
leftKerningGroup = o;
leftMetricsKey = o;
rightKerningGroup = o;
rightMetricsKey = o;
unicode = 0259;
},
{
color = 6;
glyphname = f;
lastChange = "2020-11-04 12:52:33 +0000";
layers = (
{
anchors = (
{
name = bottom;
position = "{218, 0}";
},
{
name = top;
position = "{218, 1500}";
}
);
layerId = "798A1B98-D718-4469-8D5D-1F04921BF637";
paths = (
{
closed = 1;
nodes = (
"293 0 LINE",
"293 20 LINE",
"205 20 LINE",
"205 1027 LINE",
"304 1027 LINE",
"304 1047 LINE",
"205 1047 LINE",
"205 1202 LINE SMOOTH",
"205 1398 OFFCURVE",
"207 1489 OFFCURVE",
"289 1489 CURVE SMOOTH",
"333 1489 OFFCURVE",
"371 1467 OFFCURVE",
"371 1373 CURVE SMOOTH",
"371 1333 OFFCURVE",
"362 1302 OFFCURVE",
"362 1271 CURVE SMOOTH",
"362 1240 OFFCURVE",
"365 1216 OFFCURVE",
"391 1216 CURVE SMOOTH",
"418 1216 OFFCURVE",
"422 1240 OFFCURVE",
"422 1280 CURVE SMOOTH",
"422 1411 OFFCURVE",
"375 1511 OFFCURVE",
"291 1511 CURVE SMOOTH",
"191 1511 OFFCURVE",
"145 1407 OFFCURVE",
"145 1207 CURVE SMOOTH",
"145 1047 LINE",
"49 1047 LINE",
"49 1027 LINE",
"145 1027 LINE",
"145 20 LINE",
"60 20 LINE",
"60 0 LINE"
);
}
);
width = 400;
},
{
anchors = (
{
name = bottom;
position = "{340, 0}";
},
{
name = top;
position = "{340, 1500}";
}
);
layerId = "A4F0BE09-87B8-499B-8BA0-E8BD95093B86";
paths = (
{
closed = 1;
nodes = (
"522 0 LINE",
"522 20 LINE",
"424 20 LINE",
"424 1027 LINE",
"553 1027 LINE",
"553 1047 LINE",
"424 1047 LINE",
"424 1122 LINE SMOOTH",
"424 1280 OFFCURVE",
"427 1489 OFFCURVE",
"504 1489 CURVE SMOOTH",
"558 1489 OFFCURVE",
"575 1462 OFFCURVE",
"575 1413 CURVE SMOOTH",
"575 1355 OFFCURVE",
"495 1296 OFFCURVE",
"495 1215 CURVE SMOOTH",
"495 1127 OFFCURVE",
"535 1076 OFFCURVE",
"604 1076 CURVE SMOOTH",
"673 1076 OFFCURVE",
"718 1131 OFFCURVE",
"718 1233 CURVE SMOOTH",
"718 1389 OFFCURVE",
"629 1511 OFFCURVE",
"484 1511 CURVE SMOOTH",
"236 1511 OFFCURVE",
"124 1338 OFFCURVE",
"124 1138 CURVE SMOOTH",
"124 1047 LINE",
"9 1047 LINE",
"9 1027 LINE",
"124 1027 LINE",
"124 20 LINE",
"31 20 LINE",
"31 0 LINE"
);
}
);
width = 638;
},
{
anchors = (
{
name = bottom;
position = "{227, 0}";
},
{
name = top;
position = "{227, 1500}";
}
);
layerId = "2224527B-843E-45D0-ACBE-AC9678FC6685";
paths = (
{
closed = 1;
nodes = (
"322 0 LINE",
"322 60 LINE",
"215 60 LINE",
"215 987 LINE",
"333 987 LINE",
"333 1047 LINE",
"215 1047 LINE",
"215 1218 LINE SMOOTH",
"215 1375 OFFCURVE",
"247 1451 OFFCURVE",
"309 1451 CURVE SMOOTH",
"351 1451 OFFCURVE",
"376 1400 OFFCURVE",
"376 1353 CURVE SMOOTH",
"376 1313 OFFCURVE",
"365 1300 OFFCURVE",
"365 1269 CURVE SMOOTH",
"365 1238 OFFCURVE",
"376 1216 OFFCURVE",
"402 1216 CURVE SMOOTH",
"429 1216 OFFCURVE",
"440 1240 OFFCURVE",
"440 1280 CURVE SMOOTH",
"440 1413 OFFCURVE",
"395 1511 OFFCURVE",
"309 1511 CURVE SMOOTH",
"216 1511 OFFCURVE",
"155 1427 OFFCURVE",
"155 1211 CURVE SMOOTH",
"155 1047 LINE",
"38 1047 LINE",
"38 987 LINE",
"155 987 LINE",
"155 60 LINE",
"49 60 LINE",
"49 0 LINE"
);
}
);
width = 418;
},
{
anchors = (
{
name = bottom;
position = "{367, 0}";
},
{
name = top;
position = "{367, 1500}";
}
);
layerId = "42FCB8D3-5141-4304-9365-2E27830BD286";
paths = (
{
closed = 1;
nodes = (
"571 0 LINE",
"571 80 LINE",
"451 80 LINE",
"451 967 LINE",
"600 967 LINE",
"600 1047 LINE",
"451 1047 LINE",
"451 1122 LINE SMOOTH",
"451 1280 OFFCURVE",
"455 1429 OFFCURVE",
"538 1429 CURVE SMOOTH",
"567 1429 OFFCURVE",
"600 1409 OFFCURVE",
"600 1362 CURVE SMOOTH",
"600 1315 OFFCURVE",
"516 1302 OFFCURVE",
"516 1204 CURVE SMOOTH",
"516 1136 OFFCURVE",
"547 1076 OFFCURVE",
"631 1076 CURVE SMOOTH",
"709 1076 OFFCURVE",
"751 1131 OFFCURVE",
"751 1233 CURVE SMOOTH",
"751 1398 OFFCURVE",
"664 1511 OFFCURVE",
"511 1511 CURVE SMOOTH",
"264 1511 OFFCURVE",
"151 1338 OFFCURVE",
"151 1138 CURVE SMOOTH",
"151 1047 LINE",
"15 1047 LINE",
"15 967 LINE",
"151 967 LINE",
"151 80 LINE",
"36 80 LINE",
"36 0 LINE"
);
}
);
width = 693;
}
);
leftKerningGroup = f;
rightKerningGroup = f;
unicode = 0066;
},
